fontCallback.success({"glyphs":{"S":{"x_min":41.203125,"x_max":745,"ha":814,"o":"m 366 -14 q 210 3 273 -14 q 110 49 148 21 q 57 111 73 76 q 41 179 41 146 q 54 240 41 215 q 89 280 67 264 q 139 302 111 295 q 198 309 168 309 q 212 204 198 249 q 252 129 227 159 q 312 83 277 99 q 388 68 347 68 q 461 80 429 68 q 515 112 493 91 q 549 160 538 132 q 561 219 561 187 q 546 282 561 254 q 503 333 532 309 q 431 377 474 356 q 329 423 387 399 q 206 485 256 453 q 126 553 156 516 q 82 632 95 590 q 69 726 69 675 q 94 841 69 790 q 166 930 120 893 q 273 986 211 966 q 409 1006 336 1006 q 542 993 486 1006 q 634 959 597 980 q 688 908 670 937 q 705 844 705 878 q 695 799 705 820 q 663 762 684 778 q 609 738 641 746 q 534 729 577 729 q 526 792 534 758 q 501 854 519 825 q 455 902 483 883 q 387 921 427 921 q 334 913 359 921 q 290 888 309 904 q 260 848 271 872 q 250 792 250 824 q 259 737 250 763 q 294 687 269 712 q 364 637 320 662 q 479 584 408 613 q 601 524 550 555 q 683 459 651 494 q 730 382 715 424 q 745 289 745 340 q 718 166 745 222 q 642 70 692 110 q 523 8 592 30 q 366 -14 453 -14 "},"¦":{"x_min":338,"x_max":437.703125,"ha":777,"o":"m 437 499 l 338 499 l 338 1055 l 437 1055 l 437 499 m 437 -334 l 338 -334 l 338 222 l 437 222 l 437 -334 "},"/":{"x_min":0,"x_max":400,"ha":400,"o":"m 99 -170 l 0 -168 l 302 1055 l 400 1055 l 99 -170 "},"y":{"x_min":-0.265625,"x_max":804.234375,"ha":804,"o":"m 804 745 l 804 671 q 767 666 783 671 q 738 649 751 661 q 714 618 725 637 q 693 569 703 599 q 642 428 668 500 q 588 284 615 356 q 535 140 562 212 q 483 0 508 69 q 437 -118 458 -67 q 391 -206 415 -169 q 338 -268 367 -243 q 270 -307 309 -292 q 180 -327 231 -321 q 60 -334 129 -334 l 37 -334 l 37 -253 q 160 -235 109 -253 q 246 -185 211 -217 q 304 -107 281 -152 q 344 -6 327 -61 l 94 604 q 75 635 85 624 q 53 653 65 647 q 28 661 42 659 q 0 662 15 662 l 0 745 l 395 745 l 395 671 q 331 660 355 671 q 308 619 308 650 q 313 592 308 607 q 321 565 317 576 q 347 502 334 536 q 373 433 360 468 q 397 367 385 399 q 417 311 408 335 q 434 263 427 284 q 445 224 441 242 q 452 192 450 207 q 456 164 455 178 q 462 195 458 178 q 471 228 466 212 q 480 257 475 244 q 487 275 485 270 l 579 547 q 584 563 581 554 q 588 582 586 572 q 591 600 590 591 q 592 615 592 609 q 566 659 592 647 q 491 671 539 671 l 491 745 l 804 745 "},"Á":{"x_min":5.8125,"x_max":1046.21875,"ha":1046,"o":"m 303 326 l 262 206 q 251 167 257 189 q 245 127 245 144 q 251 103 245 113 q 265 87 256 93 q 285 77 274 80 q 308 73 296 73 l 367 73 l 367 0 l 5 0 l 5 73 l 22 73 q 56 77 41 73 q 84 93 71 82 q 109 124 98 104 q 134 175 121 143 l 435 992 l 625 992 l 916 173 q 937 125 926 144 q 961 94 948 105 q 989 78 975 83 q 1021 73 1004 73 l 1046 73 l 1046 0 l 587 0 l 587 73 l 642 73 q 663 76 652 73 q 682 86 673 80 q 696 103 690 92 q 701 127 701 113 q 697 160 701 144 q 689 187 693 175 l 640 326 l 303 326 m 539 639 q 524 689 532 662 q 508 742 516 715 q 493 796 500 769 q 481 847 486 823 q 467 801 475 826 q 449 749 458 776 q 431 696 440 723 q 414 645 422 670 l 332 411 l 612 411 l 539 639 m 436 1089 q 469 1134 450 1108 q 506 1187 487 1160 q 542 1242 525 1215 q 569 1293 558 1269 l 788 1293 l 788 1278 q 745 1233 775 1260 q 678 1175 715 1205 q 602 1118 641 1146 q 530 1071 562 1089 l 436 1071 l 436 1089 "},"g":{"x_min":3,"x_max":772,"ha":778,"o":"m 772 717 q 767 687 772 702 q 751 662 762 672 q 720 644 740 651 q 672 638 701 638 q 668 663 672 652 q 656 681 664 674 q 639 693 649 689 q 619 696 630 696 q 594 692 608 696 q 574 681 581 687 q 600 646 588 666 q 622 603 612 626 q 636 555 631 580 q 642 504 642 530 q 625 408 642 452 q 574 331 608 363 q 486 280 539 298 q 361 262 433 262 q 342 262 353 262 q 319 263 330 262 q 297 264 307 263 q 281 266 286 265 q 263 254 272 261 q 246 238 253 247 q 235 218 239 229 q 230 195 230 207 q 248 161 230 172 q 295 151 266 151 l 464 151 q 583 136 533 151 q 666 94 633 121 q 715 27 699 67 q 731 -61 731 -11 q 706 -176 731 -125 q 632 -261 682 -226 q 506 -315 582 -296 q 327 -334 431 -334 q 83 -284 163 -334 q 3 -140 3 -235 q 51 -26 3 -66 q 190 20 99 13 q 153 39 171 28 q 120 65 135 49 q 97 100 106 80 q 89 144 89 119 q 98 186 89 167 q 123 224 107 206 q 162 258 139 242 q 212 289 185 274 q 156 320 182 300 q 111 366 130 339 q 81 428 92 393 q 71 504 71 462 q 141 694 71 627 q 361 762 212 762 q 453 749 410 762 q 526 719 495 736 q 552 745 538 731 q 583 770 566 759 q 623 789 601 782 q 671 797 644 797 q 715 790 696 797 q 746 773 733 784 q 765 748 759 762 q 772 717 772 733 m 167 -137 q 208 -223 167 -195 q 330 -250 250 -250 q 508 -215 452 -250 q 564 -111 564 -180 q 536 -49 564 -67 q 452 -32 508 -32 l 290 -32 q 247 -35 269 -32 q 208 -51 226 -39 q 178 -83 190 -62 q 167 -137 167 -104 m 260 504 q 265 438 260 468 q 281 388 270 409 q 311 355 293 367 q 357 344 330 344 q 403 355 384 344 q 432 387 421 366 q 447 439 443 409 q 452 506 452 469 q 447 577 452 545 q 431 631 442 608 q 401 666 420 653 q 355 678 383 678 q 310 665 328 678 q 280 629 292 652 q 264 574 269 606 q 260 504 260 542 "},"²":{"x_min":52,"x_max":498,"ha":555,"o":"m 473 857 q 464 799 473 826 q 433 742 456 772 q 372 677 411 712 q 273 594 333 642 l 160 504 l 381 504 q 423 518 411 504 q 439 550 435 531 l 446 588 l 498 588 l 492 397 l 52 397 l 52 496 l 204 625 q 263 683 239 654 q 300 738 286 711 q 319 792 313 765 q 324 848 324 820 q 309 918 324 893 q 259 943 295 943 q 222 931 236 943 q 200 898 207 918 q 190 854 192 879 q 187 805 187 829 q 142 810 164 805 q 102 825 119 815 q 73 851 84 835 q 62 889 62 866 q 75 935 62 914 q 113 972 88 957 q 175 997 138 988 q 259 1006 212 1006 q 356 995 315 1006 q 422 965 396 984 q 460 918 448 946 q 473 857 473 891 "},"ë":{"x_min":65,"x_max":735,"ha":793,"o":"m 412 671 q 319 614 354 671 q 282 445 285 556 l 522 445 q 516 540 522 497 q 497 611 510 582 q 463 656 483 640 q 412 671 442 671 m 425 -14 q 269 11 337 -14 q 156 86 202 37 q 88 206 111 135 q 65 367 65 277 q 88 539 65 465 q 155 662 111 613 q 263 737 199 712 q 409 762 327 762 q 545 740 485 762 q 648 677 606 719 q 712 572 690 635 q 735 427 735 510 l 735 356 l 279 356 q 294 236 281 286 q 331 153 307 186 q 388 105 354 120 q 465 89 421 89 q 531 98 501 89 q 587 121 562 106 q 630 157 612 137 q 661 202 649 178 q 699 134 699 182 q 682 77 699 104 q 632 30 666 51 q 547 -1 598 10 q 425 -14 496 -14 m 191 955 q 197 995 191 978 q 215 1022 204 1011 q 241 1036 226 1032 q 272 1041 256 1041 q 303 1036 289 1041 q 330 1022 318 1032 q 348 995 341 1011 q 356 955 356 978 q 348 915 356 931 q 330 888 341 898 q 303 873 318 878 q 272 869 289 869 q 241 873 256 869 q 215 888 226 878 q 197 915 204 898 q 191 955 191 931 m 476 955 q 482 995 476 978 q 501 1022 489 1011 q 527 1036 512 1032 q 559 1041 542 1041 q 589 1036 574 1041 q 615 1022 603 1032 q 633 995 626 1011 q 641 955 641 978 q 633 915 641 931 q 615 888 626 898 q 589 873 603 878 q 559 869 574 869 q 527 873 542 869 q 501 888 512 878 q 482 915 489 898 q 476 955 476 931 "},"Î":{"x_min":33,"x_max":526,"ha":557,"o":"m 38 0 l 38 73 l 96 73 q 125 76 112 73 q 147 89 138 80 q 162 116 157 99 q 168 164 168 134 l 168 827 q 162 875 168 857 q 147 902 157 892 q 125 915 138 911 q 96 918 112 918 l 38 918 l 38 992 l 517 992 l 517 918 l 459 918 q 431 915 444 918 q 408 902 418 911 q 393 875 399 892 q 388 827 388 857 l 388 164 q 393 116 388 134 q 408 89 399 99 q 431 76 418 80 q 459 73 444 73 l 517 73 l 517 0 l 38 0 m 33 1089 q 71 1134 49 1108 q 115 1187 93 1160 q 156 1242 136 1215 q 186 1293 175 1269 l 373 1293 q 403 1242 384 1269 q 444 1187 422 1215 q 488 1134 466 1160 q 526 1089 509 1108 l 526 1071 l 430 1071 q 396 1098 416 1082 q 355 1130 376 1113 q 314 1164 334 1147 q 279 1195 294 1181 q 243 1164 263 1181 q 202 1130 223 1147 q 162 1098 182 1113 q 129 1071 143 1082 l 33 1071 l 33 1089 "},"e":{"x_min":65,"x_max":735,"ha":793,"o":"m 412 671 q 319 614 354 671 q 282 445 285 556 l 522 445 q 516 540 522 497 q 497 611 510 582 q 463 656 483 640 q 412 671 442 671 m 425 -14 q 269 11 337 -14 q 156 86 202 37 q 88 206 111 135 q 65 367 65 277 q 88 539 65 465 q 155 662 111 613 q 263 737 199 712 q 409 762 327 762 q 545 740 485 762 q 648 677 606 719 q 712 572 690 635 q 735 427 735 510 l 735 356 l 279 356 q 294 236 281 286 q 331 153 307 186 q 388 105 354 120 q 465 89 421 89 q 531 98 501 89 q 587 121 562 106 q 630 157 612 137 q 661 202 649 178 q 699 134 699 182 q 682 77 699 104 q 632 30 666 51 q 547 -1 598 10 q 425 -14 496 -14 "},"Ã":{"x_min":5.8125,"x_max":1046.21875,"ha":1046,"o":"m 303 326 l 262 206 q 251 167 257 189 q 245 127 245 144 q 251 103 245 113 q 265 87 256 93 q 285 77 274 80 q 308 73 296 73 l 367 73 l 367 0 l 5 0 l 5 73 l 22 73 q 56 77 41 73 q 84 93 71 82 q 109 124 98 104 q 134 175 121 143 l 435 992 l 625 992 l 916 173 q 937 125 926 144 q 961 94 948 105 q 989 78 975 83 q 1021 73 1004 73 l 1046 73 l 1046 0 l 587 0 l 587 73 l 642 73 q 663 76 652 73 q 682 86 673 80 q 696 103 690 92 q 701 127 701 113 q 697 160 701 144 q 689 187 693 175 l 640 326 l 303 326 m 539 639 q 524 689 532 662 q 508 742 516 715 q 493 796 500 769 q 481 847 486 823 q 467 801 475 826 q 449 749 458 776 q 431 696 440 723 q 414 645 422 670 l 332 411 l 612 411 l 539 639 m 639 1203 q 666 1209 654 1203 q 687 1225 678 1215 q 700 1249 695 1235 q 707 1276 705 1262 l 798 1276 q 782 1197 795 1234 q 746 1131 768 1159 q 692 1087 723 1103 q 624 1071 661 1071 q 556 1084 587 1071 q 500 1114 526 1098 q 451 1145 474 1131 q 406 1158 429 1158 q 379 1152 391 1158 q 358 1136 367 1146 q 345 1112 350 1126 q 338 1085 340 1099 l 248 1085 q 263 1164 250 1127 q 300 1230 277 1202 q 354 1274 323 1258 q 422 1291 385 1291 q 490 1277 460 1291 q 546 1247 520 1263 q 595 1216 572 1230 q 639 1203 618 1203 "},"J":{"x_min":-54.078125,"x_max":495.96875,"ha":511,"o":"m 495 918 l 437 918 q 409 915 422 918 q 386 903 396 912 q 371 876 377 893 q 365 828 365 858 l 365 -2 q 351 -114 365 -65 q 312 -200 337 -163 q 252 -263 287 -237 q 176 -304 217 -288 q 89 -326 135 -319 q -3 -334 43 -334 l -54 -334 l -54 -253 l -28 -253 q 35 -240 4 -253 q 91 -199 67 -228 q 131 -121 116 -169 q 146 -4 146 -74 l 146 833 q 140 878 146 861 q 125 903 135 895 q 102 915 115 912 q 75 918 89 918 l 17 918 l 17 992 l 495 992 l 495 918 "},"»":{"x_min":90.046875,"x_max":679,"ha":770,"o":"m 679 339 l 466 97 l 369 97 l 510 375 l 369 654 l 466 654 l 679 411 l 679 339 m 400 339 l 187 97 l 90 97 l 230 375 l 90 654 l 187 654 l 400 411 l 400 339 "},"©":{"x_min":77,"x_max":1097,"ha":1174,"o":"m 77 495 q 95 631 77 566 q 146 753 113 696 q 225 857 179 810 q 328 937 272 903 q 450 988 385 970 q 585 1007 515 1007 q 721 988 656 1007 q 843 937 787 970 q 947 857 900 903 q 1027 753 993 810 q 1078 631 1060 696 q 1097 495 1097 566 q 1078 359 1097 424 q 1027 238 1060 294 q 947 134 993 181 q 843 55 900 88 q 721 3 787 21 q 585 -14 656 -14 q 450 3 515 -14 q 328 55 385 21 q 225 134 272 88 q 146 238 179 181 q 95 359 113 294 q 77 495 77 424 m 152 495 q 168 380 152 435 q 212 277 184 325 q 280 189 240 228 q 367 121 319 149 q 471 77 415 93 q 585 61 526 61 q 701 77 646 61 q 805 121 757 93 q 893 189 853 149 q 961 277 932 228 q 1004 380 989 325 q 1020 495 1020 435 q 1004 610 1020 555 q 961 714 989 666 q 893 803 932 763 q 805 871 853 842 q 701 914 757 899 q 585 930 646 930 q 471 914 526 930 q 367 871 415 899 q 280 803 319 842 q 212 714 240 763 q 168 611 184 666 q 152 495 152 555 m 611 247 q 670 255 643 247 q 719 277 697 263 q 756 307 740 290 q 782 341 772 324 q 795 324 790 335 q 801 298 801 313 q 788 259 801 279 q 749 223 775 239 q 684 197 723 207 q 593 187 645 187 q 472 209 523 187 q 385 272 420 231 q 333 370 350 313 q 316 496 316 427 q 334 620 316 564 q 391 717 353 677 q 484 781 429 758 q 612 804 539 804 q 696 796 660 804 q 755 775 731 788 q 791 743 779 761 q 803 704 803 726 q 795 677 803 690 q 775 657 788 665 q 745 644 762 648 q 708 639 727 639 q 702 678 708 659 q 686 712 697 696 q 656 736 674 727 q 609 745 637 745 q 527 729 561 745 q 471 681 492 713 q 439 603 449 649 q 429 496 429 557 q 476 312 429 376 q 611 247 523 247 "},"ò":{"x_min":65,"x_max":786,"ha":851,"o":"m 786 374 q 694 82 786 178 q 423 -14 602 -14 q 273 10 340 -14 q 160 82 207 34 q 89 203 114 130 q 65 374 65 277 q 156 666 65 570 q 427 762 248 762 q 577 738 511 762 q 690 666 643 714 q 761 545 736 618 q 786 374 786 472 m 280 374 q 288 244 280 300 q 313 150 296 188 q 358 92 330 112 q 426 73 386 73 q 494 92 466 73 q 538 150 521 112 q 563 244 556 188 q 571 374 571 300 q 563 505 571 449 q 538 598 555 561 q 492 654 520 635 q 425 673 465 673 q 357 654 385 673 q 312 598 329 635 q 288 505 295 561 q 280 374 280 449 m 419 842 q 347 889 387 860 q 270 946 307 917 q 203 1004 233 976 q 161 1049 173 1031 l 161 1064 l 378 1064 q 406 1013 389 1040 q 442 958 423 986 q 480 905 460 931 q 514 860 499 879 l 514 842 l 419 842 "},"^":{"x_min":64,"x_max":711,"ha":777,"o":"m 356 992 l 416 992 l 711 365 l 602 365 l 385 840 l 172 365 l 64 365 l 356 992 "},"«":{"x_min":90,"x_max":678.28125,"ha":770,"o":"m 90 411 l 302 654 l 399 654 l 259 375 l 399 97 l 302 97 l 90 339 l 90 411 m 369 411 l 581 654 l 678 654 l 538 375 l 678 97 l 581 97 l 369 339 l 369 411 "},"D":{"x_min":38.453125,"x_max":988,"ha":1065,"o":"m 988 514 q 956 305 988 400 q 863 143 925 211 q 709 37 801 75 q 496 0 617 0 l 38 0 l 38 73 l 96 73 q 125 76 112 73 q 147 89 138 80 q 162 116 157 99 q 168 164 168 134 l 168 833 q 162 878 168 861 q 147 903 157 895 q 124 915 137 912 q 96 918 111 918 l 38 918 l 38 992 l 496 992 q 703 961 611 992 q 857 871 794 931 q 954 721 920 811 q 988 514 988 632 m 753 514 q 680 810 753 713 q 466 907 607 907 l 387 907 l 387 86 l 464 86 q 590 115 536 86 q 680 200 644 145 q 735 335 716 256 q 753 514 753 414 "},"ⁿ":{"x_min":35.71875,"x_max":636.828125,"ha":667,"o":"m 338 597 l 338 536 l 35 536 l 35 597 l 42 597 q 69 599 56 597 q 90 606 81 601 q 105 622 100 612 q 111 649 111 633 l 111 881 q 105 907 111 897 q 90 921 100 916 q 68 928 81 926 q 42 930 56 930 l 39 930 l 39 992 l 245 992 l 260 923 l 266 923 q 297 961 281 947 q 331 985 313 976 q 370 996 349 993 q 412 1000 390 1000 q 528 963 487 1000 q 569 845 569 926 l 569 655 q 573 624 569 636 q 587 607 578 613 q 607 599 596 601 q 632 597 619 597 l 636 597 l 636 536 l 411 536 l 411 810 q 396 888 411 860 q 343 916 382 916 q 307 907 322 916 q 284 882 292 898 q 271 846 275 867 q 267 802 267 825 l 267 645 q 273 620 267 629 q 288 605 278 610 q 310 598 298 600 q 337 597 323 597 l 338 597 "},"ÿ":{"x_min":-0.265625,"x_max":804.234375,"ha":804,"o":"m 804 745 l 804 671 q 767 666 783 671 q 738 649 751 661 q 714 618 725 637 q 693 569 703 599 q 642 428 668 500 q 588 284 615 356 q 535 140 562 212 q 483 0 508 69 q 437 -118 458 -67 q 391 -206 415 -169 q 338 -268 367 -243 q 270 -307 309 -292 q 180 -327 231 -321 q 60 -334 129 -334 l 37 -334 l 37 -253 q 160 -235 109 -253 q 246 -185 211 -217 q 304 -107 281 -152 q 344 -6 327 -61 l 94 604 q 75 635 85 624 q 53 653 65 647 q 28 661 42 659 q 0 662 15 662 l 0 745 l 395 745 l 395 671 q 331 660 355 671 q 308 619 308 650 q 313 592 308 607 q 321 565 317 576 q 347 502 334 536 q 373 433 360 468 q 397 367 385 399 q 417 311 408 335 q 434 263 427 284 q 445 224 441 242 q 452 192 450 207 q 456 164 455 178 q 462 195 458 178 q 471 228 466 212 q 480 257 475 244 q 487 275 485 270 l 579 547 q 584 563 581 554 q 588 582 586 572 q 591 600 590 591 q 592 615 592 609 q 566 659 592 647 q 491 671 539 671 l 491 745 l 804 745 m 181 955 q 187 995 181 978 q 205 1022 194 1011 q 231 1036 216 1032 q 262 1041 246 1041 q 293 1036 279 1041 q 320 1022 308 1032 q 338 995 331 1011 q 346 955 346 978 q 338 915 346 931 q 320 888 331 898 q 293 873 308 878 q 262 869 279 869 q 231 873 246 869 q 205 888 216 878 q 187 915 194 898 q 181 955 181 931 m 466 955 q 472 995 466 978 q 491 1022 479 1011 q 517 1036 502 1032 q 549 1041 532 1041 q 579 1036 564 1041 q 605 1022 593 1032 q 623 995 616 1011 q 631 955 631 978 q 623 915 631 931 q 605 888 616 898 q 579 873 593 878 q 549 869 564 869 q 517 873 532 869 q 491 888 502 878 q 472 915 479 898 q 466 955 466 931 "},"í":{"x_min":23.703125,"x_max":532,"ha":489,"o":"m 39 73 q 72 76 55 73 q 104 89 90 80 q 129 116 119 99 q 139 164 139 134 l 139 586 q 129 630 139 614 q 104 656 119 647 q 72 668 89 665 q 39 671 54 671 l 23 671 l 23 745 l 349 745 l 349 164 q 359 116 349 134 q 384 89 369 99 q 416 76 398 80 q 448 73 434 73 l 465 73 l 465 0 l 23 0 l 23 73 l 39 73 m 180 860 q 213 905 194 879 q 250 958 231 931 q 286 1013 269 986 q 313 1064 302 1040 l 532 1064 l 532 1049 q 489 1004 519 1031 q 422 946 459 976 q 346 889 385 917 q 274 842 306 860 l 180 842 l 180 860 "},"w":{"x_min":-4.40625,"x_max":1190.078125,"ha":1189,"o":"m 686 737 l 821 327 q 846 242 838 277 q 858 181 853 207 l 862 181 q 868 215 865 199 q 876 247 871 230 q 886 284 880 264 q 899 330 891 304 l 960 533 q 970 571 966 550 q 973 603 973 591 q 951 654 973 638 q 881 671 928 671 l 871 671 l 871 745 l 1190 745 l 1190 671 l 1172 671 q 1137 667 1152 671 q 1110 651 1122 662 q 1089 617 1099 639 q 1068 562 1078 596 l 888 0 l 739 0 l 587 461 l 427 0 l 276 0 l 98 597 q 81 633 90 619 q 61 656 72 648 q 34 667 49 664 q 0 671 20 671 l -4 671 l -4 745 l 402 745 l 402 671 l 384 671 q 321 659 342 671 q 300 612 300 647 q 304 584 300 601 q 312 553 308 568 l 363 372 q 376 320 370 347 q 388 269 382 294 q 398 221 393 244 q 405 181 402 199 l 409 181 q 425 253 415 216 q 454 341 436 290 l 595 737 l 686 737 "},"$":{"x_min":67,"x_max":707,"ha":777,"o":"m 433 1055 l 433 950 q 539 936 494 948 q 613 906 584 925 q 657 863 643 887 q 671 811 671 839 q 633 738 671 767 q 518 710 595 710 q 513 754 518 730 q 498 800 508 778 q 472 840 488 822 q 433 868 456 858 l 433 597 q 448 591 437 595 q 467 583 460 586 q 577 531 531 558 q 651 474 622 505 q 693 406 680 443 q 707 326 707 370 q 688 228 707 273 q 634 148 669 183 q 548 92 599 114 q 433 62 497 70 l 433 -110 l 355 -110 l 355 60 q 220 80 275 62 q 131 126 165 98 q 81 188 96 154 q 67 254 67 222 q 78 306 67 285 q 107 340 89 327 q 149 359 126 353 q 197 365 172 365 q 209 272 197 313 q 241 203 220 232 q 290 156 261 174 q 355 133 319 139 l 355 433 l 331 443 q 220 498 264 470 q 148 557 175 525 q 109 625 121 588 q 98 706 98 662 q 116 798 98 757 q 169 871 135 840 q 250 922 203 902 q 355 949 298 942 l 355 1055 l 433 1055 m 542 264 q 514 339 542 308 q 433 398 487 370 l 433 136 q 513 182 485 148 q 542 264 542 217 m 260 765 q 264 729 260 746 q 279 697 268 712 q 308 665 290 681 q 355 635 327 650 l 355 875 q 287 840 314 867 q 260 765 260 812 "},"\\":{"x_min":0,"x_max":400,"ha":400,"o":"m 0 1055 l 98 1055 l 400 -168 l 299 -168 l 0 1055 "},"Ì":{"x_min":33,"x_max":517.953125,"ha":557,"o":"m 38 0 l 38 73 l 96 73 q 125 76 112 73 q 147 89 138 80 q 162 116 157 99 q 168 164 168 134 l 168 827 q 162 875 168 857 q 147 902 157 892 q 125 915 138 911 q 96 918 112 918 l 38 918 l 38 992 l 517 992 l 517 918 l 459 918 q 431 915 444 918 q 408 902 418 911 q 393 875 399 892 q 388 827 388 857 l 388 164 q 393 116 388 134 q 408 89 399 99 q 431 76 418 80 q 459 73 444 73 l 517 73 l 517 0 l 38 0 m 291 1071 q 219 1118 259 1089 q 142 1175 179 1146 q 75 1233 105 1205 q 33 1278 45 1260 l 33 1293 l 250 1293 q 278 1242 261 1269 q 314 1187 295 1215 q 352 1134 332 1160 q 386 1089 371 1108 l 386 1071 l 291 1071 "},"µ":{"x_min":112.71875,"x_max":888.453125,"ha":924,"o":"m 389 -14 q 290 7 331 -14 q 222 67 249 28 q 227 -39 222 9 q 247 -124 232 -87 q 292 -183 263 -161 q 371 -212 322 -206 q 362 -261 371 -239 q 336 -299 353 -283 q 296 -324 320 -315 q 242 -334 272 -334 q 193 -324 217 -334 q 151 -293 169 -315 q 123 -237 133 -272 q 112 -151 112 -202 q 114 -64 112 -110 q 119 35 116 -19 q 125 158 122 90 q 129 312 128 225 l 129 745 l 340 745 l 340 285 q 345 215 340 248 q 362 157 350 182 q 394 118 374 132 q 445 104 415 104 q 498 119 475 104 q 538 163 522 135 q 564 231 555 191 q 573 319 573 271 l 573 745 l 784 745 l 784 191 q 807 101 784 128 q 878 73 830 73 l 888 73 l 888 0 l 767 0 q 650 33 695 0 q 586 120 604 66 l 579 120 q 545 64 563 89 q 505 22 527 39 q 454 -4 482 4 q 389 -14 425 -14 "},"Ç":{"x_min":77,"x_max":872,"ha":928,"o":"m 590 96 q 680 108 640 96 q 751 139 720 120 q 805 182 782 158 q 846 228 829 205 q 864 203 857 220 q 870 169 870 186 q 855 107 870 139 q 802 48 839 75 q 705 3 766 21 q 556 -14 645 -14 q 346 22 436 -14 q 196 126 255 59 q 106 288 136 193 q 77 497 77 382 q 107 703 77 609 q 197 864 138 796 q 347 968 257 931 q 555 1006 437 1006 q 694 993 635 1006 q 793 959 754 980 q 852 908 832 937 q 872 844 872 878 q 860 796 872 818 q 827 758 849 774 q 772 733 805 742 q 698 723 740 723 q 690 792 698 758 q 665 854 683 826 q 618 899 647 882 q 546 917 589 917 q 434 889 480 917 q 362 807 389 861 q 322 675 334 754 q 310 497 310 597 q 325 321 310 396 q 373 195 340 245 q 459 121 406 146 q 590 96 512 96 m 653 -175 q 638 -241 653 -211 q 598 -291 624 -270 q 536 -323 572 -312 q 456 -334 500 -334 q 429 -332 445 -334 q 397 -329 414 -331 q 364 -324 380 -327 q 335 -318 347 -321 l 335 -233 q 385 -241 360 -239 q 429 -244 410 -244 q 491 -230 469 -244 q 514 -180 514 -216 q 506 -147 514 -160 q 484 -126 499 -134 q 451 -115 470 -118 q 410 -110 432 -111 l 439 12 l 518 12 l 504 -47 q 565 -60 538 -50 q 612 -86 593 -70 q 642 -125 631 -102 q 653 -175 653 -148 "},"-":{"x_min":35,"x_max":396,"ha":431,"o":"m 35 306 l 35 452 l 396 452 l 396 306 l 35 306 "},"Q":{"x_min":77,"x_max":1016,"ha":1093,"o":"m 1016 497 q 993 317 1016 399 q 929 171 971 234 q 823 63 886 107 q 678 0 760 20 q 703 -125 684 -76 q 750 -203 722 -175 q 810 -242 777 -231 q 878 -253 843 -253 l 900 -253 l 900 -334 l 801 -334 q 678 -315 738 -334 q 568 -257 617 -297 q 486 -155 519 -217 q 446 -5 453 -93 q 283 51 353 9 q 168 159 214 93 q 99 310 122 224 q 77 498 77 396 q 106 707 77 613 q 193 868 135 801 q 340 970 252 934 q 548 1007 429 1007 q 748 970 661 1007 q 894 867 835 934 q 985 707 954 800 q 1016 497 1016 613 m 310 497 q 323 319 310 397 q 364 187 336 241 q 437 105 392 134 q 547 77 482 77 q 657 105 612 77 q 729 187 702 134 q 770 319 757 241 q 782 497 782 397 q 770 674 782 596 q 729 806 757 752 q 657 888 702 860 q 548 916 612 916 q 438 888 483 916 q 364 806 392 860 q 323 674 336 752 q 310 497 310 596 "},"M":{"x_min":38.453125,"x_max":1283.875,"ha":1323,"o":"m 839 0 l 839 73 l 853 73 q 891 76 874 73 q 918 87 908 79 q 935 110 929 95 q 940 151 940 126 l 940 855 l 660 0 l 565 0 l 271 855 l 271 164 q 278 116 271 134 q 299 89 286 99 q 331 76 312 80 q 374 73 350 73 l 383 73 l 383 0 l 38 0 l 38 73 l 96 73 q 124 76 111 73 q 147 87 137 79 q 162 112 157 96 q 168 156 168 129 l 168 833 q 162 878 168 861 q 147 903 157 895 q 124 915 137 912 q 96 918 111 918 l 38 918 l 38 992 l 438 992 l 669 320 l 891 992 l 1283 992 l 1283 918 l 1225 918 q 1197 915 1210 918 q 1175 903 1184 912 q 1160 876 1165 893 q 1155 828 1155 858 l 1155 164 q 1160 116 1155 134 q 1175 89 1165 99 q 1197 76 1184 80 q 1225 73 1210 73 l 1283 73 l 1283 0 l 839 0 "},"C":{"x_min":77,"x_max":872,"ha":928,"o":"m 590 96 q 680 108 640 96 q 751 139 720 120 q 805 182 782 158 q 846 228 829 205 q 864 203 857 220 q 870 169 870 186 q 855 107 870 139 q 802 48 839 75 q 705 3 766 21 q 556 -14 645 -14 q 346 22 436 -14 q 196 126 255 59 q 106 288 136 193 q 77 497 77 382 q 107 703 77 609 q 197 864 138 796 q 347 968 257 931 q 555 1006 437 1006 q 694 993 635 1006 q 793 959 754 980 q 852 908 832 937 q 872 844 872 878 q 860 796 872 818 q 827 758 849 774 q 772 733 805 742 q 698 723 740 723 q 690 792 698 758 q 665 854 683 826 q 618 899 647 882 q 546 917 589 917 q 434 889 480 917 q 362 807 389 861 q 322 675 334 754 q 310 497 310 597 q 325 321 310 396 q 373 195 340 245 q 459 121 406 146 q 590 96 512 96 "},"!":{"x_min":144.875,"x_max":386.421875,"ha":530,"o":"m 144 992 l 386 992 l 305 317 l 226 317 l 144 992 m 153 99 q 161 152 153 131 q 185 187 170 174 q 222 205 201 200 q 267 211 243 211 q 310 205 290 211 q 347 187 331 200 q 371 152 362 174 q 381 99 381 131 q 371 47 381 68 q 347 13 362 26 q 310 -5 331 0 q 267 -11 290 -11 q 222 -5 243 -11 q 185 13 201 0 q 161 47 170 26 q 153 99 153 68 "},"ç":{"x_min":65,"x_max":681,"ha":732,"o":"m 409 -14 q 269 5 332 -14 q 160 70 206 25 q 90 189 115 116 q 65 369 65 262 q 91 557 65 481 q 163 677 117 632 q 271 742 208 723 q 405 762 333 762 q 524 750 472 762 q 610 719 575 739 q 663 673 645 700 q 681 616 681 646 q 673 572 681 593 q 645 534 665 551 q 590 508 625 518 q 501 498 555 498 q 496 566 501 534 q 482 623 492 599 q 454 662 472 648 q 410 677 437 677 q 356 662 380 677 q 314 612 332 648 q 288 518 297 577 q 279 370 279 459 q 317 159 279 229 q 444 89 356 89 q 511 98 480 89 q 569 121 543 106 q 614 157 594 137 q 645 202 633 178 q 670 174 662 192 q 679 138 679 157 q 663 85 679 112 q 614 35 647 57 q 531 0 581 13 q 409 -14 480 -14 m 569 -175 q 554 -241 569 -211 q 514 -291 540 -270 q 452 -323 488 -312 q 372 -334 416 -334 q 345 -332 361 -334 q 313 -329 330 -331 q 280 -324 296 -327 q 251 -318 263 -321 l 251 -233 q 301 -241 276 -239 q 345 -244 326 -244 q 407 -230 385 -244 q 430 -180 430 -216 q 422 -147 430 -160 q 400 -126 415 -134 q 367 -115 386 -118 q 326 -110 348 -111 l 355 12 l 434 12 l 420 -47 q 481 -60 454 -50 q 528 -86 509 -70 q 558 -125 547 -102 q 569 -175 569 -148 "},"È":{"x_min":38.453125,"x_max":863,"ha":907,"o":"m 388 84 l 666 84 q 702 92 687 84 q 728 114 717 100 q 745 148 739 128 q 755 190 752 167 l 766 256 l 863 256 l 852 0 l 38 0 l 38 73 l 96 73 q 124 76 111 73 q 147 87 137 79 q 162 112 157 96 q 168 156 168 129 l 168 828 q 162 876 168 858 q 147 903 157 893 q 125 915 138 912 q 96 918 112 918 l 38 918 l 38 992 l 809 992 l 815 736 l 718 736 l 711 801 q 685 880 705 852 q 622 907 665 907 l 388 907 l 388 560 l 718 560 l 718 476 l 388 476 l 388 84 m 467 1071 q 395 1118 435 1089 q 318 1175 355 1146 q 251 1233 281 1205 q 209 1278 221 1260 l 209 1293 l 426 1293 q 454 1242 437 1269 q 490 1187 471 1215 q 528 1134 508 1160 q 562 1089 547 1108 l 562 1071 l 467 1071 "},"{":{"x_min":41.59375,"x_max":572.640625,"ha":614,"o":"m 440 -174 q 337 -159 382 -174 q 263 -118 293 -145 q 218 -53 233 -91 q 203 31 203 -15 l 203 269 q 190 334 203 309 q 156 373 177 358 q 105 393 134 387 q 41 400 75 398 l 41 485 q 105 491 75 486 q 156 511 134 497 q 190 550 177 525 q 203 613 203 575 l 203 852 q 263 1002 203 949 q 440 1055 323 1055 l 572 1055 l 572 981 l 518 981 q 469 972 488 981 q 439 947 450 964 q 423 904 428 930 q 419 846 419 879 l 419 611 q 383 507 419 548 q 266 449 347 467 l 266 437 q 383 377 346 417 q 419 273 419 336 l 419 35 q 423 -22 419 3 q 439 -65 428 -47 q 469 -91 450 -82 q 518 -100 488 -100 l 572 -100 l 572 -174 l 440 -174 "},"X":{"x_min":13.71875,"x_max":1003.546875,"ha":1017,"o":"m 727 878 q 720 898 727 890 q 704 910 714 906 q 679 917 693 915 q 649 918 665 918 l 645 918 l 645 992 l 970 992 l 970 918 l 957 918 q 921 913 937 918 q 888 896 904 908 q 856 865 872 884 q 820 818 840 846 l 618 543 l 874 147 q 930 89 901 104 q 985 73 959 73 l 1003 73 l 1003 0 l 545 0 l 545 73 l 551 73 q 635 119 635 73 q 633 134 635 127 q 627 152 632 142 q 613 177 622 162 q 588 215 604 192 l 461 408 l 311 205 q 287 165 298 187 q 275 120 275 142 q 294 85 275 97 q 359 73 313 73 l 364 73 l 364 0 l 13 0 l 13 73 l 22 73 q 66 80 47 73 q 102 100 85 87 q 134 130 118 112 q 167 170 150 148 l 410 487 l 181 844 q 158 877 169 863 q 133 900 147 890 q 102 914 119 909 q 61 918 85 918 l 43 918 l 43 992 l 503 992 l 503 918 l 499 918 q 459 915 475 918 q 433 906 443 912 q 420 893 424 901 q 417 878 417 886 q 427 842 417 863 q 453 796 437 820 l 568 624 l 689 793 q 714 835 701 812 q 727 878 727 859 "},"ô":{"x_min":65,"x_max":786,"ha":851,"o":"m 786 374 q 694 82 786 178 q 423 -14 602 -14 q 273 10 340 -14 q 160 82 207 34 q 89 203 114 130 q 65 374 65 277 q 156 666 65 570 q 427 762 248 762 q 577 738 511 762 q 690 666 643 714 q 761 545 736 618 q 786 374 786 472 m 280 374 q 288 244 280 300 q 313 150 296 188 q 358 92 330 112 q 426 73 386 73 q 494 92 466 73 q 538 150 521 112 q 563 244 556 188 q 571 374 571 300 q 563 505 571 449 q 538 598 555 561 q 492 654 520 635 q 425 673 465 673 q 357 654 385 673 q 312 598 329 635 q 288 505 295 561 q 280 374 280 449 m 178 860 q 216 905 194 879 q 260 958 238 931 q 301 1013 281 986 q 331 1064 320 1040 l 518 1064 q 548 1013 529 1040 q 589 958 567 986 q 633 905 611 931 q 671 860 654 879 l 671 842 l 575 842 q 541 869 561 853 q 500 901 521 884 q 459 935 479 918 q 424 966 439 952 q 388 935 408 952 q 347 901 368 918 q 307 869 327 884 q 274 842 288 853 l 178 842 l 178 860 "},"¼":{"x_min":7.015625,"x_max":1139.84375,"ha":1167,"o":"m 300 999 l 300 512 q 305 484 300 495 q 319 468 310 474 q 339 461 327 463 q 364 460 351 460 l 421 460 l 421 399 l 29 399 l 29 460 l 99 460 q 124 461 113 460 q 144 468 135 463 q 158 484 153 474 q 163 512 163 495 l 163 906 q 105 844 130 868 q 54 821 79 821 q 20 840 34 821 q 7 889 7 860 q 62 909 32 895 q 135 952 93 923 l 197 999 l 300 999 m 392 0 l 284 0 l 779 992 l 887 992 l 392 0 m 1032 163 l 1032 114 q 1036 86 1032 97 q 1049 70 1041 76 q 1068 63 1057 65 q 1090 62 1078 62 l 1118 62 l 1118 1 l 798 1 l 798 62 l 837 62 q 859 63 848 62 q 877 70 869 65 q 889 86 884 76 q 894 114 894 97 l 894 163 l 630 163 l 630 218 l 906 601 l 1032 601 l 1032 237 l 1139 237 l 1139 163 l 1032 163 m 894 403 q 896 446 894 425 q 901 493 897 468 q 889 471 895 482 q 880 454 883 459 l 721 237 l 894 237 l 894 403 "},"#":{"x_min":39,"x_max":738,"ha":777,"o":"m 694 373 l 694 278 l 519 278 l 467 0 l 369 0 l 421 278 l 276 278 l 223 0 l 124 0 l 177 278 l 39 278 l 39 373 l 195 373 l 244 626 l 83 626 l 83 723 l 262 723 l 311 992 l 410 992 l 360 723 l 505 723 l 557 992 l 656 992 l 604 723 l 738 723 l 738 626 l 586 626 l 539 373 l 694 373 m 294 373 l 440 373 l 489 626 l 343 626 l 294 373 "},"Ê":{"x_min":38.453125,"x_max":863,"ha":907,"o":"m 388 84 l 666 84 q 702 92 687 84 q 728 114 717 100 q 745 148 739 128 q 755 190 752 167 l 766 256 l 863 256 l 852 0 l 38 0 l 38 73 l 96 73 q 124 76 111 73 q 147 87 137 79 q 162 112 157 96 q 168 156 168 129 l 168 828 q 162 876 168 858 q 147 903 157 893 q 125 915 138 912 q 96 918 112 918 l 38 918 l 38 992 l 809 992 l 815 736 l 718 736 l 711 801 q 685 880 705 852 q 622 907 665 907 l 388 907 l 388 560 l 718 560 l 718 476 l 388 476 l 388 84 m 196 1089 q 234 1134 212 1108 q 278 1187 256 1160 q 319 1242 299 1215 q 349 1293 338 1269 l 536 1293 q 566 1242 547 1269 q 607 1187 585 1215 q 651 1134 629 1160 q 689 1089 672 1108 l 689 1071 l 593 1071 q 559 1098 579 1082 q 518 1130 539 1113 q 477 1164 497 1147 q 442 1195 457 1181 q 406 1164 426 1181 q 365 1130 386 1147 q 325 1098 345 1113 q 292 1071 306 1082 l 196 1071 l 196 1089 "},")":{"x_min":45,"x_max":476,"ha":555,"o":"m 252 441 q 244 603 252 524 q 213 752 235 682 q 149 882 190 823 q 45 984 109 941 l 45 1072 q 242 963 160 1025 q 376 822 324 901 q 452 648 428 743 q 476 441 476 553 q 452 233 476 329 q 376 58 428 137 q 242 -83 324 -20 q 45 -193 160 -146 l 45 -104 q 149 -1 109 -61 q 213 128 190 57 q 244 279 235 199 q 252 441 252 358 "},"Å":{"x_min":5.8125,"x_max":1046.21875,"ha":1046,"o":"m 303 326 l 262 206 q 251 167 257 189 q 245 127 245 144 q 251 103 245 113 q 265 87 256 93 q 285 77 274 80 q 308 73 296 73 l 367 73 l 367 0 l 5 0 l 5 73 l 22 73 q 56 77 41 73 q 84 93 71 82 q 109 124 98 104 q 134 175 121 143 l 435 992 l 625 992 l 916 173 q 937 125 926 144 q 961 94 948 105 q 989 78 975 83 q 1021 73 1004 73 l 1046 73 l 1046 0 l 587 0 l 587 73 l 642 73 q 663 76 652 73 q 682 86 673 80 q 696 103 690 92 q 701 127 701 113 q 697 160 701 144 q 689 187 693 175 l 640 326 l 303 326 m 539 639 q 524 689 532 662 q 508 742 516 715 q 493 796 500 769 q 481 847 486 823 q 467 801 475 826 q 449 749 458 776 q 431 696 440 723 q 414 645 422 670 l 332 411 l 612 411 l 539 639 m 696 1066 q 683 1000 696 1028 q 647 953 670 972 q 594 924 624 934 q 529 915 563 915 q 463 924 494 915 q 410 953 433 934 q 374 1000 387 972 q 362 1066 362 1028 q 374 1131 362 1102 q 410 1178 387 1159 q 463 1207 433 1197 q 529 1217 494 1217 q 594 1207 563 1217 q 647 1178 624 1197 q 683 1131 670 1159 q 696 1066 696 1102 m 611 1066 q 604 1100 611 1086 q 587 1123 598 1114 q 560 1136 575 1132 q 529 1140 545 1140 q 497 1136 512 1140 q 470 1123 482 1132 q 453 1100 459 1114 q 446 1066 446 1086 q 453 1031 446 1045 q 470 1008 459 1017 q 497 995 482 999 q 529 990 512 990 q 560 995 545 990 q 587 1008 575 999 q 604 1031 598 1017 q 611 1066 611 1045 "},"ø":{"x_min":65,"x_max":786,"ha":851,"o":"m 786 374 q 694 82 786 178 q 423 -14 602 -14 q 259 15 330 -14 l 214 -56 l 116 -56 l 185 57 q 96 184 127 106 q 65 374 65 263 q 156 666 65 570 q 427 762 248 762 q 520 753 476 762 q 600 728 563 745 l 644 800 l 741 800 l 670 683 q 756 558 726 634 q 786 374 786 482 m 280 374 q 282 294 280 331 q 290 227 284 258 l 528 614 q 425 673 493 673 q 357 654 385 673 q 312 598 329 635 q 288 505 295 561 q 280 374 280 449 m 571 374 q 568 445 571 412 q 562 508 566 478 l 326 124 q 426 73 360 73 q 494 92 466 73 q 538 150 521 112 q 563 244 556 188 q 571 374 571 300 "},"â":{"x_min":62,"x_max":786.859375,"ha":832,"o":"m 277 206 q 296 116 277 146 q 356 87 315 87 q 410 99 386 87 q 451 135 434 112 q 477 191 468 158 q 487 265 487 224 l 487 369 l 424 365 q 354 352 383 363 q 309 321 326 341 q 285 273 292 301 q 277 206 277 244 m 401 677 q 356 666 374 677 q 327 634 338 654 q 312 587 316 614 q 308 527 308 559 q 167 548 214 527 q 120 620 120 569 q 143 685 120 658 q 204 729 165 712 q 295 754 243 746 q 406 762 347 762 q 534 749 479 762 q 625 709 588 736 q 679 636 661 681 q 698 526 698 591 l 698 172 q 702 124 698 143 q 716 94 706 105 q 742 78 725 83 q 781 73 758 73 l 786 73 l 786 0 l 528 0 l 499 95 l 487 95 q 443 46 464 67 q 400 12 423 26 q 348 -7 377 -1 q 280 -14 319 -14 q 194 0 234 -14 q 125 41 154 13 q 78 111 95 69 q 62 212 62 154 q 139 379 62 325 q 373 438 217 434 l 487 443 l 487 519 q 484 583 487 554 q 472 633 481 612 q 446 665 464 654 q 401 677 429 677 m 173 860 q 211 905 189 879 q 255 958 233 931 q 296 1013 276 986 q 326 1064 315 1040 l 513 1064 q 543 1013 524 1040 q 584 958 562 986 q 628 905 606 931 q 666 860 649 879 l 666 842 l 570 842 q 536 869 556 853 q 495 901 516 884 q 454 935 474 918 q 419 966 434 952 q 383 935 403 952 q 342 901 363 918 q 302 869 322 884 q 269 842 283 853 l 173 842 l 173 860 "},"}":{"x_min":41.375,"x_max":572.421875,"ha":614,"o":"m 41 -174 l 41 -100 l 95 -100 q 144 -91 125 -100 q 174 -65 163 -82 q 190 -22 185 -47 q 194 35 194 3 l 194 273 q 230 377 194 336 q 347 437 267 417 l 347 449 q 230 507 266 467 q 194 611 194 548 l 194 846 q 190 904 194 879 q 174 947 185 930 q 144 972 163 964 q 95 981 125 981 l 41 981 l 41 1055 l 173 1055 q 350 1002 290 1055 q 411 852 411 949 l 411 613 q 423 550 411 575 q 457 511 436 525 q 509 491 479 497 q 572 485 538 486 l 572 400 q 509 393 538 398 q 457 373 479 387 q 423 334 436 358 q 411 269 411 309 l 411 31 q 395 -53 411 -15 q 350 -118 380 -91 q 276 -159 320 -145 q 173 -174 231 -174 l 41 -174 "},"Ä":{"x_min":5.8125,"x_max":1046.21875,"ha":1046,"o":"m 303 326 l 262 206 q 251 167 257 189 q 245 127 245 144 q 251 103 245 113 q 265 87 256 93 q 285 77 274 80 q 308 73 296 73 l 367 73 l 367 0 l 5 0 l 5 73 l 22 73 q 56 77 41 73 q 84 93 71 82 q 109 124 98 104 q 134 175 121 143 l 435 992 l 625 992 l 916 173 q 937 125 926 144 q 961 94 948 105 q 989 78 975 83 q 1021 73 1004 73 l 1046 73 l 1046 0 l 587 0 l 587 73 l 642 73 q 663 76 652 73 q 682 86 673 80 q 696 103 690 92 q 701 127 701 113 q 697 160 701 144 q 689 187 693 175 l 640 326 l 303 326 m 539 639 q 524 689 532 662 q 508 742 516 715 q 493 796 500 769 q 481 847 486 823 q 467 801 475 826 q 449 749 458 776 q 431 696 440 723 q 414 645 422 670 l 332 411 l 612 411 l 539 639 m 297 1184 q 303 1224 297 1207 q 321 1251 310 1240 q 347 1265 332 1261 q 378 1270 362 1270 q 409 1265 395 1270 q 436 1251 424 1261 q 454 1224 447 1240 q 462 1184 462 1207 q 454 1144 462 1160 q 436 1117 447 1127 q 409 1102 424 1107 q 378 1098 395 1098 q 347 1102 362 1098 q 321 1117 332 1107 q 303 1144 310 1127 q 297 1184 297 1160 m 582 1184 q 588 1224 582 1207 q 607 1251 595 1240 q 633 1265 618 1261 q 665 1270 648 1270 q 695 1265 680 1270 q 721 1251 709 1261 q 739 1224 732 1240 q 747 1184 747 1207 q 739 1144 747 1160 q 721 1117 732 1127 q 695 1102 709 1107 q 665 1098 680 1098 q 633 1102 648 1098 q 607 1117 618 1107 q 588 1144 595 1127 q 582 1184 582 1160 "},"¸":{"x_min":69,"x_max":387,"ha":463,"o":"m 387 -175 q 372 -241 387 -211 q 332 -291 358 -270 q 270 -323 306 -312 q 190 -334 234 -334 q 163 -332 179 -334 q 131 -329 148 -331 q 98 -324 114 -327 q 69 -318 81 -321 l 69 -233 q 119 -241 94 -239 q 163 -244 144 -244 q 225 -230 203 -244 q 248 -180 248 -216 q 240 -147 248 -160 q 218 -126 233 -134 q 185 -115 204 -118 q 144 -110 166 -111 l 173 12 l 252 12 l 238 -47 q 299 -60 272 -50 q 346 -86 327 -70 q 376 -125 365 -102 q 387 -175 387 -148 "},"a":{"x_min":62,"x_max":786.859375,"ha":832,"o":"m 277 206 q 296 116 277 146 q 356 87 315 87 q 410 99 386 87 q 451 135 434 112 q 477 191 468 158 q 487 265 487 224 l 487 369 l 424 365 q 354 352 383 363 q 309 321 326 341 q 285 273 292 301 q 277 206 277 244 m 401 677 q 356 666 374 677 q 327 634 338 654 q 312 587 316 614 q 308 527 308 559 q 167 548 214 527 q 120 620 120 569 q 143 685 120 658 q 204 729 165 712 q 295 754 243 746 q 406 762 347 762 q 534 749 479 762 q 625 709 588 736 q 679 636 661 681 q 698 526 698 591 l 698 172 q 702 124 698 143 q 716 94 706 105 q 742 78 725 83 q 781 73 758 73 l 786 73 l 786 0 l 528 0 l 499 95 l 487 95 q 443 46 464 67 q 400 12 423 26 q 348 -7 377 -1 q 280 -14 319 -14 q 194 0 234 -14 q 125 41 154 13 q 78 111 95 69 q 62 212 62 154 q 139 379 62 325 q 373 438 217 434 l 487 443 l 487 519 q 484 583 487 554 q 472 633 481 612 q 446 665 464 654 q 401 677 429 677 "},"=":{"x_min":87,"x_max":690,"ha":777,"o":"m 690 409 l 690 313 l 87 313 l 87 409 l 690 409 m 690 679 l 690 582 l 87 582 l 87 679 l 690 679 "},"N":{"x_min":38.453125,"x_max":1070.859375,"ha":1095,"o":"m 813 0 l 271 765 l 271 164 q 277 116 271 134 q 292 89 283 99 q 315 76 302 80 q 342 73 328 73 l 401 73 l 401 0 l 38 0 l 38 73 l 96 73 q 124 76 111 73 q 147 89 137 80 q 162 116 157 99 q 168 164 168 134 l 168 833 q 162 878 168 861 q 146 903 156 895 q 123 915 136 912 q 96 918 111 918 l 38 918 l 38 992 l 347 992 l 837 298 l 837 833 q 831 878 837 861 q 816 903 826 895 q 793 915 806 912 q 766 918 780 918 l 708 918 l 708 992 l 1070 992 l 1070 918 l 1012 918 q 985 915 998 918 q 962 903 972 912 q 947 876 952 893 q 942 828 942 858 l 942 0 l 813 0 "},"ú":{"x_min":36.34375,"x_max":891.4375,"ha":926,"o":"m 614 0 l 584 97 l 577 97 q 532 39 556 61 q 479 6 507 17 q 421 -9 452 -5 q 358 -14 390 -14 q 191 53 249 -14 q 134 260 134 120 l 134 572 q 128 622 134 603 q 111 652 123 641 q 82 667 100 662 q 39 671 64 671 l 36 671 l 36 745 l 344 745 l 344 299 q 349 218 344 254 q 367 157 355 182 q 399 117 379 131 q 450 104 419 104 q 507 118 483 104 q 546 160 531 133 q 568 227 561 188 q 576 315 576 266 l 576 582 q 567 630 576 612 q 546 657 559 647 q 514 668 532 666 q 475 671 496 671 l 471 671 l 471 745 l 787 745 l 787 161 q 794 113 787 130 q 813 87 801 96 q 842 76 825 78 q 879 73 859 73 l 891 73 l 891 0 l 614 0 m 358 860 q 391 905 372 879 q 428 958 409 931 q 464 1013 447 986 q 491 1064 480 1040 l 710 1064 l 710 1049 q 667 1004 697 1031 q 600 946 637 976 q 524 889 563 917 q 452 842 484 860 l 358 842 l 358 860 "},"2":{"x_min":49,"x_max":713,"ha":777,"o":"m 678 775 q 670 712 678 742 q 647 649 663 681 q 603 580 630 616 q 536 500 576 544 q 442 403 496 456 q 319 284 389 350 l 180 152 l 504 152 q 577 177 546 152 q 619 248 607 202 l 630 291 l 713 291 l 705 0 l 49 0 l 49 143 l 254 352 q 360 471 319 418 q 425 572 401 524 q 458 667 449 620 q 468 768 468 715 q 439 884 468 847 q 359 921 410 921 q 260 860 289 921 q 232 681 232 799 q 159 688 192 681 q 103 712 127 696 q 67 754 80 728 q 54 818 54 780 q 73 890 54 856 q 131 949 93 923 q 226 990 169 975 q 359 1006 283 1006 q 497 990 437 1006 q 596 944 556 974 q 657 871 637 914 q 678 775 678 828 "},"ü":{"x_min":36.34375,"x_max":891.4375,"ha":926,"o":"m 614 0 l 584 97 l 577 97 q 532 39 556 61 q 479 6 507 17 q 421 -9 452 -5 q 358 -14 390 -14 q 191 53 249 -14 q 134 260 134 120 l 134 572 q 128 622 134 603 q 111 652 123 641 q 82 667 100 662 q 39 671 64 671 l 36 671 l 36 745 l 344 745 l 344 299 q 349 218 344 254 q 367 157 355 182 q 399 117 379 131 q 450 104 419 104 q 507 118 483 104 q 546 160 531 133 q 568 227 561 188 q 576 315 576 266 l 576 582 q 567 630 576 612 q 546 657 559 647 q 514 668 532 666 q 475 671 496 671 l 471 671 l 471 745 l 787 745 l 787 161 q 794 113 787 130 q 813 87 801 96 q 842 76 825 78 q 879 73 859 73 l 891 73 l 891 0 l 614 0 m 226 955 q 232 995 226 978 q 250 1022 239 1011 q 276 1036 261 1032 q 307 1041 291 1041 q 338 1036 324 1041 q 365 1022 353 1032 q 383 995 376 1011 q 391 955 391 978 q 383 915 391 931 q 365 888 376 898 q 338 873 353 878 q 307 869 324 869 q 276 873 291 869 q 250 888 261 878 q 232 915 239 898 q 226 955 226 931 m 511 955 q 517 995 511 978 q 536 1022 524 1011 q 562 1036 547 1032 q 594 1041 577 1041 q 624 1036 609 1041 q 650 1022 638 1032 q 668 995 661 1011 q 676 955 676 978 q 668 915 676 931 q 650 888 661 898 q 624 873 638 878 q 594 869 609 869 q 562 873 577 869 q 536 888 547 878 q 517 915 524 898 q 511 955 511 931 "},"¯":{"x_min":-7,"x_max":644,"ha":638,"o":"m 644 1055 l -7 1055 l -7 1137 l 644 1137 l 644 1055 "},"Z":{"x_min":58,"x_max":864,"ha":925,"o":"m 833 921 l 310 84 l 610 84 q 680 96 653 84 q 723 128 707 108 q 746 172 739 147 q 756 223 754 197 l 763 286 l 864 286 l 857 0 l 58 0 l 58 69 l 578 907 l 305 907 q 251 898 272 907 q 217 873 230 889 q 199 833 205 856 q 191 781 193 809 l 183 706 l 84 706 l 90 992 l 833 992 l 833 921 "},"u":{"x_min":36.34375,"x_max":891.4375,"ha":926,"o":"m 614 0 l 584 97 l 577 97 q 532 39 556 61 q 479 6 507 17 q 421 -9 452 -5 q 358 -14 390 -14 q 191 53 249 -14 q 134 260 134 120 l 134 572 q 128 622 134 603 q 111 652 123 641 q 82 667 100 662 q 39 671 64 671 l 36 671 l 36 745 l 344 745 l 344 299 q 349 218 344 254 q 367 157 355 182 q 399 117 379 131 q 450 104 419 104 q 507 118 483 104 q 546 160 531 133 q 568 227 561 188 q 576 315 576 266 l 576 582 q 567 630 576 612 q 546 657 559 647 q 514 668 532 666 q 475 671 496 671 l 471 671 l 471 745 l 787 745 l 787 161 q 794 113 787 130 q 813 87 801 96 q 842 76 825 78 q 879 73 859 73 l 891 73 l 891 0 l 614 0 "},"Ó":{"x_min":77,"x_max":1016,"ha":1093,"o":"m 1016 496 q 985 287 1016 382 q 894 126 954 193 q 747 22 834 59 q 547 -14 660 -14 q 340 22 428 -14 q 193 126 251 59 q 106 288 135 193 q 77 498 77 382 q 106 707 77 613 q 193 867 135 801 q 340 970 252 934 q 548 1007 429 1007 q 748 970 661 1007 q 894 867 835 934 q 985 706 954 800 q 1016 496 1016 612 m 310 496 q 323 319 310 397 q 364 187 336 241 q 437 104 392 133 q 547 76 482 76 q 657 104 612 76 q 729 187 702 133 q 770 319 757 241 q 782 496 782 397 q 770 674 782 596 q 729 806 757 752 q 657 888 702 860 q 548 916 612 916 q 438 888 483 916 q 364 806 392 860 q 323 674 336 752 q 310 496 310 596 m 452 1089 q 485 1134 466 1108 q 522 1187 503 1160 q 558 1242 541 1215 q 585 1293 574 1269 l 804 1293 l 804 1278 q 761 1233 791 1260 q 694 1175 731 1205 q 618 1118 657 1146 q 546 1071 578 1089 l 452 1071 l 452 1089 "},"k":{"x_min":23.703125,"x_max":884,"ha":884,"o":"m 884 0 l 864 0 q 736 3 788 0 q 647 18 685 6 q 583 55 610 31 q 529 123 556 80 l 405 318 l 349 276 l 349 164 q 359 116 349 134 q 384 89 369 99 q 416 76 398 80 q 448 73 434 73 l 465 73 l 465 0 l 23 0 l 23 73 l 39 73 q 72 76 55 73 q 104 89 90 80 q 129 116 119 99 q 139 164 139 134 l 139 897 q 129 941 139 924 q 104 967 119 958 q 72 979 89 976 q 39 981 54 981 l 23 981 l 23 1055 l 349 1055 l 349 519 q 348 475 349 500 q 346 428 347 451 q 343 375 344 402 l 518 571 q 548 612 541 597 q 555 637 555 627 q 536 665 555 655 q 483 675 518 675 l 483 745 l 833 745 l 833 675 q 739 646 785 675 q 637 557 692 618 l 550 457 l 734 181 q 808 100 771 126 q 879 73 846 73 l 884 73 l 884 0 "},"Ù":{"x_min":22.78125,"x_max":1015.21875,"ha":1038,"o":"m 1015 918 l 955 918 q 928 915 941 918 q 905 903 915 912 q 890 875 895 893 q 885 828 885 858 l 885 286 q 865 160 885 216 q 802 66 845 104 q 694 6 760 27 q 537 -14 628 -14 q 375 3 447 -14 q 254 58 304 20 q 179 156 205 96 q 153 302 153 216 l 153 833 q 147 878 153 861 q 131 903 141 894 q 109 915 121 912 q 82 918 96 918 l 22 918 l 22 992 l 501 992 l 501 918 l 443 918 q 416 915 429 918 q 393 903 403 912 q 378 875 383 893 q 372 828 372 858 l 372 291 q 387 193 372 233 q 428 129 401 153 q 494 94 456 105 q 579 84 531 84 q 662 96 625 84 q 726 133 699 108 q 766 197 752 158 q 780 288 780 235 l 780 833 q 775 878 780 861 q 759 903 769 894 q 737 915 750 912 q 710 918 724 918 l 651 918 l 651 992 l 1015 992 l 1015 918 m 551 1071 q 479 1118 519 1089 q 402 1175 439 1146 q 335 1233 365 1205 q 293 1278 305 1260 l 293 1293 l 510 1293 q 538 1242 521 1269 q 574 1187 555 1215 q 612 1134 592 1160 q 646 1089 631 1108 l 646 1071 l 551 1071 "},"€":{"x_min":37.0625,"x_max":753,"ha":777,"o":"m 500 -14 q 365 6 428 -14 q 252 72 302 27 q 167 190 202 118 q 119 368 133 263 l 37 368 l 37 454 l 111 454 l 111 496 l 111 539 l 37 539 l 37 626 l 117 626 q 163 806 130 734 q 247 922 197 878 q 359 984 296 966 q 490 1003 421 1003 q 600 990 552 1003 q 683 956 649 978 q 735 906 717 935 q 753 842 753 876 q 741 797 753 819 q 708 760 730 776 q 654 734 686 743 q 580 724 622 724 q 575 791 580 757 q 558 852 570 825 q 526 897 546 880 q 476 915 506 915 q 420 903 446 915 q 373 858 394 891 q 339 770 353 826 q 319 626 325 714 l 575 626 l 575 539 l 315 539 l 315 493 l 315 454 l 519 454 l 519 368 l 321 368 q 383 158 333 228 q 527 89 433 89 q 590 98 561 89 q 642 121 619 106 q 684 157 666 137 q 714 202 702 178 q 736 174 729 190 q 744 138 744 157 q 731 85 744 112 q 689 35 718 57 q 613 0 660 13 q 500 -14 567 -14 "},"¢":{"x_min":79,"x_max":720,"ha":777,"o":"m 387 115 q 260 143 317 119 q 163 212 203 166 q 101 327 123 257 q 79 496 79 397 q 102 672 79 600 q 166 791 125 745 q 263 860 207 837 q 387 889 320 883 l 387 991 l 473 991 l 473 889 q 579 873 532 885 q 656 841 625 860 q 704 797 688 821 q 720 744 720 772 q 712 700 720 722 q 684 663 704 679 q 629 636 664 646 q 540 626 595 626 q 537 683 540 655 q 526 734 534 711 q 505 774 518 757 q 473 798 492 790 l 473 218 q 539 227 508 218 q 595 251 570 237 q 640 286 621 266 q 672 330 660 306 q 698 302 690 319 q 707 266 707 285 q 693 217 707 242 q 650 170 679 192 q 577 134 621 149 q 473 115 533 119 l 473 0 l 387 0 l 387 115 m 291 498 q 314 325 291 391 q 387 234 336 259 l 387 796 q 346 764 364 785 q 316 707 329 743 q 297 620 304 671 q 291 498 291 568 "},"ß":{"x_min":8.109375,"x_max":925,"ha":981,"o":"m 139 758 q 166 905 139 845 q 243 1001 194 964 q 357 1054 291 1038 q 499 1070 423 1070 q 663 1044 596 1070 q 772 970 730 1019 q 834 849 815 921 q 854 682 853 776 l 776 682 q 713 678 742 682 q 661 663 683 674 q 626 634 639 652 q 613 588 613 616 q 622 546 613 564 q 649 511 630 527 q 696 479 667 495 q 768 444 726 463 q 841 398 811 423 q 890 343 871 372 q 916 283 908 314 q 925 219 925 252 q 906 116 925 160 q 852 43 887 72 q 767 0 817 14 q 651 -14 716 -14 q 532 -1 588 -14 q 430 36 475 11 l 430 205 l 505 205 q 521 152 509 177 q 551 108 533 127 q 593 78 569 89 q 645 67 617 67 q 719 91 692 67 q 747 161 747 116 q 740 206 747 185 q 718 246 734 227 q 675 283 702 265 q 606 320 648 301 q 522 371 556 344 q 468 430 488 399 q 440 495 448 461 q 432 565 432 529 q 448 648 432 614 q 495 707 465 683 q 566 743 525 730 q 657 758 608 755 q 645 866 656 822 q 615 939 635 911 q 567 979 596 966 q 503 992 539 992 q 439 980 468 992 q 390 944 410 968 q 359 883 370 920 q 348 796 348 846 l 348 0 l 8 0 l 8 73 l 67 73 q 95 76 82 73 q 118 89 108 80 q 133 116 128 99 q 139 164 139 134 l 139 648 l 27 648 l 27 745 l 139 745 l 139 758 "},"é":{"x_min":65,"x_max":735,"ha":793,"o":"m 412 671 q 319 614 354 671 q 282 445 285 556 l 522 445 q 516 540 522 497 q 497 611 510 582 q 463 656 483 640 q 412 671 442 671 m 425 -14 q 269 11 337 -14 q 156 86 202 37 q 88 206 111 135 q 65 367 65 277 q 88 539 65 465 q 155 662 111 613 q 263 737 199 712 q 409 762 327 762 q 545 740 485 762 q 648 677 606 719 q 712 572 690 635 q 735 427 735 510 l 735 356 l 279 356 q 294 236 281 286 q 331 153 307 186 q 388 105 354 120 q 465 89 421 89 q 531 98 501 89 q 587 121 562 106 q 630 157 612 137 q 661 202 649 178 q 699 134 699 182 q 682 77 699 104 q 632 30 666 51 q 547 -1 598 10 q 425 -14 496 -14 m 321 860 q 354 905 335 879 q 391 958 372 931 q 427 1013 410 986 q 454 1064 443 1040 l 673 1064 l 673 1049 q 630 1004 660 1031 q 563 946 600 976 q 487 889 526 917 q 415 842 447 860 l 321 842 l 321 860 "},"s":{"x_min":41.765625,"x_max":623,"ha":678,"o":"m 321 -14 q 192 -1 245 -14 q 105 32 139 10 q 57 83 72 53 q 41 148 41 113 q 54 202 41 182 q 88 234 68 223 q 130 250 108 246 q 171 253 153 253 q 182 175 171 210 q 212 117 193 141 q 259 80 232 93 q 321 67 287 67 q 383 74 357 67 q 425 95 409 82 q 450 126 442 108 q 458 162 458 143 q 450 203 458 185 q 422 237 441 221 q 369 268 402 253 q 287 300 336 283 q 188 342 231 320 q 116 392 145 364 q 71 457 86 421 q 56 540 56 493 q 77 637 56 596 q 138 706 98 678 q 232 747 177 733 q 354 761 287 761 q 466 749 420 761 q 541 720 512 738 q 584 678 570 702 q 597 632 597 655 q 565 560 597 585 q 456 536 532 536 q 425 644 456 605 q 334 682 394 682 q 291 676 311 682 q 255 660 270 671 q 230 633 239 649 q 221 596 221 617 q 229 556 221 573 q 259 522 238 538 q 317 490 281 506 q 411 454 354 473 q 496 417 457 437 q 563 369 535 396 q 607 308 591 342 q 623 230 623 274 q 602 127 623 172 q 544 50 582 81 q 449 2 505 19 q 321 -14 393 -14 "},"B":{"x_min":38.453125,"x_max":884,"ha":933,"o":"m 842 739 q 829 659 842 693 q 793 600 816 624 q 738 557 770 575 q 666 527 706 539 l 666 520 q 754 487 715 508 q 823 435 794 466 q 868 363 852 404 q 884 272 884 322 q 784 67 884 135 q 486 0 684 0 l 38 0 l 38 73 l 95 73 q 124 76 111 73 q 146 89 137 80 q 162 116 156 99 q 168 164 168 134 l 168 829 q 162 874 168 857 q 146 901 156 892 q 123 915 136 911 q 95 918 110 918 l 38 918 l 38 992 l 444 992 q 742 930 642 992 q 842 739 842 869 m 387 84 l 479 84 q 558 94 525 84 q 611 127 590 105 q 640 187 631 150 q 650 276 650 223 q 641 365 650 327 q 614 427 633 402 q 562 464 594 451 q 482 476 530 476 l 387 476 l 387 84 m 387 561 l 440 561 q 521 571 489 561 q 573 602 553 581 q 600 657 592 624 q 608 739 608 691 q 599 818 608 786 q 569 870 590 850 q 516 898 549 889 q 437 906 484 906 l 387 906 l 387 561 "},"?":{"x_min":52,"x_max":688,"ha":764,"o":"m 688 750 q 670 650 688 694 q 618 569 653 606 q 532 502 584 533 q 411 443 480 471 l 383 317 l 298 317 l 271 487 q 368 543 330 511 q 428 613 406 576 q 458 690 450 649 q 466 772 466 731 q 460 833 466 805 q 441 880 454 860 q 407 911 428 900 q 358 922 386 922 q 306 908 327 922 q 272 870 285 894 q 253 814 259 846 q 248 747 248 782 q 169 753 205 747 q 107 771 133 759 q 66 801 81 783 q 52 844 52 820 q 69 908 52 878 q 123 959 87 937 q 215 993 159 980 q 347 1006 271 1006 q 483 988 420 1006 q 591 938 545 971 q 662 858 636 905 q 688 750 688 810 m 226 99 q 234 152 226 131 q 258 187 243 174 q 295 205 274 200 q 340 211 316 211 q 383 205 363 211 q 420 187 404 200 q 444 152 435 174 q 454 99 454 131 q 444 47 454 68 q 420 13 435 26 q 383 -5 404 0 q 340 -11 363 -11 q 295 -5 316 -11 q 258 13 274 0 q 234 47 243 26 q 226 99 226 68 "},"H":{"x_min":38.453125,"x_max":1097.859375,"ha":1137,"o":"m 618 0 l 618 73 l 678 73 q 705 76 692 73 q 728 89 718 80 q 743 116 738 99 q 749 164 749 134 l 749 475 l 387 475 l 387 164 q 392 116 387 134 q 408 89 398 99 q 430 76 417 80 q 458 73 443 73 l 517 73 l 517 0 l 38 0 l 38 73 l 96 73 q 124 76 111 73 q 147 89 137 80 q 162 116 157 99 q 168 164 168 134 l 168 833 q 162 877 168 861 q 146 903 156 894 q 123 915 136 911 q 96 918 111 918 l 38 918 l 38 992 l 517 992 l 517 918 l 458 918 q 430 915 443 918 q 408 902 417 911 q 392 875 398 892 q 387 827 387 857 l 387 560 l 749 560 l 749 827 q 743 875 749 857 q 728 902 738 892 q 705 915 718 911 q 678 918 692 918 l 618 918 l 618 992 l 1097 992 l 1097 918 l 1039 918 q 1012 915 1025 918 q 989 902 999 911 q 974 875 979 892 q 969 827 969 857 l 969 156 q 974 112 969 129 q 990 87 980 96 q 1012 76 1000 79 q 1039 73 1025 73 l 1097 73 l 1097 0 l 618 0 "},"î":{"x_min":-20,"x_max":473,"ha":489,"o":"m 39 73 q 72 76 55 73 q 104 89 90 80 q 129 116 119 99 q 139 164 139 134 l 139 586 q 129 630 139 614 q 104 656 119 647 q 72 668 89 665 q 39 671 54 671 l 23 671 l 23 745 l 349 745 l 349 164 q 359 116 349 134 q 384 89 369 99 q 416 76 398 80 q 448 73 434 73 l 465 73 l 465 0 l 23 0 l 23 73 l 39 73 m -20 860 q 18 905 -3 879 q 62 958 40 931 q 103 1013 83 986 q 133 1064 122 1040 l 320 1064 q 350 1013 331 1040 q 391 958 369 986 q 435 905 413 931 q 473 860 456 879 l 473 842 l 377 842 q 343 869 363 853 q 302 901 323 884 q 261 935 281 918 q 226 966 241 952 q 190 935 210 952 q 149 901 170 918 q 109 869 129 884 q 76 842 90 853 l -20 842 l -20 860 "},"c":{"x_min":65,"x_max":681,"ha":732,"o":"m 409 -14 q 269 5 332 -14 q 160 70 206 25 q 90 189 115 116 q 65 369 65 262 q 91 557 65 481 q 163 677 117 632 q 271 742 208 723 q 405 762 333 762 q 524 750 472 762 q 610 719 575 739 q 663 673 645 700 q 681 616 681 646 q 673 572 681 593 q 645 534 665 551 q 590 508 625 518 q 501 498 555 498 q 496 566 501 534 q 482 623 492 599 q 454 662 472 648 q 410 677 437 677 q 356 662 380 677 q 314 612 332 648 q 288 518 297 577 q 279 370 279 459 q 317 159 279 229 q 444 89 356 89 q 511 98 480 89 q 569 121 543 106 q 614 157 594 137 q 645 202 633 178 q 670 174 662 192 q 679 138 679 157 q 663 85 679 112 q 614 35 647 57 q 531 0 581 13 q 409 -14 480 -14 "},"¶":{"x_min":56,"x_max":815.5625,"ha":871,"o":"m 583 969 l 466 969 l 466 -154 l 234 -154 l 234 -80 l 253 -80 q 297 -77 276 -80 q 333 -64 318 -74 q 357 -33 348 -53 q 367 18 367 -14 l 367 536 l 268 536 q 166 558 207 536 q 101 617 125 580 q 66 704 77 655 q 56 808 56 753 q 67 909 56 863 q 104 987 79 954 q 171 1037 130 1019 q 270 1055 211 1055 l 815 1055 l 815 981 l 797 981 q 753 978 774 981 q 717 964 732 974 q 692 934 701 953 q 684 881 684 914 l 684 18 q 692 -33 684 -14 q 717 -64 701 -53 q 753 -77 732 -74 q 797 -80 774 -80 l 815 -80 l 815 -154 l 583 -154 l 583 969 "},"¥":{"x_min":-4.265625,"x_max":749.859375,"ha":749,"o":"m 132 0 l 132 73 l 164 73 q 207 74 187 73 q 243 82 227 75 q 267 105 258 89 q 278 152 277 122 l 278 229 l 83 229 l 83 311 l 278 311 l 278 392 l 83 392 l 83 474 l 254 474 l 90 844 q 72 880 80 865 q 53 902 63 894 q 30 915 43 911 q 0 918 17 918 l -4 918 l -4 992 l 393 992 l 393 918 l 383 918 q 322 905 340 918 q 304 864 304 893 q 310 827 304 847 q 326 782 315 807 l 379 650 q 409 565 396 606 q 427 496 422 524 q 442 541 431 515 q 463 598 452 568 l 522 750 q 536 791 530 774 q 544 821 541 808 q 548 844 547 834 q 549 863 549 854 q 530 905 549 891 q 465 918 511 918 l 460 918 l 460 992 l 749 992 l 749 918 l 745 918 q 714 914 728 918 q 689 897 701 909 q 665 863 677 884 q 640 810 654 842 l 497 474 l 678 474 l 678 392 l 484 392 l 484 311 l 678 311 l 678 229 l 484 229 l 484 159 q 494 109 484 126 q 518 83 503 91 q 554 74 533 75 q 598 73 575 73 l 630 73 l 630 0 l 132 0 "},"Ὅ":{"x_min":-289.125,"x_max":1040,"ha":1117,"o":"m 1040 496 q 1009 287 1040 382 q 918 126 978 193 q 771 22 858 59 q 571 -14 684 -14 q 364 22 452 -14 q 217 126 275 59 q 130 288 159 193 q 101 498 101 382 q 130 707 101 613 q 217 867 159 801 q 364 970 276 934 q 572 1007 453 1007 q 772 970 685 1007 q 918 867 859 934 q 1009 706 978 800 q 1040 496 1040 612 m 334 496 q 347 319 334 397 q 388 187 360 241 q 461 104 416 133 q 571 76 506 76 q 681 104 636 76 q 753 187 726 133 q 794 319 781 241 q 806 496 806 397 q 794 674 806 596 q 753 806 781 752 q 681 888 726 860 q 572 916 636 916 q 462 888 507 916 q 388 806 416 860 q 347 674 360 752 q 334 496 334 596 m -289 858 q -278 904 -289 881 q -243 947 -267 927 q -182 980 -219 966 q -90 1003 -144 995 l -90 952 q -163 925 -139 937 q -186 893 -186 912 q -174 874 -186 880 q -146 862 -161 868 q -118 848 -131 857 q -106 820 -106 839 q -127 780 -106 795 q -193 765 -148 765 q -230 770 -213 765 q -261 787 -248 775 q -281 816 -274 798 q -289 858 -289 834 m -41 787 q -26 834 -34 808 q -11 887 -18 859 q 2 941 -3 914 q 13 991 9 968 l 174 991 l 174 977 q 149 928 165 955 q 116 874 134 901 q 78 819 98 846 q 42 770 59 792 l -41 770 l -41 787 "},"(":{"x_min":79,"x_max":511,"ha":555,"o":"m 302 441 q 310 279 302 358 q 342 128 319 199 q 405 -1 365 57 q 511 -104 446 -61 l 511 -193 q 312 -83 395 -146 q 179 58 230 -20 q 103 233 127 137 q 79 441 79 329 q 103 648 79 553 q 179 822 127 743 q 312 963 230 901 q 511 1072 395 1025 l 511 984 q 405 882 446 941 q 342 752 365 823 q 310 603 319 682 q 302 441 302 524 "},"U":{"x_min":22.78125,"x_max":1015.21875,"ha":1038,"o":"m 1015 918 l 955 918 q 928 915 941 918 q 905 903 915 912 q 890 875 895 893 q 885 828 885 858 l 885 286 q 865 160 885 216 q 802 66 845 104 q 694 6 760 27 q 537 -14 628 -14 q 375 3 447 -14 q 254 58 304 20 q 179 156 205 96 q 153 302 153 216 l 153 833 q 147 878 153 861 q 131 903 141 894 q 109 915 121 912 q 82 918 96 918 l 22 918 l 22 992 l 501 992 l 501 918 l 443 918 q 416 915 429 918 q 393 903 403 912 q 378 875 383 893 q 372 828 372 858 l 372 291 q 387 193 372 233 q 428 129 401 153 q 494 94 456 105 q 579 84 531 84 q 662 96 625 84 q 726 133 699 108 q 766 197 752 158 q 780 288 780 235 l 780 833 q 775 878 780 861 q 759 903 769 894 q 737 915 750 912 q 710 918 724 918 l 651 918 l 651 992 l 1015 992 l 1015 918 "},"◊":{"x_min":37,"x_max":724,"ha":761,"o":"m 412 0 l 348 0 l 37 494 l 348 992 l 412 992 l 724 496 l 412 0 m 381 864 l 155 496 l 381 122 l 606 496 l 381 864 "},"Ñ":{"x_min":38.453125,"x_max":1070.859375,"ha":1095,"o":"m 813 0 l 271 765 l 271 164 q 277 116 271 134 q 292 89 283 99 q 315 76 302 80 q 342 73 328 73 l 401 73 l 401 0 l 38 0 l 38 73 l 96 73 q 124 76 111 73 q 147 89 137 80 q 162 116 157 99 q 168 164 168 134 l 168 833 q 162 878 168 861 q 146 903 156 895 q 123 915 136 912 q 96 918 111 918 l 38 918 l 38 992 l 347 992 l 837 298 l 837 833 q 831 878 837 861 q 816 903 826 895 q 793 915 806 912 q 766 918 780 918 l 708 918 l 708 992 l 1070 992 l 1070 918 l 1012 918 q 985 915 998 918 q 962 903 972 912 q 947 876 952 893 q 942 828 942 858 l 942 0 l 813 0 m 676 1203 q 703 1209 691 1203 q 724 1225 715 1215 q 737 1249 732 1235 q 744 1276 742 1262 l 835 1276 q 819 1197 832 1234 q 783 1131 805 1159 q 729 1087 760 1103 q 661 1071 698 1071 q 593 1084 624 1071 q 537 1114 563 1098 q 488 1145 511 1131 q 443 1158 466 1158 q 416 1152 428 1158 q 395 1136 404 1146 q 382 1112 387 1126 q 375 1085 377 1099 l 285 1085 q 300 1164 287 1127 q 337 1230 314 1202 q 391 1274 360 1258 q 459 1291 422 1291 q 527 1277 497 1291 q 583 1247 557 1263 q 632 1216 609 1230 q 676 1203 655 1203 "},"F":{"x_min":38.453125,"x_max":815,"ha":863,"o":"m 718 736 l 711 803 q 677 882 704 858 q 608 907 650 907 l 387 907 l 387 528 l 716 528 l 716 445 l 387 445 l 387 164 q 392 116 387 134 q 408 89 398 99 q 431 76 417 80 q 459 73 444 73 l 545 73 l 545 0 l 38 0 l 38 73 l 96 73 q 124 76 111 73 q 147 87 137 79 q 162 112 157 96 q 168 156 168 129 l 168 833 q 162 878 168 861 q 147 903 157 895 q 124 915 137 912 q 96 918 111 918 l 38 918 l 38 992 l 808 992 l 815 736 l 718 736 "},"­":{"x_min":35,"x_max":396,"ha":431,"o":"m 35 306 l 35 452 l 396 452 l 396 306 l 35 306 "},":":{"x_min":97,"x_max":325,"ha":423,"o":"m 97 99 q 105 152 97 131 q 129 187 114 174 q 166 205 145 200 q 211 211 187 211 q 254 205 234 211 q 291 187 275 200 q 315 152 306 174 q 325 99 325 131 q 315 47 325 68 q 291 13 306 26 q 254 -5 275 0 q 211 -11 234 -11 q 166 -5 187 -11 q 129 13 145 0 q 105 47 114 26 q 97 99 97 68 m 97 646 q 105 699 97 677 q 129 733 114 720 q 166 751 145 746 q 211 757 187 757 q 254 751 234 757 q 291 733 275 746 q 315 699 306 720 q 325 646 325 677 q 315 593 325 614 q 291 559 306 572 q 254 540 275 546 q 211 535 234 535 q 166 540 187 535 q 129 559 145 546 q 105 593 114 572 q 97 646 97 614 "},"Û":{"x_min":22.78125,"x_max":1015.21875,"ha":1038,"o":"m 1015 918 l 955 918 q 928 915 941 918 q 905 903 915 912 q 890 875 895 893 q 885 828 885 858 l 885 286 q 865 160 885 216 q 802 66 845 104 q 694 6 760 27 q 537 -14 628 -14 q 375 3 447 -14 q 254 58 304 20 q 179 156 205 96 q 153 302 153 216 l 153 833 q 147 878 153 861 q 131 903 141 894 q 109 915 121 912 q 82 918 96 918 l 22 918 l 22 992 l 501 992 l 501 918 l 443 918 q 416 915 429 918 q 393 903 403 912 q 378 875 383 893 q 372 828 372 858 l 372 291 q 387 193 372 233 q 428 129 401 153 q 494 94 456 105 q 579 84 531 84 q 662 96 625 84 q 726 133 699 108 q 766 197 752 158 q 780 288 780 235 l 780 833 q 775 878 780 861 q 759 903 769 894 q 737 915 750 912 q 710 918 724 918 l 651 918 l 651 992 l 1015 992 l 1015 918 m 308 1089 q 346 1134 324 1108 q 390 1187 368 1160 q 431 1242 411 1215 q 461 1293 450 1269 l 648 1293 q 678 1242 659 1269 q 719 1187 697 1215 q 763 1134 741 1160 q 801 1089 784 1108 l 801 1071 l 705 1071 q 671 1098 691 1082 q 630 1130 651 1113 q 589 1164 609 1147 q 554 1195 569 1181 q 518 1164 538 1181 q 477 1130 498 1147 q 437 1098 457 1113 q 404 1071 418 1082 l 308 1071 l 308 1089 "},"*":{"x_min":48.859375,"x_max":648.40625,"ha":697,"o":"m 48 838 l 111 979 l 318 829 l 272 1055 l 427 1055 l 377 831 l 586 976 l 648 837 l 432 783 l 648 727 l 586 589 l 377 734 l 426 510 l 272 510 l 316 735 l 111 588 l 48 726 l 265 783 l 48 838 "},"°":{"x_min":66,"x_max":487,"ha":555,"o":"m 66 780 q 82 863 66 824 q 127 930 99 901 q 194 975 156 958 q 276 992 232 992 q 358 975 320 992 q 425 930 396 958 q 470 863 453 901 q 487 780 487 824 q 470 698 487 737 q 425 632 453 660 q 358 587 396 603 q 276 571 320 571 q 194 587 232 571 q 127 632 156 603 q 82 698 99 660 q 66 780 66 737 m 162 780 q 171 736 162 757 q 195 699 179 715 q 231 674 211 683 q 276 665 252 665 q 321 674 300 665 q 358 699 342 683 q 382 736 373 715 q 391 780 391 757 q 382 826 391 805 q 358 863 373 848 q 321 888 342 879 q 276 897 300 897 q 231 888 252 897 q 195 863 211 879 q 171 826 179 848 q 162 780 162 805 "},"V":{"x_min":-0.015625,"x_max":969.609375,"ha":970,"o":"m 969 918 l 902 918 q 885 914 892 918 q 870 899 878 910 q 854 868 863 888 q 836 816 846 848 l 552 0 l 413 0 l 118 851 q 100 884 111 871 q 78 905 90 897 q 54 915 66 912 q 31 918 42 918 l 0 918 l 0 992 l 458 992 l 458 918 l 394 918 q 375 916 384 918 q 357 908 365 914 q 345 894 349 903 q 340 872 340 885 q 344 841 340 859 q 352 812 348 824 l 494 384 q 505 348 499 369 q 516 303 511 326 q 526 258 522 280 q 532 216 530 235 q 540 247 534 227 q 551 291 545 267 q 565 338 558 314 q 579 380 572 361 l 722 803 q 727 820 724 810 q 733 838 730 829 q 737 857 735 848 q 739 871 739 865 q 723 906 739 894 q 683 918 708 918 l 610 918 l 610 992 l 969 992 l 969 918 "},"å":{"x_min":62,"x_max":786.859375,"ha":832,"o":"m 277 206 q 296 116 277 146 q 356 87 315 87 q 410 99 386 87 q 451 135 434 112 q 477 191 468 158 q 487 265 487 224 l 487 369 l 424 365 q 354 352 383 363 q 309 321 326 341 q 285 273 292 301 q 277 206 277 244 m 401 677 q 356 666 374 677 q 327 634 338 654 q 312 587 316 614 q 308 527 308 559 q 167 548 214 527 q 120 620 120 569 q 143 685 120 658 q 204 729 165 712 q 295 754 243 746 q 406 762 347 762 q 534 749 479 762 q 625 709 588 736 q 679 636 661 681 q 698 526 698 591 l 698 172 q 702 124 698 143 q 716 94 706 105 q 742 78 725 83 q 781 73 758 73 l 786 73 l 786 0 l 528 0 l 499 95 l 487 95 q 443 46 464 67 q 400 12 423 26 q 348 -7 377 -1 q 280 -14 319 -14 q 194 0 234 -14 q 125 41 154 13 q 78 111 95 69 q 62 212 62 154 q 139 379 62 325 q 373 438 217 434 l 487 443 l 487 519 q 484 583 487 554 q 472 633 481 612 q 446 665 464 654 q 401 677 429 677 m 587 979 q 574 913 587 941 q 538 866 561 885 q 485 837 515 847 q 420 828 454 828 q 354 837 385 828 q 301 866 324 847 q 265 913 278 885 q 253 979 253 941 q 265 1044 253 1015 q 301 1091 278 1072 q 354 1120 324 1110 q 420 1130 385 1130 q 485 1120 454 1130 q 538 1091 515 1110 q 574 1044 561 1072 q 587 979 587 1015 m 502 979 q 495 1013 502 999 q 478 1036 489 1027 q 451 1049 466 1045 q 420 1053 436 1053 q 388 1049 403 1053 q 361 1036 373 1045 q 344 1013 350 1027 q 337 979 337 999 q 344 944 337 958 q 361 921 350 930 q 388 908 373 912 q 420 903 403 903 q 451 908 436 903 q 478 921 466 912 q 495 944 489 930 q 502 979 502 958 "}," ":{"x_min":0,"x_max":0,"ha":361},"0":{"x_min":47,"x_max":730,"ha":777,"o":"m 730 497 q 710 288 730 382 q 650 126 691 193 q 544 22 609 59 q 388 -14 479 -14 q 228 22 293 -14 q 122 126 163 59 q 64 288 82 193 q 47 498 47 383 q 64 707 47 613 q 122 867 82 801 q 228 970 163 934 q 390 1006 294 1006 q 545 970 480 1006 q 650 867 609 934 q 710 707 691 801 q 730 497 730 613 m 262 497 q 267 319 262 397 q 286 187 272 241 q 325 104 300 133 q 388 76 349 76 q 452 104 427 76 q 490 187 476 133 q 509 319 504 241 q 515 497 515 397 q 509 674 515 596 q 491 805 504 752 q 452 887 477 859 q 390 915 428 915 q 326 887 351 915 q 287 805 301 859 q 267 674 272 752 q 262 497 262 596 "},"¾":{"x_min":54,"x_max":1139.84375,"ha":1167,"o":"m 324 854 q 309 920 324 897 q 259 943 295 943 q 223 933 237 943 q 200 906 208 923 q 187 868 191 890 q 184 822 184 846 q 134 824 156 822 q 96 834 111 827 q 71 852 80 840 q 63 881 63 863 q 76 930 63 907 q 114 969 89 953 q 176 996 139 986 q 262 1006 214 1006 q 348 996 310 1006 q 415 969 387 987 q 458 926 443 951 q 473 868 473 900 q 435 768 473 807 q 331 714 397 730 l 331 706 q 392 694 362 702 q 445 672 422 687 q 482 633 468 657 q 497 571 497 609 q 471 485 497 520 q 405 429 445 450 q 318 398 366 407 q 229 389 271 389 q 126 399 172 389 q 54 422 81 409 l 54 494 q 87 482 68 488 q 127 471 106 476 q 170 463 148 466 q 212 460 191 460 q 315 486 278 460 q 352 574 352 513 q 314 645 352 620 q 201 670 277 670 l 155 670 l 155 736 l 201 736 q 249 744 226 736 q 288 768 272 752 q 314 806 305 784 q 324 854 324 828 m 420 0 l 312 0 l 807 992 l 915 992 l 420 0 m 1032 163 l 1032 114 q 1036 86 1032 97 q 1049 70 1041 76 q 1068 63 1057 65 q 1090 62 1078 62 l 1118 62 l 1118 1 l 798 1 l 798 62 l 837 62 q 859 63 848 62 q 877 70 869 65 q 889 86 884 76 q 894 114 894 97 l 894 163 l 630 163 l 630 218 l 906 601 l 1032 601 l 1032 237 l 1139 237 l 1139 163 l 1032 163 m 894 403 q 896 446 894 425 q 901 493 897 468 q 889 471 895 482 q 880 454 883 459 l 721 237 l 894 237 l 894 403 "},"@":{"x_min":71,"x_max":1225,"ha":1279,"o":"m 1225 545 q 1199 360 1225 441 q 1134 222 1174 278 q 1042 137 1093 166 q 938 108 990 108 q 834 138 877 108 q 768 238 791 168 l 759 238 q 727 187 745 211 q 685 145 708 163 q 633 118 662 128 q 568 108 605 108 q 485 122 525 108 q 415 165 445 136 q 367 239 385 194 q 350 345 350 284 q 358 425 350 382 q 386 512 367 469 q 435 595 406 555 q 507 666 465 636 q 602 716 548 697 q 723 735 656 735 q 806 722 771 735 q 862 693 841 710 l 921 722 l 954 722 l 896 375 q 893 354 894 367 q 889 328 891 341 q 887 302 888 314 q 886 281 886 289 q 892 234 886 253 q 908 205 898 216 q 929 191 917 195 q 953 188 941 188 q 1008 211 980 188 q 1060 278 1037 234 q 1097 388 1083 322 q 1112 539 1112 454 q 1083 706 1112 634 q 1003 825 1054 777 q 881 897 952 873 q 726 921 810 921 q 596 903 660 921 q 474 849 532 884 q 368 763 416 814 q 283 646 319 711 q 227 501 247 580 q 207 330 207 422 q 243 121 207 207 q 343 -20 280 34 q 489 -100 405 -75 q 666 -125 573 -125 q 776 -115 723 -125 q 878 -89 830 -105 q 967 -51 926 -72 q 1041 -9 1009 -30 l 1075 -61 q 991 -114 1038 -89 q 890 -156 945 -138 q 775 -186 836 -175 q 647 -197 713 -197 q 494 -182 567 -197 q 357 -137 421 -167 q 240 -63 293 -108 q 149 40 187 -19 q 91 174 112 100 q 71 339 71 249 q 93 517 71 432 q 158 674 116 602 q 259 805 199 746 q 393 905 319 863 q 553 969 466 947 q 736 992 639 992 q 948 957 856 992 q 1101 862 1039 922 q 1193 721 1162 802 q 1225 545 1225 639 m 520 331 q 545 224 520 261 q 609 188 569 188 q 661 202 639 188 q 696 239 682 216 q 721 292 711 263 q 736 352 730 321 l 791 635 q 779 651 787 644 q 761 664 771 659 q 740 671 751 669 q 718 673 729 673 q 654 656 683 673 q 604 609 626 638 q 567 544 582 581 q 540 469 551 507 q 525 395 530 431 q 520 331 520 358 "},"ö":{"x_min":65,"x_max":786,"ha":851,"o":"m 786 374 q 694 82 786 178 q 423 -14 602 -14 q 273 10 340 -14 q 160 82 207 34 q 89 203 114 130 q 65 374 65 277 q 156 666 65 570 q 427 762 248 762 q 577 738 511 762 q 690 666 643 714 q 761 545 736 618 q 786 374 786 472 m 280 374 q 288 244 280 300 q 313 150 296 188 q 358 92 330 112 q 426 73 386 73 q 494 92 466 73 q 538 150 521 112 q 563 244 556 188 q 571 374 571 300 q 563 505 571 449 q 538 598 555 561 q 492 654 520 635 q 425 673 465 673 q 357 654 385 673 q 312 598 329 635 q 288 505 295 561 q 280 374 280 449 m 199 955 q 205 995 199 978 q 223 1022 212 1011 q 249 1036 234 1032 q 280 1041 264 1041 q 311 1036 297 1041 q 338 1022 326 1032 q 356 995 349 1011 q 364 955 364 978 q 356 915 364 931 q 338 888 349 898 q 311 873 326 878 q 280 869 297 869 q 249 873 264 869 q 223 888 234 878 q 205 915 212 898 q 199 955 199 931 m 484 955 q 490 995 484 978 q 509 1022 497 1011 q 535 1036 520 1032 q 567 1041 550 1041 q 597 1036 582 1041 q 623 1022 611 1032 q 641 995 634 1011 q 649 955 649 978 q 641 915 649 931 q 623 888 634 898 q 597 873 611 878 q 567 869 582 869 q 535 873 550 869 q 509 888 520 878 q 490 915 497 898 q 484 955 484 931 "},"i":{"x_min":23.703125,"x_max":465.234375,"ha":489,"o":"m 119 970 q 128 1015 119 996 q 153 1046 137 1034 q 190 1064 169 1058 q 237 1070 212 1070 q 282 1064 261 1070 q 320 1046 304 1058 q 346 1015 337 1034 q 356 970 356 996 q 346 925 356 944 q 320 894 337 906 q 282 876 304 882 q 237 870 261 870 q 190 876 212 870 q 153 894 169 882 q 128 925 137 906 q 119 970 119 944 m 39 73 q 72 76 55 73 q 104 89 90 80 q 129 116 119 99 q 139 164 139 134 l 139 586 q 129 630 139 614 q 104 656 119 647 q 72 668 89 665 q 39 671 54 671 l 23 671 l 23 745 l 349 745 l 349 164 q 359 116 349 134 q 384 89 369 99 q 416 76 398 80 q 448 73 434 73 l 465 73 l 465 0 l 23 0 l 23 73 l 39 73 "},"Õ":{"x_min":77,"x_max":1016,"ha":1093,"o":"m 1016 496 q 985 287 1016 382 q 894 126 954 193 q 747 22 834 59 q 547 -14 660 -14 q 340 22 428 -14 q 193 126 251 59 q 106 288 135 193 q 77 498 77 382 q 106 707 77 613 q 193 867 135 801 q 340 970 252 934 q 548 1007 429 1007 q 748 970 661 1007 q 894 867 835 934 q 985 706 954 800 q 1016 496 1016 612 m 310 496 q 323 319 310 397 q 364 187 336 241 q 437 104 392 133 q 547 76 482 76 q 657 104 612 76 q 729 187 702 133 q 770 319 757 241 q 782 496 782 397 q 770 674 782 596 q 729 806 757 752 q 657 888 702 860 q 548 916 612 916 q 438 888 483 916 q 364 806 392 860 q 323 674 336 752 q 310 496 310 596 m 661 1203 q 688 1209 676 1203 q 709 1225 700 1215 q 722 1249 717 1235 q 729 1276 727 1262 l 820 1276 q 804 1197 817 1234 q 768 1131 790 1159 q 714 1087 745 1103 q 646 1071 683 1071 q 578 1084 609 1071 q 522 1114 548 1098 q 473 1145 496 1131 q 428 1158 451 1158 q 401 1152 413 1158 q 380 1136 389 1146 q 367 1112 372 1126 q 360 1085 362 1099 l 270 1085 q 285 1164 272 1127 q 322 1230 299 1202 q 376 1274 345 1258 q 444 1291 407 1291 q 512 1277 482 1291 q 568 1247 542 1263 q 617 1216 594 1230 q 661 1203 640 1203 "},"þ":{"x_min":18.703125,"x_max":831,"ha":896,"o":"m 34 -260 q 67 -257 49 -260 q 99 -244 85 -253 q 124 -217 114 -234 q 134 -169 134 -199 l 134 884 q 126 935 134 916 q 107 964 119 954 q 77 978 94 974 q 40 981 60 981 l 30 981 l 30 1055 l 344 1055 l 344 800 q 342 752 344 780 q 336 698 339 724 q 327 635 332 667 l 334 635 q 368 685 348 663 q 415 724 388 707 q 473 749 441 740 q 546 758 506 758 q 668 735 615 758 q 757 664 721 712 q 812 543 793 616 q 831 369 831 470 q 812 196 831 269 q 758 75 794 123 q 671 5 723 28 q 551 -17 619 -17 q 422 13 472 -17 q 343 94 373 43 l 334 94 q 339 31 336 62 q 343 -23 341 5 q 344 -74 344 -52 l 344 -169 q 354 -217 344 -199 q 379 -244 364 -234 q 411 -257 393 -253 q 443 -260 428 -260 l 473 -260 l 473 -334 l 18 -334 l 18 -260 l 34 -260 m 486 86 q 586 156 556 86 q 616 368 616 226 q 586 580 616 506 q 487 654 556 654 q 418 635 445 654 q 374 580 391 616 q 351 491 358 544 q 344 369 344 437 q 351 244 344 297 q 374 155 358 191 q 418 103 391 120 q 486 86 445 86 "},"]":{"x_min":51.453125,"x_max":436,"ha":575,"o":"m 436 1055 l 436 -178 l 51 -178 l 51 -104 l 111 -104 q 155 -101 134 -104 q 191 -87 176 -97 q 215 -56 206 -76 q 225 -4 225 -36 l 225 881 q 215 934 225 914 q 191 964 206 953 q 155 978 176 974 q 111 981 134 981 l 51 981 l 51 1055 l 436 1055 "},"m":{"x_min":27.78125,"x_max":1332.984375,"ha":1369,"o":"m 582 0 l 582 456 q 576 536 582 501 q 557 595 570 571 q 522 631 544 618 q 470 643 501 643 q 413 626 436 643 q 376 579 389 608 q 356 510 362 549 q 349 429 349 471 l 349 164 q 357 117 349 134 q 377 89 364 99 q 408 76 389 80 q 450 73 427 73 l 454 73 l 454 0 l 27 0 l 27 73 l 30 73 q 73 76 54 73 q 108 90 93 80 q 130 119 122 100 q 139 169 139 138 l 139 584 q 131 631 139 614 q 111 659 124 649 q 80 672 98 669 q 38 675 61 675 l 34 675 l 34 745 l 326 745 l 344 645 l 351 645 q 395 707 372 684 q 445 743 419 730 q 501 758 472 755 q 563 762 531 762 q 694 734 640 762 q 773 645 748 707 l 786 645 q 831 707 807 684 q 884 743 856 730 q 943 758 912 755 q 1007 762 974 762 q 1103 746 1060 762 q 1175 698 1145 730 q 1220 615 1204 665 q 1236 494 1236 564 l 1236 172 q 1241 120 1236 139 q 1259 90 1247 101 q 1288 77 1270 80 q 1328 73 1305 73 l 1332 73 l 1332 0 l 1024 0 l 1024 456 q 999 595 1024 546 q 914 643 974 643 q 858 628 881 643 q 821 585 835 612 q 799 521 806 557 q 792 445 792 485 l 792 172 q 798 120 792 139 q 815 90 804 101 q 845 77 827 80 q 886 73 862 73 l 890 73 l 890 0 l 582 0 "},"8":{"x_min":41,"x_max":735,"ha":777,"o":"m 41 252 q 55 333 41 297 q 97 398 70 369 q 162 453 124 428 q 245 501 200 478 q 118 610 162 549 q 74 752 74 671 q 90 846 74 801 q 145 927 107 892 q 244 984 183 963 q 396 1006 306 1006 q 524 987 469 1006 q 617 936 580 969 q 673 859 654 904 q 692 762 692 815 q 678 689 692 720 q 641 631 665 657 q 582 582 616 604 q 504 537 547 560 q 610 476 566 507 q 682 411 654 445 q 722 341 709 378 q 735 262 735 304 q 710 145 735 196 q 640 58 686 93 q 529 4 595 23 q 379 -14 463 -14 q 228 7 292 -14 q 122 64 164 28 q 61 148 81 100 q 41 252 41 197 m 385 64 q 450 77 422 64 q 500 113 479 90 q 531 168 520 136 q 542 238 542 200 q 530 299 542 272 q 494 351 519 327 q 431 398 469 375 q 339 445 393 421 q 295 411 316 430 q 260 367 275 391 q 237 313 245 343 q 228 247 228 283 q 240 172 228 206 q 272 115 251 139 q 321 77 292 91 q 385 64 350 64 m 517 765 q 508 823 517 794 q 483 875 500 852 q 443 911 467 897 q 387 925 419 925 q 336 913 358 925 q 299 880 314 901 q 277 831 284 860 q 269 769 269 803 q 279 706 269 733 q 308 657 289 679 q 354 618 327 636 q 419 584 382 601 q 463 616 445 599 q 493 655 481 633 q 511 703 505 676 q 517 765 517 730 "},"R":{"x_min":38.453125,"x_max":987.734375,"ha":982,"o":"m 38 73 l 96 73 q 123 76 111 73 q 146 87 136 79 q 162 112 156 96 q 168 156 168 129 l 168 833 q 162 878 168 861 q 146 903 156 895 q 123 915 136 912 q 96 918 111 918 l 38 918 l 38 992 l 486 992 q 775 926 683 992 q 867 735 867 860 q 850 637 867 680 q 807 562 834 594 q 746 508 780 530 q 677 472 712 486 l 843 187 q 877 136 860 157 q 910 100 894 114 q 945 80 927 86 q 982 73 962 73 l 987 73 l 987 0 l 942 0 q 833 4 879 0 q 751 23 786 9 q 691 61 716 37 q 644 124 666 86 l 479 431 l 387 431 l 387 156 q 392 112 387 129 q 408 87 398 96 q 431 76 418 79 q 458 73 444 73 l 517 73 l 517 0 l 38 0 l 38 73 m 387 512 l 465 512 q 545 524 513 512 q 597 563 577 537 q 625 626 616 588 q 633 716 633 665 q 624 805 633 768 q 594 865 614 842 q 541 899 573 888 q 462 909 508 909 l 387 909 l 387 512 "},"á":{"x_min":62,"x_max":786.859375,"ha":832,"o":"m 277 206 q 296 116 277 146 q 356 87 315 87 q 410 99 386 87 q 451 135 434 112 q 477 191 468 158 q 487 265 487 224 l 487 369 l 424 365 q 354 352 383 363 q 309 321 326 341 q 285 273 292 301 q 277 206 277 244 m 401 677 q 356 666 374 677 q 327 634 338 654 q 312 587 316 614 q 308 527 308 559 q 167 548 214 527 q 120 620 120 569 q 143 685 120 658 q 204 729 165 712 q 295 754 243 746 q 406 762 347 762 q 534 749 479 762 q 625 709 588 736 q 679 636 661 681 q 698 526 698 591 l 698 172 q 702 124 698 143 q 716 94 706 105 q 742 78 725 83 q 781 73 758 73 l 786 73 l 786 0 l 528 0 l 499 95 l 487 95 q 443 46 464 67 q 400 12 423 26 q 348 -7 377 -1 q 280 -14 319 -14 q 194 0 234 -14 q 125 41 154 13 q 78 111 95 69 q 62 212 62 154 q 139 379 62 325 q 373 438 217 434 l 487 443 l 487 519 q 484 583 487 554 q 472 633 481 612 q 446 665 464 654 q 401 677 429 677 m 316 860 q 349 905 330 879 q 386 958 367 931 q 422 1013 405 986 q 449 1064 438 1040 l 668 1064 l 668 1049 q 625 1004 655 1031 q 558 946 595 976 q 482 889 521 917 q 410 842 442 860 l 316 842 l 316 860 "},"×":{"x_min":112.8125,"x_max":662.859375,"ha":777,"o":"m 387 427 l 183 222 l 112 293 l 316 498 l 112 702 l 183 772 l 387 568 l 591 773 l 662 702 l 457 497 l 662 291 l 593 222 l 387 427 "},"o":{"x_min":65,"x_max":786,"ha":851,"o":"m 786 374 q 694 82 786 178 q 423 -14 602 -14 q 273 10 340 -14 q 160 82 207 34 q 89 203 114 130 q 65 374 65 277 q 156 666 65 570 q 427 762 248 762 q 577 738 511 762 q 690 666 643 714 q 761 545 736 618 q 786 374 786 472 m 280 374 q 288 244 280 300 q 313 150 296 188 q 358 92 330 112 q 426 73 386 73 q 494 92 466 73 q 538 150 521 112 q 563 244 556 188 q 571 374 571 300 q 563 505 571 449 q 538 598 555 561 q 492 654 520 635 q 425 673 465 673 q 357 654 385 673 q 312 598 329 635 q 288 505 295 561 q 280 374 280 449 "},"5":{"x_min":56,"x_max":703,"ha":777,"o":"m 319 82 q 385 93 354 82 q 439 130 416 104 q 476 198 462 155 q 490 305 490 241 q 441 460 490 409 q 301 511 391 511 q 253 509 275 511 q 214 503 232 507 q 179 495 195 499 q 147 486 163 491 l 83 511 l 127 992 l 653 992 l 660 739 l 580 739 l 569 786 q 562 808 566 798 q 551 825 558 818 q 533 835 544 831 q 505 839 522 839 l 216 839 q 215 827 216 838 q 213 797 214 816 q 209 756 212 779 q 205 709 207 733 l 195 581 q 223 589 205 586 q 260 596 240 593 q 303 601 281 599 q 347 603 326 603 q 493 584 428 603 q 605 528 559 565 q 677 436 652 491 q 703 305 703 380 q 670 153 703 215 q 584 55 637 92 q 468 1 532 17 q 340 -14 403 -14 q 208 0 262 -14 q 120 37 154 13 q 71 90 86 60 q 56 153 56 120 q 86 226 56 202 q 167 249 116 249 q 175 190 167 219 q 200 136 182 160 q 247 97 218 112 q 319 82 277 82 "},"õ":{"x_min":65,"x_max":786,"ha":851,"o":"m 786 374 q 694 82 786 178 q 423 -14 602 -14 q 273 10 340 -14 q 160 82 207 34 q 89 203 114 130 q 65 374 65 277 q 156 666 65 570 q 427 762 248 762 q 577 738 511 762 q 690 666 643 714 q 761 545 736 618 q 786 374 786 472 m 280 374 q 288 244 280 300 q 313 150 296 188 q 358 92 330 112 q 426 73 386 73 q 494 92 466 73 q 538 150 521 112 q 563 244 556 188 q 571 374 571 300 q 563 505 571 449 q 538 598 555 561 q 492 654 520 635 q 425 673 465 673 q 357 654 385 673 q 312 598 329 635 q 288 505 295 561 q 280 374 280 449 m 538 974 q 565 980 553 974 q 586 996 577 986 q 599 1020 594 1006 q 606 1047 604 1033 l 697 1047 q 681 968 694 1005 q 645 902 667 930 q 591 858 622 874 q 523 842 560 842 q 455 855 486 842 q 399 885 425 869 q 350 916 373 902 q 305 929 328 929 q 278 923 290 929 q 257 907 266 917 q 244 883 249 897 q 237 856 239 870 l 147 856 q 162 935 149 898 q 199 1001 176 973 q 253 1045 222 1029 q 321 1062 284 1062 q 389 1048 359 1062 q 445 1018 419 1034 q 494 987 471 1001 q 538 974 517 974 "},"7":{"x_min":61,"x_max":731,"ha":777,"o":"m 228 0 l 599 840 l 233 840 q 176 822 195 840 q 152 770 156 804 l 144 700 l 61 700 l 67 992 l 731 992 l 731 924 l 346 0 l 228 0 "},"K":{"x_min":38.453125,"x_max":1019,"ha":1019,"o":"m 602 739 q 640 782 625 763 q 664 818 655 802 q 677 850 673 835 q 681 879 681 865 q 664 911 681 902 q 603 920 646 920 l 603 992 l 980 992 l 980 920 q 926 911 951 920 q 876 886 901 902 q 828 847 852 869 q 780 797 804 825 l 597 596 l 855 185 q 894 131 875 153 q 932 97 913 110 q 970 79 951 84 q 1013 73 990 73 l 1019 73 l 1019 0 l 944 0 q 851 3 891 0 q 781 13 811 6 q 729 30 751 20 q 691 55 707 41 q 661 87 675 69 q 635 127 648 105 l 448 447 l 387 398 l 387 164 q 392 116 387 134 q 408 89 398 99 q 431 76 417 80 q 459 73 444 73 l 517 73 l 517 0 l 38 0 l 38 73 l 96 73 q 124 76 111 73 q 147 87 137 79 q 162 112 157 96 q 168 156 168 129 l 168 833 q 162 878 168 861 q 147 903 157 895 q 124 915 137 912 q 96 918 111 918 l 38 918 l 38 992 l 517 992 l 517 918 l 459 918 q 431 915 444 918 q 408 903 417 912 q 392 876 398 893 q 387 828 387 858 l 387 504 l 602 739 "},",":{"x_min":61.96875,"x_max":311,"ha":408,"o":"m 311 58 q 297 -27 311 14 q 254 -104 283 -68 q 176 -167 224 -139 q 61 -214 129 -195 l 61 -142 q 115 -120 92 -131 q 153 -96 138 -109 q 176 -69 168 -84 q 184 -33 184 -53 q 176 -12 184 -20 q 158 3 169 -3 q 133 19 146 11 q 109 39 120 26 q 90 69 97 51 q 83 115 83 87 q 111 186 83 162 q 182 211 140 211 q 276 170 241 211 q 311 58 311 129 "},"d":{"x_min":64,"x_max":881.71875,"ha":901,"o":"m 761 170 q 770 120 761 139 q 795 90 779 101 q 832 77 811 80 q 876 73 853 73 l 881 73 l 881 0 l 612 0 l 573 108 l 560 108 q 525 57 545 79 q 479 18 505 34 q 420 -5 453 2 q 347 -14 388 -14 q 226 8 279 -14 q 137 78 173 31 q 82 198 101 125 q 64 370 64 271 q 82 544 64 471 q 137 666 101 618 q 225 737 173 714 q 344 761 277 761 q 415 752 383 761 q 472 729 447 744 q 517 694 497 714 q 551 649 537 674 l 560 649 q 555 722 558 688 q 553 751 554 736 q 551 779 552 766 q 550 802 550 792 q 550 819 550 813 l 550 895 q 540 941 550 924 q 516 967 531 958 q 480 979 501 976 q 437 981 460 981 l 426 981 l 426 1055 l 761 1055 l 761 170 m 407 89 q 475 107 448 89 q 519 159 503 124 q 543 248 536 194 q 550 373 550 301 q 543 495 550 442 q 519 584 536 548 q 475 639 503 621 q 407 658 448 658 q 347 639 372 658 q 307 584 323 621 q 285 494 292 547 q 278 372 278 441 q 307 160 278 230 q 407 89 337 89 "},"¨":{"x_min":175,"x_max":625,"ha":802,"o":"m 175 955 q 181 995 175 978 q 199 1022 188 1011 q 225 1036 210 1032 q 256 1041 240 1041 q 287 1036 273 1041 q 314 1022 302 1032 q 332 995 325 1011 q 340 955 340 978 q 332 915 340 931 q 314 888 325 898 q 287 873 302 878 q 256 869 273 869 q 225 873 240 869 q 199 888 210 878 q 181 915 188 898 q 175 955 175 931 m 460 955 q 466 995 460 978 q 485 1022 473 1011 q 511 1036 496 1032 q 543 1041 526 1041 q 573 1036 558 1041 q 599 1022 587 1032 q 617 995 610 1011 q 625 955 625 978 q 617 915 625 931 q 599 888 610 898 q 573 873 587 878 q 543 869 558 869 q 511 873 526 869 q 485 888 496 878 q 466 915 473 898 q 460 955 460 931 "},"Ô":{"x_min":77,"x_max":1016,"ha":1093,"o":"m 1016 496 q 985 287 1016 382 q 894 126 954 193 q 747 22 834 59 q 547 -14 660 -14 q 340 22 428 -14 q 193 126 251 59 q 106 288 135 193 q 77 498 77 382 q 106 707 77 613 q 193 867 135 801 q 340 970 252 934 q 548 1007 429 1007 q 748 970 661 1007 q 894 867 835 934 q 985 706 954 800 q 1016 496 1016 612 m 310 496 q 323 319 310 397 q 364 187 336 241 q 437 104 392 133 q 547 76 482 76 q 657 104 612 76 q 729 187 702 133 q 770 319 757 241 q 782 496 782 397 q 770 674 782 596 q 729 806 757 752 q 657 888 702 860 q 548 916 612 916 q 438 888 483 916 q 364 806 392 860 q 323 674 336 752 q 310 496 310 596 m 299 1089 q 337 1134 315 1108 q 381 1187 359 1160 q 422 1242 402 1215 q 452 1293 441 1269 l 639 1293 q 669 1242 650 1269 q 710 1187 688 1215 q 754 1134 732 1160 q 792 1089 775 1108 l 792 1071 l 696 1071 q 662 1098 682 1082 q 621 1130 642 1113 q 580 1164 600 1147 q 545 1195 560 1181 q 509 1164 529 1181 q 468 1130 489 1147 q 428 1098 448 1113 q 395 1071 409 1082 l 299 1071 l 299 1089 "},"E":{"x_min":38.453125,"x_max":863,"ha":907,"o":"m 388 84 l 666 84 q 702 92 687 84 q 728 114 717 100 q 745 148 739 128 q 755 190 752 167 l 766 256 l 863 256 l 852 0 l 38 0 l 38 73 l 96 73 q 124 76 111 73 q 147 87 137 79 q 162 112 157 96 q 168 156 168 129 l 168 828 q 162 876 168 858 q 147 903 157 893 q 125 915 138 912 q 96 918 112 918 l 38 918 l 38 992 l 809 992 l 815 736 l 718 736 l 711 801 q 685 880 705 852 q 622 907 665 907 l 388 907 l 388 560 l 718 560 l 718 476 l 388 476 l 388 84 "},"Y":{"x_min":0.34375,"x_max":962.5625,"ha":962,"o":"m 228 0 l 228 73 l 293 73 q 324 75 310 73 q 350 86 339 77 q 367 111 361 94 q 374 157 374 128 l 374 351 l 117 844 q 97 879 106 865 q 77 902 88 893 q 52 914 66 910 q 18 918 39 918 l 0 918 l 0 992 l 465 992 l 465 918 l 441 918 q 379 901 399 918 q 358 856 358 884 q 364 817 358 838 q 379 779 371 797 l 482 575 q 518 496 504 530 q 543 430 532 462 q 576 510 557 467 q 618 600 595 553 l 698 766 q 718 817 713 797 q 722 850 722 838 q 699 902 722 886 q 630 918 677 918 l 599 918 l 599 992 l 962 992 l 962 918 l 936 918 q 905 913 918 918 q 882 897 893 909 q 859 863 871 884 q 831 810 847 842 l 595 349 l 595 159 q 601 112 595 129 q 617 86 607 95 q 642 75 628 77 q 672 73 656 73 l 740 73 l 740 0 l 228 0 "},"\"":{"x_min":93,"x_max":612.359375,"ha":705,"o":"m 396 992 l 612 992 l 563 610 l 471 610 l 396 992 m 93 992 l 310 992 l 247 610 l 155 610 l 93 992 "},"ê":{"x_min":65,"x_max":735,"ha":793,"o":"m 412 671 q 319 614 354 671 q 282 445 285 556 l 522 445 q 516 540 522 497 q 497 611 510 582 q 463 656 483 640 q 412 671 442 671 m 425 -14 q 269 11 337 -14 q 156 86 202 37 q 88 206 111 135 q 65 367 65 277 q 88 539 65 465 q 155 662 111 613 q 263 737 199 712 q 409 762 327 762 q 545 740 485 762 q 648 677 606 719 q 712 572 690 635 q 735 427 735 510 l 735 356 l 279 356 q 294 236 281 286 q 331 153 307 186 q 388 105 354 120 q 465 89 421 89 q 531 98 501 89 q 587 121 562 106 q 630 157 612 137 q 661 202 649 178 q 699 134 699 182 q 682 77 699 104 q 632 30 666 51 q 547 -1 598 10 q 425 -14 496 -14 m 173 860 q 211 905 189 879 q 255 958 233 931 q 296 1013 276 986 q 326 1064 315 1040 l 513 1064 q 543 1013 524 1040 q 584 958 562 986 q 628 905 606 931 q 666 860 649 879 l 666 842 l 570 842 q 536 869 556 853 q 495 901 516 884 q 454 935 474 918 q 419 966 434 952 q 383 935 403 952 q 342 901 363 918 q 302 869 322 884 q 269 842 283 853 l 173 842 l 173 860 "},"Ï":{"x_min":38.453125,"x_max":517.953125,"ha":557,"o":"m 38 0 l 38 73 l 96 73 q 125 76 112 73 q 147 89 138 80 q 162 116 157 99 q 168 164 168 134 l 168 827 q 162 875 168 857 q 147 902 157 892 q 125 915 138 911 q 96 918 112 918 l 38 918 l 38 992 l 517 992 l 517 918 l 459 918 q 431 915 444 918 q 408 902 418 911 q 393 875 399 892 q 388 827 388 857 l 388 164 q 393 116 388 134 q 408 89 399 99 q 431 76 418 80 q 459 73 444 73 l 517 73 l 517 0 l 38 0 m 53 1184 q 59 1224 53 1207 q 77 1251 66 1240 q 103 1265 88 1261 q 134 1270 118 1270 q 165 1265 151 1270 q 192 1251 180 1261 q 210 1224 203 1240 q 218 1184 218 1207 q 210 1144 218 1160 q 192 1117 203 1127 q 165 1102 180 1107 q 134 1098 151 1098 q 103 1102 118 1098 q 77 1117 88 1107 q 59 1144 66 1127 q 53 1184 53 1160 m 338 1184 q 344 1224 338 1207 q 363 1251 351 1240 q 389 1265 374 1261 q 421 1270 404 1270 q 451 1265 436 1270 q 477 1251 465 1261 q 495 1224 488 1240 q 503 1184 503 1207 q 495 1144 503 1160 q 477 1117 488 1127 q 451 1102 465 1107 q 421 1098 436 1098 q 389 1102 404 1098 q 363 1117 374 1107 q 344 1144 351 1127 q 338 1184 338 1160 "},"Â":{"x_min":5.8125,"x_max":1046.21875,"ha":1046,"o":"m 303 326 l 262 206 q 251 167 257 189 q 245 127 245 144 q 251 103 245 113 q 265 87 256 93 q 285 77 274 80 q 308 73 296 73 l 367 73 l 367 0 l 5 0 l 5 73 l 22 73 q 56 77 41 73 q 84 93 71 82 q 109 124 98 104 q 134 175 121 143 l 435 992 l 625 992 l 916 173 q 937 125 926 144 q 961 94 948 105 q 989 78 975 83 q 1021 73 1004 73 l 1046 73 l 1046 0 l 587 0 l 587 73 l 642 73 q 663 76 652 73 q 682 86 673 80 q 696 103 690 92 q 701 127 701 113 q 697 160 701 144 q 689 187 693 175 l 640 326 l 303 326 m 539 639 q 524 689 532 662 q 508 742 516 715 q 493 796 500 769 q 481 847 486 823 q 467 801 475 826 q 449 749 458 776 q 431 696 440 723 q 414 645 422 670 l 332 411 l 612 411 l 539 639 m 282 1089 q 320 1134 298 1108 q 364 1187 342 1160 q 405 1242 385 1215 q 435 1293 424 1269 l 622 1293 q 652 1242 633 1269 q 693 1187 671 1215 q 737 1134 715 1160 q 775 1089 758 1108 l 775 1071 l 679 1071 q 645 1098 665 1082 q 604 1130 625 1113 q 563 1164 583 1147 q 528 1195 543 1181 q 492 1164 512 1181 q 451 1130 472 1147 q 411 1098 431 1113 q 378 1071 392 1082 l 282 1071 l 282 1089 "},"Í":{"x_min":38.453125,"x_max":524,"ha":557,"o":"m 38 0 l 38 73 l 96 73 q 125 76 112 73 q 147 89 138 80 q 162 116 157 99 q 168 164 168 134 l 168 827 q 162 875 168 857 q 147 902 157 892 q 125 915 138 911 q 96 918 112 918 l 38 918 l 38 992 l 517 992 l 517 918 l 459 918 q 431 915 444 918 q 408 902 418 911 q 393 875 399 892 q 388 827 388 857 l 388 164 q 393 116 388 134 q 408 89 399 99 q 431 76 418 80 q 459 73 444 73 l 517 73 l 517 0 l 38 0 m 172 1089 q 205 1134 186 1108 q 242 1187 223 1160 q 278 1242 261 1215 q 305 1293 294 1269 l 524 1293 l 524 1278 q 481 1233 511 1260 q 414 1175 451 1205 q 338 1118 377 1146 q 266 1071 298 1089 l 172 1071 l 172 1089 "},"´":{"x_min":224,"x_max":576,"ha":802,"o":"m 224 860 q 257 905 238 879 q 294 958 275 931 q 330 1013 313 986 q 357 1064 346 1040 l 576 1064 l 576 1049 q 533 1004 563 1031 q 466 946 503 976 q 390 889 429 917 q 318 842 350 860 l 224 842 l 224 860 "},"ì":{"x_min":-7,"x_max":465.234375,"ha":489,"o":"m 39 73 q 72 76 55 73 q 104 89 90 80 q 129 116 119 99 q 139 164 139 134 l 139 586 q 129 630 139 614 q 104 656 119 647 q 72 668 89 665 q 39 671 54 671 l 23 671 l 23 745 l 349 745 l 349 164 q 359 116 349 134 q 384 89 369 99 q 416 76 398 80 q 448 73 434 73 l 465 73 l 465 0 l 23 0 l 23 73 l 39 73 m 251 842 q 179 889 219 860 q 102 946 139 917 q 35 1004 65 976 q -7 1049 5 1031 l -7 1064 l 210 1064 q 238 1013 221 1040 q 274 958 255 986 q 312 905 292 931 q 346 860 331 879 l 346 842 l 251 842 "},"±":{"x_min":90.453125,"x_max":686.609375,"ha":777,"o":"m 686 0 l 90 0 l 90 98 l 686 98 l 686 0 m 437 446 l 437 198 l 338 198 l 338 446 l 90 446 l 90 546 l 338 546 l 338 794 l 437 794 l 437 546 l 686 546 l 686 446 l 437 446 "},"Ú":{"x_min":22.78125,"x_max":1015.21875,"ha":1038,"o":"m 1015 918 l 955 918 q 928 915 941 918 q 905 903 915 912 q 890 875 895 893 q 885 828 885 858 l 885 286 q 865 160 885 216 q 802 66 845 104 q 694 6 760 27 q 537 -14 628 -14 q 375 3 447 -14 q 254 58 304 20 q 179 156 205 96 q 153 302 153 216 l 153 833 q 147 878 153 861 q 131 903 141 894 q 109 915 121 912 q 82 918 96 918 l 22 918 l 22 992 l 501 992 l 501 918 l 443 918 q 416 915 429 918 q 393 903 403 912 q 378 875 383 893 q 372 828 372 858 l 372 291 q 387 193 372 233 q 428 129 401 153 q 494 94 456 105 q 579 84 531 84 q 662 96 625 84 q 726 133 699 108 q 766 197 752 158 q 780 288 780 235 l 780 833 q 775 878 780 861 q 759 903 769 894 q 737 915 750 912 q 710 918 724 918 l 651 918 l 651 992 l 1015 992 l 1015 918 m 437 1089 q 470 1134 451 1108 q 507 1187 488 1160 q 543 1242 526 1215 q 570 1293 559 1269 l 789 1293 l 789 1278 q 746 1233 776 1260 q 679 1175 716 1205 q 603 1118 642 1146 q 531 1071 563 1089 l 437 1071 l 437 1089 "},"|":{"x_min":338,"x_max":437.703125,"ha":777,"o":"m 437 -334 l 338 -334 l 338 1055 l 437 1055 l 437 -334 "},"§":{"x_min":90,"x_max":703,"ha":756,"o":"m 383 -157 q 253 -141 305 -157 q 170 -99 201 -125 q 126 -42 139 -74 q 114 20 114 -11 q 123 68 114 47 q 148 102 132 88 q 187 123 164 116 q 237 130 210 130 q 247 45 237 84 q 278 -22 258 6 q 330 -66 299 -50 q 401 -82 361 -82 q 506 -45 468 -82 q 543 52 543 -9 q 535 103 543 81 q 501 147 526 125 q 428 197 475 170 q 304 262 382 224 q 205 319 246 290 q 139 380 164 348 q 101 446 113 412 q 90 523 90 481 q 115 607 90 570 q 180 666 140 645 q 138 733 156 691 q 121 831 121 774 q 141 926 121 884 q 198 996 161 968 q 285 1040 234 1025 q 394 1055 335 1055 q 502 1043 455 1055 q 579 1010 548 1031 q 627 960 611 989 q 643 896 643 931 q 609 825 643 854 q 511 797 575 797 q 506 860 511 827 q 486 918 500 892 q 449 962 472 945 q 388 979 425 979 q 295 945 330 979 q 260 848 260 911 q 271 792 260 814 q 303 751 282 769 q 355 718 325 734 q 425 684 386 703 q 551 618 498 649 q 637 554 603 587 q 687 485 671 521 q 703 405 703 450 q 695 355 703 380 q 676 309 688 331 q 648 270 665 287 q 614 241 632 252 q 650 172 637 211 q 663 92 663 133 q 645 -8 663 37 q 592 -87 627 -54 q 505 -138 557 -120 q 383 -157 452 -157 m 567 356 q 559 401 567 380 q 533 443 552 422 q 481 486 514 464 q 397 534 448 509 q 310 576 351 555 q 236 620 270 597 q 219 592 225 608 q 213 559 213 576 q 223 508 213 530 q 255 465 233 485 q 316 423 278 444 q 409 374 354 401 q 488 333 454 351 q 548 296 521 315 q 561 322 556 307 q 567 356 567 337 "},"Ý":{"x_min":0.34375,"x_max":962.5625,"ha":962,"o":"m 228 0 l 228 73 l 293 73 q 324 75 310 73 q 350 86 339 77 q 367 111 361 94 q 374 157 374 128 l 374 351 l 117 844 q 97 879 106 865 q 77 902 88 893 q 52 914 66 910 q 18 918 39 918 l 0 918 l 0 992 l 465 992 l 465 918 l 441 918 q 379 901 399 918 q 358 856 358 884 q 364 817 358 838 q 379 779 371 797 l 482 575 q 518 496 504 530 q 543 430 532 462 q 576 510 557 467 q 618 600 595 553 l 698 766 q 718 817 713 797 q 722 850 722 838 q 699 902 722 886 q 630 918 677 918 l 599 918 l 599 992 l 962 992 l 962 918 l 936 918 q 905 913 918 918 q 882 897 893 909 q 859 863 871 884 q 831 810 847 842 l 595 349 l 595 159 q 601 112 595 129 q 617 86 607 95 q 642 75 628 77 q 672 73 656 73 l 740 73 l 740 0 l 228 0 m 409 1089 q 442 1134 423 1108 q 479 1187 460 1160 q 515 1242 498 1215 q 542 1293 531 1269 l 761 1293 l 761 1278 q 718 1233 748 1260 q 651 1175 688 1205 q 575 1118 614 1146 q 503 1071 535 1089 l 409 1071 l 409 1089 "},"b":{"x_min":23.703125,"x_max":836,"ha":901,"o":"m 836 374 q 817 200 836 273 q 762 79 798 127 q 673 8 726 31 q 551 -14 620 -14 q 478 -5 511 -14 q 420 19 446 3 q 373 58 393 36 q 339 108 353 80 l 326 108 l 287 0 l 23 0 l 23 73 l 33 73 q 71 77 52 73 q 105 90 90 80 q 129 120 120 101 q 139 170 139 139 l 139 888 q 130 936 139 918 q 106 964 121 954 q 71 978 91 974 q 29 981 51 981 l 23 981 l 23 1055 l 349 1055 l 349 817 q 348 767 349 796 q 344 712 346 737 q 339 649 341 681 l 348 649 q 428 731 378 701 q 556 761 478 761 q 676 738 624 761 q 763 668 728 715 q 817 548 799 621 q 836 374 836 475 m 491 658 q 423 641 450 658 q 379 588 396 623 q 356 500 363 553 q 349 374 349 446 q 356 253 349 306 q 379 163 363 199 q 423 108 396 127 q 492 89 451 89 q 591 163 561 89 q 622 376 622 237 q 591 588 622 518 q 491 658 561 658 "},"q":{"x_min":64,"x_max":898.671875,"ha":900,"o":"m 412 -334 l 412 -260 l 437 -260 q 480 -257 460 -260 q 516 -245 501 -254 q 540 -219 531 -237 q 550 -173 550 -202 l 550 -72 q 550 -56 550 -66 q 551 -32 550 -45 q 553 -4 552 -19 q 555 24 554 9 q 560 96 558 57 l 551 96 q 517 52 537 72 q 472 17 497 32 q 415 -5 447 2 q 344 -14 383 -14 q 225 8 277 -14 q 137 78 173 31 q 82 199 101 126 q 64 373 64 272 q 82 545 64 473 q 137 665 101 618 q 226 735 173 712 q 347 758 279 758 q 420 749 388 758 q 479 725 453 741 q 525 686 505 709 q 560 635 545 664 l 573 635 l 601 745 l 881 745 l 881 671 l 876 671 q 832 667 853 671 q 795 654 811 664 q 770 624 779 643 q 761 574 761 605 l 761 -173 q 770 -219 761 -202 q 794 -245 779 -237 q 830 -257 809 -254 q 873 -260 850 -260 l 898 -260 l 898 -334 l 412 -334 m 407 654 q 307 584 337 654 q 278 372 278 513 q 307 160 278 232 q 407 88 337 88 q 475 106 448 88 q 519 160 503 125 q 543 248 536 196 q 550 370 550 301 q 543 495 550 442 q 519 584 536 549 q 475 636 503 619 q 407 654 448 654 "},"Ö":{"x_min":77,"x_max":1016,"ha":1093,"o":"m 1016 496 q 985 287 1016 382 q 894 126 954 193 q 747 22 834 59 q 547 -14 660 -14 q 340 22 428 -14 q 193 126 251 59 q 106 288 135 193 q 77 498 77 382 q 106 707 77 613 q 193 867 135 801 q 340 970 252 934 q 548 1007 429 1007 q 748 970 661 1007 q 894 867 835 934 q 985 706 954 800 q 1016 496 1016 612 m 310 496 q 323 319 310 397 q 364 187 336 241 q 437 104 392 133 q 547 76 482 76 q 657 104 612 76 q 729 187 702 133 q 770 319 757 241 q 782 496 782 397 q 770 674 782 596 q 729 806 757 752 q 657 888 702 860 q 548 916 612 916 q 438 888 483 916 q 364 806 392 860 q 323 674 336 752 q 310 496 310 596 m 314 1184 q 320 1224 314 1207 q 338 1251 327 1240 q 364 1265 349 1261 q 395 1270 379 1270 q 426 1265 412 1270 q 453 1251 441 1261 q 471 1224 464 1240 q 479 1184 479 1207 q 471 1144 479 1160 q 453 1117 464 1127 q 426 1102 441 1107 q 395 1098 412 1098 q 364 1102 379 1098 q 338 1117 349 1107 q 320 1144 327 1127 q 314 1184 314 1160 m 599 1184 q 605 1224 599 1207 q 624 1251 612 1240 q 650 1265 635 1261 q 682 1270 665 1270 q 712 1265 697 1270 q 738 1251 726 1261 q 756 1224 749 1240 q 764 1184 764 1207 q 756 1144 764 1160 q 738 1117 749 1127 q 712 1102 726 1107 q 682 1098 697 1098 q 650 1102 665 1098 q 624 1117 635 1107 q 605 1144 612 1127 q 599 1184 599 1160 "},"z":{"x_min":25,"x_max":694,"ha":735,"o":"m 511 94 q 547 100 532 94 q 572 120 562 106 q 590 155 583 133 q 603 207 597 176 l 611 252 l 694 252 l 687 0 l 25 0 l 25 56 l 435 650 l 232 650 q 204 645 216 650 q 184 630 193 641 q 167 600 175 618 q 152 553 160 581 l 144 520 l 61 520 l 77 745 l 678 745 l 678 685 l 266 94 l 511 94 "},"ã":{"x_min":62,"x_max":786.859375,"ha":832,"o":"m 277 206 q 296 116 277 146 q 356 87 315 87 q 410 99 386 87 q 451 135 434 112 q 477 191 468 158 q 487 265 487 224 l 487 369 l 424 365 q 354 352 383 363 q 309 321 326 341 q 285 273 292 301 q 277 206 277 244 m 401 677 q 356 666 374 677 q 327 634 338 654 q 312 587 316 614 q 308 527 308 559 q 167 548 214 527 q 120 620 120 569 q 143 685 120 658 q 204 729 165 712 q 295 754 243 746 q 406 762 347 762 q 534 749 479 762 q 625 709 588 736 q 679 636 661 681 q 698 526 698 591 l 698 172 q 702 124 698 143 q 716 94 706 105 q 742 78 725 83 q 781 73 758 73 l 786 73 l 786 0 l 528 0 l 499 95 l 487 95 q 443 46 464 67 q 400 12 423 26 q 348 -7 377 -1 q 280 -14 319 -14 q 194 0 234 -14 q 125 41 154 13 q 78 111 95 69 q 62 212 62 154 q 139 379 62 325 q 373 438 217 434 l 487 443 l 487 519 q 484 583 487 554 q 472 633 481 612 q 446 665 464 654 q 401 677 429 677 m 534 974 q 561 980 549 974 q 582 996 573 986 q 595 1020 590 1006 q 602 1047 600 1033 l 693 1047 q 677 968 690 1005 q 641 902 663 930 q 587 858 618 874 q 519 842 556 842 q 451 855 482 842 q 395 885 421 869 q 346 916 369 902 q 301 929 324 929 q 274 923 286 929 q 253 907 262 917 q 240 883 245 897 q 233 856 235 870 l 143 856 q 158 935 145 898 q 195 1001 172 973 q 249 1045 218 1029 q 317 1062 280 1062 q 385 1048 355 1062 q 441 1018 415 1034 q 490 987 467 1001 q 534 974 513 974 "},"æ":{"x_min":62,"x_max":1157,"ha":1215,"o":"m 277 206 q 296 116 277 146 q 356 87 315 87 q 410 99 386 87 q 451 135 434 112 q 477 191 468 158 q 487 264 487 223 l 487 369 l 424 364 q 354 351 383 362 q 309 320 326 340 q 285 272 292 301 q 277 206 277 244 m 834 671 q 741 614 776 671 q 703 445 706 556 l 944 445 q 918 612 944 553 q 834 671 891 671 m 849 -14 q 672 19 746 -14 q 553 118 598 53 q 437 17 506 49 q 280 -14 368 -14 q 194 0 234 -14 q 125 41 154 13 q 78 111 95 69 q 62 211 62 154 q 139 379 62 324 q 373 438 217 433 l 487 442 l 487 519 q 484 582 487 553 q 472 633 481 612 q 446 665 463 654 q 400 677 429 677 q 356 666 374 677 q 327 634 338 654 q 312 587 316 614 q 308 527 308 559 q 167 548 214 527 q 120 620 120 569 q 143 685 120 658 q 204 729 165 712 q 295 754 243 746 q 406 762 347 762 q 535 743 480 762 q 627 683 590 725 q 719 741 668 721 q 831 762 769 762 q 967 740 907 762 q 1070 677 1028 719 q 1134 572 1112 635 q 1157 427 1157 510 l 1157 356 l 700 356 q 715 236 702 286 q 752 153 729 186 q 810 105 776 120 q 887 89 843 89 q 953 98 923 89 q 1009 121 984 106 q 1052 157 1034 137 q 1083 202 1070 178 q 1121 134 1121 182 q 1105 77 1121 104 q 1055 30 1089 51 q 971 -1 1022 10 q 849 -14 920 -14 "},"®":{"x_min":77,"x_max":1097,"ha":1174,"o":"m 323 242 l 342 242 q 367 244 355 242 q 389 251 380 246 q 404 265 399 256 q 410 291 410 275 l 410 698 q 404 724 410 714 q 389 739 399 734 q 367 745 380 744 q 342 747 355 747 l 323 747 l 323 796 l 573 796 q 812 630 812 796 q 801 572 812 597 q 772 528 790 547 q 732 497 755 510 q 686 477 709 485 l 809 279 q 822 260 816 267 q 837 249 828 253 q 858 244 846 245 q 887 242 870 242 l 887 196 l 740 196 l 587 454 l 514 454 l 514 291 q 521 265 515 275 q 535 251 526 256 q 556 244 544 246 q 582 242 568 242 l 601 242 l 601 196 l 323 196 l 323 242 m 514 507 l 572 507 q 634 514 609 507 q 674 536 659 521 q 695 574 689 551 q 702 629 702 597 q 694 681 702 659 q 671 716 687 703 q 630 735 655 729 q 568 741 604 741 l 514 741 l 514 507 m 77 495 q 95 631 77 566 q 146 753 113 696 q 225 857 179 810 q 328 937 272 903 q 450 988 385 970 q 585 1007 515 1007 q 721 988 656 1007 q 843 937 787 970 q 947 857 900 903 q 1027 753 993 810 q 1078 631 1060 696 q 1097 495 1097 566 q 1078 359 1097 424 q 1027 238 1060 294 q 947 134 993 181 q 843 55 900 88 q 721 3 787 21 q 585 -14 656 -14 q 450 3 515 -14 q 328 55 385 21 q 225 134 272 88 q 146 238 179 181 q 95 359 113 294 q 77 495 77 424 m 152 495 q 168 380 152 435 q 212 277 184 325 q 280 189 240 228 q 367 121 319 149 q 471 77 415 93 q 585 61 526 61 q 701 77 646 61 q 805 121 757 93 q 893 189 853 149 q 961 277 932 228 q 1004 380 989 325 q 1020 495 1020 435 q 1004 610 1020 555 q 961 714 989 666 q 893 803 932 763 q 805 871 853 842 q 701 914 757 899 q 585 930 646 930 q 471 914 526 930 q 367 871 415 899 q 280 803 319 842 q 212 714 240 763 q 168 611 184 666 q 152 495 152 555 "},"É":{"x_min":38.453125,"x_max":863,"ha":907,"o":"m 388 84 l 666 84 q 702 92 687 84 q 728 114 717 100 q 745 148 739 128 q 755 190 752 167 l 766 256 l 863 256 l 852 0 l 38 0 l 38 73 l 96 73 q 124 76 111 73 q 147 87 137 79 q 162 112 157 96 q 168 156 168 129 l 168 828 q 162 876 168 858 q 147 903 157 893 q 125 915 138 912 q 96 918 112 918 l 38 918 l 38 992 l 809 992 l 815 736 l 718 736 l 711 801 q 685 880 705 852 q 622 907 665 907 l 388 907 l 388 560 l 718 560 l 718 476 l 388 476 l 388 84 m 355 1089 q 388 1134 369 1108 q 425 1187 406 1160 q 461 1242 444 1215 q 488 1293 477 1269 l 707 1293 l 707 1278 q 664 1233 694 1260 q 597 1175 634 1205 q 521 1118 560 1146 q 449 1071 481 1089 l 355 1071 l 355 1089 "},"~":{"x_min":77,"x_max":702,"ha":779,"o":"m 366 450 q 322 468 341 461 q 288 479 303 475 q 259 485 273 484 q 230 487 245 487 q 191 481 211 487 q 151 463 171 474 q 112 438 131 453 q 77 405 93 423 l 77 512 q 244 586 144 586 q 280 584 263 586 q 316 578 297 582 q 357 565 334 573 q 412 543 380 556 q 456 525 437 532 q 490 513 475 517 q 520 507 506 508 q 548 505 534 505 q 587 511 567 505 q 627 529 607 518 q 666 555 647 540 q 702 587 685 570 l 702 480 q 534 407 635 407 q 497 408 514 407 q 462 415 481 410 q 421 428 444 419 q 366 450 398 436 "},"³":{"x_min":54,"x_max":497,"ha":555,"o":"m 324 854 q 309 920 324 897 q 259 943 295 943 q 223 933 237 943 q 200 906 208 923 q 187 868 191 890 q 184 822 184 846 q 134 824 156 822 q 96 834 111 827 q 71 852 80 840 q 63 881 63 863 q 76 930 63 907 q 114 969 89 953 q 176 996 139 986 q 262 1006 214 1006 q 348 996 310 1006 q 415 969 387 987 q 458 926 443 951 q 473 868 473 900 q 435 768 473 807 q 331 714 397 730 l 331 706 q 392 694 362 702 q 445 672 422 687 q 482 633 468 657 q 497 571 497 609 q 471 485 497 520 q 405 429 445 450 q 318 398 366 407 q 229 389 271 389 q 126 399 172 389 q 54 422 81 409 l 54 494 q 87 482 68 488 q 127 471 106 476 q 170 463 148 466 q 212 460 191 460 q 315 486 278 460 q 352 574 352 513 q 314 645 352 620 q 201 670 277 670 l 155 670 l 155 736 l 201 736 q 249 744 226 736 q 288 768 272 752 q 314 806 305 784 q 324 854 324 828 "},"₧":{"x_min":37.734375,"x_max":1195,"ha":1249,"o":"m 37 0 l 37 73 l 56 73 q 100 77 79 73 q 136 91 121 80 q 160 121 151 101 q 170 173 170 141 l 170 823 q 160 872 170 854 q 136 901 151 891 q 99 915 120 911 q 56 918 79 918 l 37 918 l 37 992 l 455 992 q 613 971 545 992 q 724 914 680 951 q 790 823 768 876 q 812 701 812 769 q 790 581 812 639 q 723 478 769 523 q 600 406 676 433 q 414 379 524 379 l 366 379 l 366 166 q 375 117 366 136 q 399 89 384 99 q 436 76 415 80 q 479 73 456 73 l 525 73 l 525 0 l 37 0 m 366 460 l 395 460 q 491 472 451 460 q 557 511 531 484 q 594 584 582 539 q 606 696 606 630 q 595 795 606 754 q 562 861 585 835 q 502 898 539 886 q 412 909 465 909 l 366 909 l 366 460 m 1120 74 q 1162 77 1145 74 q 1195 84 1178 80 l 1195 7 q 1141 -7 1173 -1 q 1060 -14 1109 -14 q 966 -2 1005 -14 q 903 33 927 8 q 867 100 879 58 q 856 201 856 141 l 856 425 l 770 425 l 770 489 q 829 506 800 489 q 882 551 858 523 q 924 613 906 578 q 951 684 942 648 l 1029 684 l 1029 513 l 1182 513 l 1182 425 l 1029 425 l 1029 212 q 1050 107 1029 140 q 1120 74 1071 74 "},"¡":{"x_min":144.578125,"x_max":386.140625,"ha":530,"o":"m 386 -250 l 144 -250 l 226 426 l 304 426 l 386 -250 m 378 642 q 369 588 378 610 q 345 554 360 567 q 308 536 329 541 q 264 531 287 531 q 220 536 240 531 q 183 554 199 541 q 159 588 168 567 q 150 642 150 610 q 159 694 150 673 q 183 728 168 715 q 220 747 199 741 q 264 753 240 753 q 308 747 287 753 q 345 728 329 741 q 369 694 360 715 q 378 642 378 673 "},"[":{"x_min":139,"x_max":523.5625,"ha":575,"o":"m 139 -178 l 139 1055 l 523 1055 l 523 981 l 463 981 q 419 978 440 981 q 383 964 398 974 q 359 934 368 953 q 349 881 349 914 l 349 -4 q 359 -56 349 -36 q 383 -87 368 -76 q 419 -101 398 -97 q 463 -104 440 -104 l 523 -104 l 523 -178 l 139 -178 "},"L":{"x_min":38.453125,"x_max":863,"ha":908,"o":"m 38 0 l 38 73 l 96 73 q 125 76 112 73 q 147 89 138 80 q 162 116 157 99 q 168 164 168 134 l 168 828 q 162 876 168 858 q 147 903 157 893 q 125 915 138 912 q 96 918 112 918 l 38 918 l 38 992 l 517 992 l 517 918 l 459 918 q 432 915 445 918 q 409 903 418 912 q 394 878 399 895 q 388 833 388 861 l 388 84 l 647 84 q 723 115 696 84 q 762 205 750 146 l 785 310 l 863 310 l 852 0 l 38 0 "}," ":{"x_min":0,"x_max":0,"ha":361},"%":{"x_min":47,"x_max":1211,"ha":1258,"o":"m 547 698 q 531 572 547 629 q 484 474 515 515 q 406 411 454 433 q 296 389 359 389 q 183 411 230 389 q 105 474 135 433 q 61 572 75 515 q 47 698 47 629 q 61 825 47 768 q 106 922 75 881 q 184 984 136 962 q 298 1006 231 1006 q 407 984 360 1006 q 485 922 454 962 q 531 825 516 881 q 547 698 547 768 m 203 698 q 208 597 203 641 q 224 522 213 553 q 253 475 235 491 q 296 458 271 458 q 340 475 323 458 q 368 522 357 491 q 383 597 379 553 q 388 698 388 641 q 383 798 388 754 q 368 872 379 841 q 341 918 358 902 q 298 934 323 934 q 254 918 272 934 q 225 872 236 902 q 208 798 213 841 q 203 698 203 754 m 440 0 l 332 0 l 812 992 l 919 992 l 440 0 m 1211 295 q 1195 168 1211 225 q 1148 70 1179 111 q 1070 8 1118 30 q 960 -14 1023 -14 q 847 8 894 -14 q 769 70 799 30 q 725 168 739 111 q 711 295 711 225 q 725 422 711 365 q 770 519 739 478 q 848 581 800 559 q 962 603 895 603 q 1071 581 1024 603 q 1149 519 1118 559 q 1195 422 1180 478 q 1211 295 1211 365 m 867 295 q 872 194 867 238 q 888 118 877 149 q 917 71 899 87 q 960 55 935 55 q 1004 71 987 55 q 1032 118 1021 87 q 1047 194 1043 149 q 1052 295 1052 238 q 1047 394 1052 351 q 1032 469 1043 438 q 1005 515 1022 499 q 962 531 987 531 q 918 515 936 531 q 889 469 900 499 q 872 394 877 438 q 867 295 867 351 "},"P":{"x_min":38.453125,"x_max":844,"ha":886,"o":"m 844 697 q 822 577 844 635 q 751 475 800 519 q 625 405 702 431 q 434 379 547 379 l 387 379 l 387 156 q 393 112 387 129 q 409 87 399 96 q 433 76 419 79 q 460 73 446 73 l 545 73 l 545 0 l 38 0 l 38 73 l 96 73 q 125 76 112 73 q 147 89 138 80 q 162 116 157 99 q 168 164 168 134 l 168 833 q 162 878 168 861 q 147 903 157 895 q 124 915 137 912 q 96 918 111 918 l 38 918 l 38 992 l 464 992 q 632 971 561 992 q 750 912 703 951 q 820 820 797 874 q 844 697 844 766 m 387 460 l 420 460 q 508 472 472 460 q 566 513 544 485 q 600 585 589 541 q 610 692 610 629 q 601 788 610 747 q 572 856 592 829 q 520 896 552 883 q 441 909 488 909 l 387 909 l 387 460 "},"À":{"x_min":5.8125,"x_max":1046.21875,"ha":1046,"o":"m 303 326 l 262 206 q 251 167 257 189 q 245 127 245 144 q 251 103 245 113 q 265 87 256 93 q 285 77 274 80 q 308 73 296 73 l 367 73 l 367 0 l 5 0 l 5 73 l 22 73 q 56 77 41 73 q 84 93 71 82 q 109 124 98 104 q 134 175 121 143 l 435 992 l 625 992 l 916 173 q 937 125 926 144 q 961 94 948 105 q 989 78 975 83 q 1021 73 1004 73 l 1046 73 l 1046 0 l 587 0 l 587 73 l 642 73 q 663 76 652 73 q 682 86 673 80 q 696 103 690 92 q 701 127 701 113 q 697 160 701 144 q 689 187 693 175 l 640 326 l 303 326 m 539 639 q 524 689 532 662 q 508 742 516 715 q 493 796 500 769 q 481 847 486 823 q 467 801 475 826 q 449 749 458 776 q 431 696 440 723 q 414 645 422 670 l 332 411 l 612 411 l 539 639 m 514 1071 q 442 1118 482 1089 q 365 1175 402 1146 q 298 1233 328 1205 q 256 1278 268 1260 l 256 1293 l 473 1293 q 501 1242 484 1269 q 537 1187 518 1215 q 575 1134 555 1160 q 609 1089 594 1108 l 609 1071 l 514 1071 "},"_":{"x_min":-7,"x_max":644,"ha":638,"o":"m 644 -197 l -7 -197 l -7 -114 l 644 -114 l 644 -197 "},"ñ":{"x_min":27.78125,"x_max":889.65625,"ha":926,"o":"m 581 0 l 581 456 q 575 536 581 501 q 556 595 569 571 q 521 631 543 618 q 470 643 500 643 q 412 626 435 643 q 375 579 389 608 q 356 510 362 549 q 349 429 349 471 l 349 164 q 357 117 349 134 q 377 89 364 99 q 408 76 389 80 q 450 73 427 73 l 454 73 l 454 0 l 27 0 l 27 73 l 30 73 q 73 76 54 73 q 108 90 93 80 q 130 119 122 100 q 139 169 139 138 l 139 580 q 131 627 139 610 q 111 655 124 645 q 80 668 98 664 q 38 671 61 671 l 34 671 l 34 745 l 326 745 l 344 645 l 351 645 q 395 707 372 684 q 445 743 418 730 q 501 758 471 755 q 563 762 530 762 q 659 746 616 762 q 731 698 701 730 q 776 615 760 665 q 792 494 792 564 l 792 172 q 797 120 792 139 q 815 90 803 101 q 844 77 826 80 q 885 73 861 73 l 889 73 l 889 0 l 581 0 m 570 974 q 597 980 585 974 q 618 996 609 986 q 631 1020 626 1006 q 638 1047 636 1033 l 729 1047 q 713 968 726 1005 q 677 902 699 930 q 623 858 654 874 q 555 842 592 842 q 487 855 518 842 q 431 885 457 869 q 382 916 405 902 q 337 929 360 929 q 310 923 322 929 q 289 907 298 917 q 276 883 281 897 q 269 856 271 870 l 179 856 q 194 935 181 898 q 231 1001 208 973 q 285 1045 254 1029 q 353 1062 316 1062 q 421 1048 391 1062 q 477 1018 451 1034 q 526 987 503 1001 q 570 974 549 974 "},"+":{"x_min":90.453125,"x_max":686.609375,"ha":777,"o":"m 437 446 l 437 198 l 338 198 l 338 446 l 90 446 l 90 546 l 338 546 l 338 794 l 437 794 l 437 546 l 686 546 l 686 446 l 437 446 "},"½":{"x_min":7.015625,"x_max":1129,"ha":1167,"o":"m 300 999 l 300 512 q 305 484 300 495 q 319 468 310 474 q 339 461 327 463 q 364 460 351 460 l 421 460 l 421 399 l 29 399 l 29 460 l 99 460 q 124 461 113 460 q 144 468 135 463 q 158 484 153 474 q 163 512 163 495 l 163 906 q 105 844 130 868 q 54 821 79 821 q 20 840 34 821 q 7 889 7 860 q 62 909 32 895 q 135 952 93 923 l 197 999 l 300 999 m 364 0 l 256 0 l 751 992 l 859 992 l 364 0 m 1104 460 q 1095 402 1104 429 q 1064 345 1087 375 q 1003 280 1042 315 q 904 197 964 245 l 791 107 l 1012 107 q 1054 121 1042 107 q 1070 153 1066 134 l 1077 191 l 1129 191 l 1123 0 l 683 0 l 683 99 l 835 228 q 894 286 870 257 q 931 341 917 314 q 950 395 944 368 q 955 451 955 423 q 940 521 955 496 q 890 546 926 546 q 853 534 867 546 q 831 501 838 521 q 821 457 823 482 q 818 408 818 432 q 773 413 795 408 q 733 428 750 418 q 704 454 715 438 q 693 492 693 469 q 706 538 693 517 q 744 575 719 560 q 806 600 769 591 q 890 609 843 609 q 987 598 946 609 q 1053 568 1027 587 q 1091 521 1079 549 q 1104 460 1104 494 "},"Æ":{"x_min":-0.390625,"x_max":1335,"ha":1380,"o":"m 861 84 l 1138 84 q 1174 92 1159 84 q 1200 114 1189 100 q 1217 148 1211 128 q 1227 190 1224 167 l 1239 256 l 1335 256 l 1325 0 l 511 0 l 511 73 l 569 73 q 623 97 607 73 q 640 156 640 120 l 640 318 l 320 318 l 262 201 q 245 160 250 180 q 239 128 239 140 q 261 86 239 99 q 323 73 282 73 l 346 73 l 346 0 l 0 0 l 0 73 l 16 73 q 81 100 52 73 q 140 181 109 126 l 530 911 l 438 918 l 438 992 l 1282 992 l 1288 736 l 1191 736 l 1184 801 q 1158 880 1178 852 q 1095 907 1137 907 l 861 907 l 861 560 l 1190 560 l 1190 476 l 861 476 l 861 84 m 626 907 l 365 402 l 640 402 l 640 907 l 626 907 "},"₣":{"x_min":38.453125,"x_max":745,"ha":777,"o":"m 647 736 l 640 803 q 607 882 634 858 q 537 907 580 907 l 373 907 l 373 528 l 645 528 l 645 445 l 373 445 l 373 318 l 560 318 l 560 237 l 373 237 l 373 164 q 379 116 373 134 q 394 89 385 99 q 417 76 404 80 q 445 73 430 73 l 531 73 l 531 0 l 38 0 l 38 73 l 96 73 q 124 76 111 73 q 147 87 137 79 q 162 112 157 96 q 168 156 168 129 l 168 237 l 44 237 l 44 318 l 168 318 l 168 833 q 162 878 168 861 q 147 903 157 894 q 124 915 137 912 q 96 918 111 918 l 38 918 l 38 992 l 737 992 l 745 736 l 647 736 "},"Ë":{"x_min":38.453125,"x_max":863,"ha":907,"o":"m 388 84 l 666 84 q 702 92 687 84 q 728 114 717 100 q 745 148 739 128 q 755 190 752 167 l 766 256 l 863 256 l 852 0 l 38 0 l 38 73 l 96 73 q 124 76 111 73 q 147 87 137 79 q 162 112 157 96 q 168 156 168 129 l 168 828 q 162 876 168 858 q 147 903 157 893 q 125 915 138 912 q 96 918 112 918 l 38 918 l 38 992 l 809 992 l 815 736 l 718 736 l 711 801 q 685 880 705 852 q 622 907 665 907 l 388 907 l 388 560 l 718 560 l 718 476 l 388 476 l 388 84 m 242 1184 q 248 1224 242 1207 q 266 1251 255 1240 q 292 1265 277 1261 q 323 1270 307 1270 q 354 1265 340 1270 q 381 1251 369 1261 q 399 1224 392 1240 q 407 1184 407 1207 q 399 1144 407 1160 q 381 1117 392 1127 q 354 1102 369 1107 q 323 1098 340 1098 q 292 1102 307 1098 q 266 1117 277 1107 q 248 1144 255 1127 q 242 1184 242 1160 m 527 1184 q 533 1224 527 1207 q 552 1251 540 1240 q 578 1265 563 1261 q 610 1270 593 1270 q 640 1265 625 1270 q 666 1251 654 1261 q 684 1224 677 1240 q 692 1184 692 1207 q 684 1144 692 1160 q 666 1117 677 1127 q 640 1102 654 1107 q 610 1098 625 1098 q 578 1102 593 1098 q 552 1117 563 1107 q 533 1144 540 1127 q 527 1184 527 1160 "},"'":{"x_min":93,"x_max":310.03125,"ha":403,"o":"m 93 992 l 310 992 l 247 610 l 155 610 l 93 992 "},"ª":{"x_min":40,"x_max":553.6875,"ha":583,"o":"m 200 672 q 215 620 200 635 q 252 606 231 606 q 316 632 295 606 q 337 701 337 659 l 337 758 l 305 757 q 224 733 248 755 q 200 672 200 712 m 281 938 q 254 932 264 938 q 238 913 244 925 q 231 886 233 902 q 229 852 229 870 q 117 866 157 852 q 77 912 77 880 q 94 952 77 936 q 138 979 110 969 q 204 994 166 989 q 284 999 241 999 q 441 966 389 999 q 494 854 494 933 l 494 649 q 507 607 494 618 q 553 597 520 597 l 553 536 l 391 536 l 357 604 l 348 604 q 320 575 336 589 q 285 551 304 561 q 242 534 266 540 q 191 528 219 528 q 80 563 121 528 q 40 669 40 599 q 98 771 40 739 q 275 810 156 804 l 337 813 l 337 850 q 335 886 337 869 q 327 914 333 902 q 310 932 321 925 q 281 938 300 938 "},"ð":{"x_min":65,"x_max":785,"ha":850,"o":"m 785 403 q 693 89 785 192 q 422 -14 601 -14 q 273 8 339 -14 q 161 76 207 30 q 89 191 114 122 q 65 353 65 260 q 87 515 65 446 q 151 629 109 583 q 257 698 194 675 q 400 721 319 721 q 486 710 446 721 q 551 683 525 699 q 534 728 544 706 q 511 772 525 750 q 479 816 498 794 q 433 860 460 838 l 237 760 l 237 850 l 360 914 q 287 948 326 935 q 197 969 247 960 l 197 1057 q 258 1047 222 1054 q 332 1027 294 1039 q 406 1000 370 1015 q 469 969 443 985 l 645 1058 l 645 965 l 547 916 q 644 821 600 875 q 719 702 688 767 q 767 562 750 637 q 785 403 785 487 m 280 352 q 288 231 280 283 q 313 144 296 179 q 358 91 330 109 q 426 73 386 73 q 493 91 466 73 q 538 144 521 109 q 563 231 555 179 q 571 352 571 283 q 563 476 571 423 q 538 563 555 528 q 493 615 521 598 q 425 632 465 632 q 358 615 385 632 q 313 564 330 598 q 288 477 296 530 q 280 352 280 425 "},"T":{"x_min":13,"x_max":893,"ha":907,"o":"m 563 164 q 568 116 563 134 q 584 89 574 99 q 606 76 593 80 q 634 73 619 73 l 692 73 l 692 0 l 213 0 l 213 73 l 271 73 q 300 76 287 73 q 322 89 313 80 q 337 116 332 99 q 343 164 343 134 l 343 907 l 231 907 q 179 900 200 907 q 144 881 158 893 q 125 850 131 868 q 116 809 118 832 l 106 723 l 13 723 l 20 992 l 886 992 l 893 723 l 800 723 l 789 809 q 780 850 787 832 q 761 881 774 868 q 726 900 747 893 q 674 907 705 907 l 563 907 l 563 164 "},"Þ":{"x_min":38.453125,"x_max":844,"ha":886,"o":"m 387 278 l 420 278 q 508 290 472 278 q 566 331 544 303 q 600 403 589 359 q 610 510 610 447 q 601 606 610 565 q 572 674 592 647 q 520 714 552 701 q 441 727 488 727 l 387 727 l 387 278 m 844 515 q 822 395 844 453 q 751 293 800 337 q 625 223 702 249 q 434 197 547 197 l 387 197 l 387 156 q 394 112 388 129 q 410 87 400 96 q 433 76 420 79 q 460 73 446 73 l 517 73 l 517 0 l 38 0 l 38 73 l 96 73 q 125 76 112 73 q 147 89 138 80 q 162 116 157 99 q 168 164 168 134 l 168 828 q 162 876 168 858 q 147 903 157 893 q 125 915 138 912 q 96 918 112 918 l 38 918 l 38 992 l 517 992 l 517 918 l 460 918 q 433 916 446 918 q 409 904 419 913 q 393 879 399 895 q 387 835 387 863 l 387 810 l 465 810 q 632 787 561 808 q 750 729 703 767 q 820 637 797 691 q 844 515 844 584 "},"j":{"x_min":-27.84375,"x_max":358.078125,"ha":480,"o":"m 349 745 l 349 -10 q 323 -166 349 -104 q 251 -265 297 -228 q 140 -318 204 -302 q 0 -334 76 -334 l -27 -334 l -27 -247 l -18 -247 q 49 -235 19 -247 q 98 -194 78 -223 q 128 -118 118 -166 q 139 0 139 -71 l 139 579 q 130 627 139 609 q 106 655 121 645 q 70 668 90 664 q 27 671 50 671 l 23 671 l 23 745 l 349 745 m 120 970 q 129 1015 120 996 q 154 1046 139 1034 q 192 1064 170 1058 q 238 1070 213 1070 q 284 1064 262 1070 q 322 1046 305 1058 q 348 1015 338 1034 q 358 970 358 996 q 348 925 358 944 q 322 894 338 906 q 284 876 305 882 q 238 870 262 870 q 192 876 213 870 q 154 894 170 882 q 129 925 139 906 q 120 970 120 944 "},"1":{"x_min":58.234375,"x_max":707.96875,"ha":777,"o":"m 134 0 l 134 73 l 248 73 q 279 78 266 73 q 301 92 292 82 q 313 120 309 103 q 318 164 318 137 l 318 860 q 268 801 291 827 q 223 755 244 774 q 180 726 201 736 q 138 716 159 716 q 107 723 121 716 q 81 743 92 730 q 64 776 71 757 q 58 818 58 795 q 102 831 79 823 q 151 851 125 839 q 207 882 177 864 q 271 925 237 900 l 369 997 l 524 997 l 524 164 q 527 125 524 142 q 538 96 530 108 q 560 79 546 85 q 596 73 574 73 l 707 73 l 707 0 l 134 0 "},"ä":{"x_min":62,"x_max":786.859375,"ha":832,"o":"m 277 206 q 296 116 277 146 q 356 87 315 87 q 410 99 386 87 q 451 135 434 112 q 477 191 468 158 q 487 265 487 224 l 487 369 l 424 365 q 354 352 383 363 q 309 321 326 341 q 285 273 292 301 q 277 206 277 244 m 401 677 q 356 666 374 677 q 327 634 338 654 q 312 587 316 614 q 308 527 308 559 q 167 548 214 527 q 120 620 120 569 q 143 685 120 658 q 204 729 165 712 q 295 754 243 746 q 406 762 347 762 q 534 749 479 762 q 625 709 588 736 q 679 636 661 681 q 698 526 698 591 l 698 172 q 702 124 698 143 q 716 94 706 105 q 742 78 725 83 q 781 73 758 73 l 786 73 l 786 0 l 528 0 l 499 95 l 487 95 q 443 46 464 67 q 400 12 423 26 q 348 -7 377 -1 q 280 -14 319 -14 q 194 0 234 -14 q 125 41 154 13 q 78 111 95 69 q 62 212 62 154 q 139 379 62 325 q 373 438 217 434 l 487 443 l 487 519 q 484 583 487 554 q 472 633 481 612 q 446 665 464 654 q 401 677 429 677 m 189 955 q 195 995 189 978 q 213 1022 202 1011 q 239 1036 224 1032 q 270 1041 254 1041 q 301 1036 287 1041 q 328 1022 316 1032 q 346 995 339 1011 q 354 955 354 978 q 346 915 354 931 q 328 888 339 898 q 301 873 316 878 q 270 869 287 869 q 239 873 254 869 q 213 888 224 878 q 195 915 202 898 q 189 955 189 931 m 474 955 q 480 995 474 978 q 499 1022 487 1011 q 525 1036 510 1032 q 557 1041 540 1041 q 587 1036 572 1041 q 613 1022 601 1032 q 631 995 624 1011 q 639 955 639 978 q 631 915 639 931 q 613 888 624 898 q 587 873 601 878 q 557 869 572 869 q 525 873 540 869 q 499 888 510 878 q 480 915 487 898 q 474 955 474 931 "},"<":{"x_min":90,"x_max":687,"ha":777,"o":"m 90 468 l 90 525 l 687 850 l 687 740 l 238 496 l 687 254 l 687 145 l 90 468 "},"£":{"x_min":33.328125,"x_max":737,"ha":777,"o":"m 375 482 q 384 453 380 466 q 390 427 387 440 q 395 399 393 413 q 396 368 396 386 q 271 177 396 258 l 276 170 q 288 173 280 171 q 308 177 297 175 q 332 181 319 179 q 357 182 345 182 q 384 180 371 182 q 411 175 397 179 q 442 166 425 171 q 480 154 458 161 q 535 139 510 145 q 591 134 560 134 q 674 162 638 134 q 737 236 709 190 l 737 81 q 670 9 709 33 q 576 -14 631 -14 q 532 -11 554 -14 q 487 -4 509 -8 q 445 4 465 0 q 410 16 425 10 q 338 37 376 28 q 272 47 300 47 q 227 43 248 47 q 188 35 207 40 q 151 22 169 30 q 114 4 133 14 l 53 -26 l 53 98 l 97 125 q 141 158 119 139 q 182 203 164 177 q 212 263 200 229 q 224 339 224 297 q 216 412 224 379 q 194 481 207 445 l 33 481 l 33 566 l 163 566 q 147 604 155 582 q 133 650 140 626 q 122 701 126 675 q 118 754 118 728 q 197 941 118 876 q 426 1006 276 1006 q 553 993 501 1006 q 639 959 606 980 q 687 908 672 937 q 702 844 702 878 q 657 763 702 795 q 528 732 613 732 q 523 797 528 763 q 506 858 518 831 q 472 903 494 885 q 416 921 450 921 q 333 881 364 921 q 302 759 302 841 q 306 703 302 731 q 317 651 311 676 q 332 604 324 626 q 349 566 341 582 l 595 566 l 595 481 l 375 482 "},"¹":{"x_min":65.015625,"x_max":479.40625,"ha":555,"o":"m 358 999 l 358 512 q 363 484 358 495 q 377 468 368 474 q 397 461 385 463 q 422 460 409 460 l 479 460 l 479 399 l 87 399 l 87 460 l 157 460 q 182 461 171 460 q 202 468 193 463 q 216 484 211 474 q 221 512 221 495 l 221 906 q 163 844 188 868 q 112 821 137 821 q 78 840 92 821 q 65 889 65 860 q 120 909 90 895 q 193 952 151 923 l 255 999 l 358 999 "},"t":{"x_min":29.546875,"x_max":534,"ha":562,"o":"m 436 97 q 487 101 463 97 q 534 110 512 105 l 534 20 q 504 9 523 15 q 461 -2 485 2 q 405 -10 436 -7 q 337 -14 374 -14 q 253 -2 291 -14 q 188 34 215 8 q 148 102 162 60 q 134 205 134 144 l 134 650 l 29 650 l 29 721 q 109 738 74 721 q 165 779 144 756 q 229 917 208 824 l 344 917 l 344 745 l 521 745 l 521 650 l 344 650 l 344 219 q 366 127 344 156 q 436 97 387 97 "},"¬":{"x_min":90,"x_max":687,"ha":777,"o":"m 687 546 l 687 198 l 586 198 l 586 446 l 90 446 l 90 546 l 687 546 "},"ù":{"x_min":36.34375,"x_max":891.4375,"ha":926,"o":"m 614 0 l 584 97 l 577 97 q 532 39 556 61 q 479 6 507 17 q 421 -9 452 -5 q 358 -14 390 -14 q 191 53 249 -14 q 134 260 134 120 l 134 572 q 128 622 134 603 q 111 652 123 641 q 82 667 100 662 q 39 671 64 671 l 36 671 l 36 745 l 344 745 l 344 299 q 349 218 344 254 q 367 157 355 182 q 399 117 379 131 q 450 104 419 104 q 507 118 483 104 q 546 160 531 133 q 568 227 561 188 q 576 315 576 266 l 576 582 q 567 630 576 612 q 546 657 559 647 q 514 668 532 666 q 475 671 496 671 l 471 671 l 471 745 l 787 745 l 787 161 q 794 113 787 130 q 813 87 801 96 q 842 76 825 78 q 879 73 859 73 l 891 73 l 891 0 l 614 0 m 430 842 q 358 889 398 860 q 281 946 318 917 q 214 1004 244 976 q 172 1049 184 1031 l 172 1064 l 389 1064 q 417 1013 400 1040 q 453 958 434 986 q 491 905 471 931 q 525 860 510 879 l 525 842 l 430 842 "},"W":{"x_min":0.34375,"x_max":1481.578125,"ha":1482,"o":"m 838 982 l 1030 451 q 1053 385 1042 419 q 1072 321 1063 352 q 1088 265 1081 290 q 1098 221 1095 239 q 1110 276 1103 246 q 1123 340 1116 307 q 1138 409 1130 374 q 1154 478 1145 445 l 1227 778 q 1231 797 1229 786 q 1236 818 1234 808 q 1239 838 1238 829 q 1240 852 1240 847 q 1218 903 1240 888 q 1151 918 1197 918 l 1119 918 l 1119 992 l 1481 992 l 1481 918 l 1455 918 q 1419 914 1434 918 q 1391 898 1403 910 q 1369 865 1379 886 q 1350 810 1359 844 l 1134 0 l 976 0 l 743 652 l 543 0 l 371 0 l 117 844 q 102 880 110 866 q 81 903 93 895 q 54 915 69 911 q 18 918 39 918 l 0 918 l 0 992 l 464 992 l 464 918 l 432 918 q 369 902 390 918 q 348 851 348 886 q 353 817 348 840 q 363 776 357 795 l 455 455 q 471 398 463 429 q 487 336 480 367 q 501 275 495 304 q 510 223 507 246 q 530 307 519 268 q 554 387 542 346 l 737 982 l 838 982 "},"ï":{"x_min":0,"x_max":465.234375,"ha":489,"o":"m 39 73 q 72 76 55 73 q 104 89 90 80 q 129 116 119 99 q 139 164 139 134 l 139 586 q 129 630 139 614 q 104 656 119 647 q 72 668 89 665 q 39 671 54 671 l 23 671 l 23 745 l 349 745 l 349 164 q 359 116 349 134 q 384 89 369 99 q 416 76 398 80 q 448 73 434 73 l 465 73 l 465 0 l 23 0 l 23 73 l 39 73 m 0 955 q 6 995 0 978 q 24 1022 13 1011 q 50 1036 35 1032 q 81 1041 65 1041 q 112 1036 98 1041 q 139 1022 127 1032 q 157 995 150 1011 q 165 955 165 978 q 157 915 165 931 q 139 888 150 898 q 112 873 127 878 q 81 869 98 869 q 50 873 65 869 q 24 888 35 878 q 6 915 13 898 q 0 955 0 931 m 285 955 q 291 995 285 978 q 310 1022 298 1011 q 336 1036 321 1032 q 368 1041 351 1041 q 398 1036 383 1041 q 424 1022 412 1032 q 442 995 435 1011 q 450 955 450 978 q 442 915 450 931 q 424 888 435 898 q 398 873 412 878 q 368 869 383 869 q 336 873 351 869 q 310 888 321 878 q 291 915 298 898 q 285 955 285 931 "},">":{"x_min":90,"x_max":687,"ha":777,"o":"m 90 145 l 90 254 l 538 496 l 90 740 l 90 850 l 687 525 l 687 468 l 90 145 "},"v":{"x_min":-0.234375,"x_max":842.015625,"ha":842,"o":"m 842 671 l 814 671 q 788 667 799 671 q 767 653 777 664 q 746 623 756 643 q 724 569 736 603 l 522 0 l 339 0 l 111 604 q 93 637 103 624 q 70 657 83 650 q 40 668 57 664 q 0 671 22 671 l 0 745 l 430 745 l 430 671 l 372 671 q 338 659 351 671 q 325 626 325 648 q 330 593 325 610 q 338 565 334 577 l 432 302 q 461 213 449 258 q 480 133 474 168 q 490 171 484 149 q 502 214 496 193 q 513 251 508 234 q 521 275 519 268 l 615 554 q 626 592 622 573 q 631 631 631 612 q 615 662 631 654 q 576 671 600 671 l 536 671 l 536 745 l 842 745 l 842 671 "},"û":{"x_min":36.34375,"x_max":891.4375,"ha":926,"o":"m 614 0 l 584 97 l 577 97 q 532 39 556 61 q 479 6 507 17 q 421 -9 452 -5 q 358 -14 390 -14 q 191 53 249 -14 q 134 260 134 120 l 134 572 q 128 622 134 603 q 111 652 123 641 q 82 667 100 662 q 39 671 64 671 l 36 671 l 36 745 l 344 745 l 344 299 q 349 218 344 254 q 367 157 355 182 q 399 117 379 131 q 450 104 419 104 q 507 118 483 104 q 546 160 531 133 q 568 227 561 188 q 576 315 576 266 l 576 582 q 567 630 576 612 q 546 657 559 647 q 514 668 532 666 q 475 671 496 671 l 471 671 l 471 745 l 787 745 l 787 161 q 794 113 787 130 q 813 87 801 96 q 842 76 825 78 q 879 73 859 73 l 891 73 l 891 0 l 614 0 m 201 860 q 239 905 217 879 q 283 958 261 931 q 324 1013 304 986 q 354 1064 343 1040 l 541 1064 q 571 1013 552 1040 q 612 958 590 986 q 656 905 634 931 q 694 860 677 879 l 694 842 l 598 842 q 564 869 584 853 q 523 901 544 884 q 482 935 502 918 q 447 966 462 952 q 411 935 431 952 q 370 901 391 918 q 330 869 350 884 q 297 842 311 853 l 201 842 l 201 860 "},"Ò":{"x_min":77,"x_max":1016,"ha":1093,"o":"m 1016 496 q 985 287 1016 382 q 894 126 954 193 q 747 22 834 59 q 547 -14 660 -14 q 340 22 428 -14 q 193 126 251 59 q 106 288 135 193 q 77 498 77 382 q 106 707 77 613 q 193 867 135 801 q 340 970 252 934 q 548 1007 429 1007 q 748 970 661 1007 q 894 867 835 934 q 985 706 954 800 q 1016 496 1016 612 m 310 496 q 323 319 310 397 q 364 187 336 241 q 437 104 392 133 q 547 76 482 76 q 657 104 612 76 q 729 187 702 133 q 770 319 757 241 q 782 496 782 397 q 770 674 782 596 q 729 806 757 752 q 657 888 702 860 q 548 916 612 916 q 438 888 483 916 q 364 806 392 860 q 323 674 336 752 q 310 496 310 596 m 551 1071 q 479 1118 519 1089 q 402 1175 439 1146 q 335 1233 365 1205 q 293 1278 305 1260 l 293 1293 l 510 1293 q 538 1242 521 1269 q 574 1187 555 1215 q 612 1134 592 1160 q 646 1089 631 1108 l 646 1071 l 551 1071 "},"&":{"x_min":65,"x_max":1094.828125,"ha":1112,"o":"m 819 0 l 723 101 q 666 54 697 75 q 596 18 634 33 q 514 -5 558 3 q 417 -14 470 -14 q 266 6 332 -14 q 155 64 200 26 q 88 157 111 102 q 65 282 65 212 q 84 386 65 343 q 136 460 103 429 q 211 514 168 492 q 302 555 254 536 q 255 617 275 588 q 222 676 235 647 q 203 736 209 705 q 197 801 197 766 q 214 885 197 847 q 267 949 232 922 q 354 991 302 976 q 475 1006 406 1006 q 593 990 543 1006 q 675 947 642 974 q 725 884 708 920 q 742 808 742 848 q 729 732 742 766 q 690 669 716 698 q 624 615 663 641 q 530 565 584 590 q 540 555 533 560 l 737 348 q 748 443 745 396 q 751 530 751 490 l 751 591 l 1055 591 l 1055 517 l 1033 517 q 988 515 1010 517 q 947 502 966 512 q 913 474 928 492 q 890 423 899 455 q 865 341 879 385 q 829 253 850 297 l 968 108 q 1016 80 987 87 q 1081 73 1044 73 l 1094 73 l 1094 0 l 819 0 m 269 275 q 282 198 269 233 q 319 135 295 162 q 377 94 343 109 q 453 78 411 78 q 577 103 526 78 q 662 168 628 127 l 365 485 q 317 440 336 464 q 288 390 298 417 q 273 335 277 364 q 269 275 269 307 m 573 807 q 569 852 573 831 q 554 889 564 873 q 524 913 543 904 q 475 922 505 922 q 435 913 452 922 q 407 889 418 904 q 390 852 396 873 q 385 805 385 831 q 390 760 385 782 q 406 717 396 738 q 433 674 417 696 q 471 628 450 652 q 520 662 501 644 q 552 702 540 681 q 568 749 563 723 q 573 807 573 775 "},"Ð":{"x_min":38.453125,"x_max":988,"ha":1065,"o":"m 988 514 q 956 305 988 400 q 863 143 925 211 q 709 37 801 75 q 496 0 617 0 l 38 0 l 38 73 l 96 73 q 125 76 112 73 q 147 89 138 80 q 162 116 157 99 q 168 164 168 134 l 168 476 l 52 476 l 52 561 l 168 561 l 168 833 q 162 878 168 861 q 147 903 157 894 q 124 915 137 912 q 96 918 111 918 l 38 918 l 38 992 l 496 992 q 703 961 611 992 q 857 871 794 931 q 954 721 920 811 q 988 514 988 632 m 753 514 q 680 810 753 713 q 466 907 607 907 l 387 907 l 387 561 l 560 561 l 560 476 l 387 476 l 387 86 l 464 86 q 590 115 536 86 q 680 200 644 145 q 735 335 716 256 q 753 514 753 414 "},"I":{"x_min":38.453125,"x_max":517.953125,"ha":557,"o":"m 38 0 l 38 73 l 96 73 q 125 76 112 73 q 147 89 138 80 q 162 116 157 99 q 168 164 168 134 l 168 827 q 162 875 168 857 q 147 902 157 892 q 125 915 138 911 q 96 918 112 918 l 38 918 l 38 992 l 517 992 l 517 918 l 459 918 q 431 915 444 918 q 408 902 418 911 q 393 875 399 892 q 388 827 388 857 l 388 164 q 393 116 388 134 q 408 89 399 99 q 431 76 418 80 q 459 73 444 73 l 517 73 l 517 0 l 38 0 "},"G":{"x_min":77,"x_max":1029.375,"ha":1068,"o":"m 587 -14 q 362 22 458 -14 q 203 126 266 59 q 108 288 139 193 q 77 497 77 382 q 110 703 77 609 q 208 864 143 796 q 370 968 273 931 q 594 1006 467 1006 q 746 993 681 1006 q 854 959 811 980 q 920 908 898 937 q 941 844 941 878 q 930 798 941 820 q 895 761 918 777 q 839 735 872 744 q 762 726 806 726 q 751 803 762 768 q 720 864 741 839 q 666 903 699 889 q 590 917 634 917 q 461 889 514 917 q 374 807 407 861 q 325 675 340 754 q 310 497 310 597 q 326 318 310 396 q 377 188 342 241 q 469 107 413 135 q 608 80 526 80 q 659 82 634 80 q 709 89 685 84 l 709 293 q 684 371 709 349 q 610 392 659 392 l 592 392 l 592 466 l 1029 466 l 1029 392 l 1011 392 q 974 387 990 392 q 948 370 958 382 q 933 338 938 358 q 929 288 929 318 l 929 60 q 764 4 847 23 q 587 -14 682 -14 "},"`":{"x_min":225,"x_max":578,"ha":802,"o":"m 483 842 q 411 889 451 860 q 334 946 371 917 q 267 1004 297 976 q 225 1049 237 1031 l 225 1064 l 442 1064 q 470 1013 453 1040 q 506 958 487 986 q 544 905 524 931 q 578 860 563 879 l 578 842 l 483 842 "},"·":{"x_min":97,"x_max":325,"ha":423,"o":"m 97 493 q 105 546 97 524 q 129 580 114 567 q 166 598 145 593 q 211 604 187 604 q 254 598 234 604 q 291 580 275 593 q 315 546 306 567 q 325 493 325 524 q 315 440 325 461 q 291 406 306 419 q 254 387 275 393 q 211 382 234 382 q 166 387 187 382 q 129 406 145 393 q 105 440 114 419 q 97 493 97 461 "},"r":{"x_min":27.78125,"x_max":705,"ha":726,"o":"m 491 0 l 27 0 l 27 73 l 31 73 q 75 77 55 73 q 109 91 94 80 q 131 121 123 101 q 139 173 139 141 l 139 576 q 131 625 139 607 q 111 654 124 644 q 80 668 98 664 q 38 671 61 671 l 34 671 l 34 745 l 315 745 l 343 636 l 349 636 q 379 690 363 667 q 418 729 396 714 q 472 753 441 745 q 545 761 503 761 q 666 732 627 761 q 705 648 705 703 q 658 549 705 584 q 528 514 612 514 q 525 564 528 542 q 514 600 522 586 q 493 621 507 614 q 460 629 480 629 q 418 617 436 629 q 389 585 401 605 q 369 541 377 566 q 357 492 361 517 q 351 445 352 468 q 349 406 349 423 l 349 166 q 357 117 349 136 q 377 89 364 99 q 408 76 390 80 q 446 73 426 73 l 491 73 l 491 0 "},"₤":{"x_min":33.328125,"x_max":737,"ha":777,"o":"m 375 481 q 382 457 379 468 q 388 437 385 447 q 392 417 390 427 q 395 395 394 407 l 595 395 l 595 311 l 386 311 q 271 177 362 234 l 275 170 q 288 173 280 171 q 308 177 297 175 q 332 181 319 179 q 357 182 345 182 q 384 180 371 182 q 411 175 397 179 q 441 166 425 171 q 480 154 458 161 q 535 139 510 145 q 591 134 560 134 q 674 162 638 134 q 737 236 709 190 l 737 81 q 670 9 709 33 q 576 -14 631 -14 q 532 -11 554 -14 q 487 -4 509 -8 q 445 4 465 0 q 410 16 425 10 q 338 37 376 28 q 272 47 300 47 q 227 43 248 47 q 188 35 207 40 q 151 22 169 30 q 114 4 133 14 l 53 -26 l 53 97 l 97 125 q 137 154 116 137 q 175 193 157 171 q 206 245 193 216 q 223 311 218 275 l 33 311 l 33 395 l 219 395 q 193 481 209 438 l 33 481 l 33 566 l 163 566 q 147 604 155 582 q 133 650 140 626 q 122 701 126 675 q 118 754 118 728 q 197 941 118 876 q 426 1006 276 1006 q 553 993 501 1006 q 639 959 606 980 q 687 908 672 937 q 702 844 702 878 q 657 763 702 795 q 528 732 613 732 q 523 797 528 763 q 506 858 518 831 q 472 903 494 885 q 416 921 450 921 q 333 881 364 921 q 302 759 302 841 q 306 703 302 731 q 317 651 311 676 q 332 604 324 626 q 349 566 340 582 l 595 566 l 595 481 l 375 481 "},"¿":{"x_min":77,"x_max":713,"ha":764,"o":"m 77 -9 q 94 90 77 46 q 145 171 111 134 q 231 238 179 207 q 352 297 283 268 l 380 424 l 465 424 l 493 253 q 395 197 434 229 q 336 127 357 164 q 305 50 314 91 q 297 -31 297 9 q 303 -92 297 -64 q 322 -139 309 -119 q 356 -170 336 -159 q 405 -181 377 -181 q 458 -167 437 -181 q 492 -129 479 -153 q 511 -74 505 -105 q 517 -6 517 -42 q 595 -12 559 -6 q 657 -31 631 -18 q 698 -61 683 -43 q 713 -104 713 -79 q 695 -167 713 -138 q 641 -218 677 -196 q 549 -252 605 -239 q 416 -265 493 -265 q 281 -247 343 -265 q 173 -197 218 -230 q 102 -117 128 -164 q 77 -9 77 -69 m 540 640 q 531 586 540 608 q 507 552 522 565 q 470 534 491 539 q 426 529 449 529 q 382 534 402 529 q 345 552 361 539 q 321 586 330 565 q 312 640 312 608 q 321 692 312 671 q 345 726 330 713 q 382 745 361 739 q 426 751 402 751 q 470 745 449 751 q 507 726 491 739 q 531 692 522 713 q 540 640 540 671 "},"ý":{"x_min":-0.265625,"x_max":804.234375,"ha":804,"o":"m 804 745 l 804 671 q 767 666 783 671 q 738 649 751 661 q 714 618 725 637 q 693 569 703 599 q 642 428 668 500 q 588 284 615 356 q 535 140 562 212 q 483 0 508 69 q 437 -118 458 -67 q 391 -206 415 -169 q 338 -268 367 -243 q 270 -307 309 -292 q 180 -327 231 -321 q 60 -334 129 -334 l 37 -334 l 37 -253 q 160 -235 109 -253 q 246 -185 211 -217 q 304 -107 281 -152 q 344 -6 327 -61 l 94 604 q 75 635 85 624 q 53 653 65 647 q 28 661 42 659 q 0 662 15 662 l 0 745 l 395 745 l 395 671 q 331 660 355 671 q 308 619 308 650 q 313 592 308 607 q 321 565 317 576 q 347 502 334 536 q 373 433 360 468 q 397 367 385 399 q 417 311 408 335 q 434 263 427 284 q 445 224 441 242 q 452 192 450 207 q 456 164 455 178 q 462 195 458 178 q 471 228 466 212 q 480 257 475 244 q 487 275 485 270 l 579 547 q 584 563 581 554 q 588 582 586 572 q 591 600 590 591 q 592 615 592 609 q 566 659 592 647 q 491 671 539 671 l 491 745 l 804 745 m 314 860 q 347 905 328 879 q 384 958 365 931 q 420 1013 403 986 q 447 1064 436 1040 l 666 1064 l 666 1049 q 623 1004 653 1031 q 556 946 593 976 q 480 889 519 917 q 408 842 440 860 l 314 842 l 314 860 "},"x":{"x_min":15.59375,"x_max":887.515625,"ha":897,"o":"m 604 629 q 584 662 604 654 q 532 671 565 671 l 528 671 l 528 745 l 849 745 l 849 671 l 837 671 q 801 667 816 671 q 769 653 785 663 q 736 626 753 643 q 696 582 719 609 l 553 407 l 757 147 q 816 90 789 107 q 869 73 843 73 l 887 73 l 887 0 l 445 0 l 445 73 l 452 73 q 536 119 536 73 q 534 135 536 127 q 526 154 532 143 q 510 180 521 165 q 483 215 500 194 l 404 311 l 307 190 q 286 156 294 173 q 278 120 278 138 q 297 85 278 97 q 364 73 317 73 l 368 73 l 368 0 l 15 0 l 15 73 l 27 73 q 71 78 52 73 q 107 92 90 82 q 141 120 124 103 q 179 162 158 137 l 353 373 l 179 597 q 120 652 149 634 q 59 671 91 671 l 41 671 l 41 745 l 478 745 l 478 671 l 473 671 q 434 668 449 671 q 410 659 419 664 q 398 646 401 654 q 394 631 394 639 q 402 602 394 616 q 426 567 409 588 l 503 472 l 569 551 q 594 591 585 572 q 604 629 604 610 "},"è":{"x_min":65,"x_max":735,"ha":793,"o":"m 412 671 q 319 614 354 671 q 282 445 285 556 l 522 445 q 516 540 522 497 q 497 611 510 582 q 463 656 483 640 q 412 671 442 671 m 425 -14 q 269 11 337 -14 q 156 86 202 37 q 88 206 111 135 q 65 367 65 277 q 88 539 65 465 q 155 662 111 613 q 263 737 199 712 q 409 762 327 762 q 545 740 485 762 q 648 677 606 719 q 712 572 690 635 q 735 427 735 510 l 735 356 l 279 356 q 294 236 281 286 q 331 153 307 186 q 388 105 354 120 q 465 89 421 89 q 531 98 501 89 q 587 121 562 106 q 630 157 612 137 q 661 202 649 178 q 699 134 699 182 q 682 77 699 104 q 632 30 666 51 q 547 -1 598 10 q 425 -14 496 -14 m 436 842 q 364 889 404 860 q 287 946 324 917 q 220 1004 250 976 q 178 1049 190 1031 l 178 1064 l 395 1064 q 423 1013 406 1040 q 459 958 440 986 q 497 905 477 931 q 531 860 516 879 l 531 842 l 436 842 "},"º":{"x_min":49,"x_max":558,"ha":607,"o":"m 211 763 q 231 639 211 681 q 304 597 252 597 q 376 639 355 597 q 397 763 397 681 q 375 886 397 845 q 302 926 353 926 q 231 886 251 926 q 211 763 211 845 m 558 763 q 493 586 558 644 q 302 528 428 528 q 115 586 181 528 q 49 763 49 645 q 114 941 49 883 q 305 999 179 999 q 410 984 364 999 q 490 940 457 969 q 540 867 522 911 q 558 763 558 823 "},"Ø":{"x_min":77,"x_max":1016,"ha":1093,"o":"m 1016 496 q 985 287 1016 382 q 894 126 954 193 q 747 22 834 59 q 547 -14 660 -14 q 341 21 429 -14 l 299 -56 l 201 -56 l 265 61 q 123 238 170 127 q 77 498 77 350 q 106 707 77 613 q 193 867 135 801 q 340 970 252 934 q 548 1007 429 1007 q 656 996 606 1007 q 752 967 707 986 l 795 1048 l 892 1048 l 827 927 q 967 752 919 862 q 1016 496 1016 642 m 310 496 q 319 340 310 410 q 350 219 329 271 l 692 858 q 630 901 666 886 q 548 916 594 916 q 438 888 483 916 q 364 806 392 860 q 323 674 336 752 q 310 496 310 596 m 782 496 q 773 651 782 583 q 744 773 763 720 l 401 133 q 464 90 428 104 q 547 76 500 76 q 657 104 612 76 q 729 187 702 133 q 770 319 757 241 q 782 496 782 397 "},"÷":{"x_min":90,"x_max":687,"ha":777,"o":"m 311 759 q 316 799 311 782 q 332 825 322 815 q 357 839 343 835 q 388 844 371 844 q 418 839 404 844 q 443 825 432 835 q 459 799 453 815 q 466 759 466 782 q 459 719 466 736 q 443 693 453 703 q 418 678 432 683 q 388 674 404 674 q 333 693 355 674 q 311 759 311 712 m 311 233 q 316 273 311 257 q 332 299 322 290 q 357 314 343 309 q 388 318 371 318 q 418 314 404 318 q 443 299 432 309 q 459 273 453 290 q 466 233 466 257 q 459 194 466 210 q 443 167 453 178 q 418 153 432 157 q 388 149 404 149 q 333 167 355 149 q 311 233 311 186 m 687 446 l 90 446 l 90 546 l 687 546 l 687 446 "},"h":{"x_min":23.703125,"x_max":889.65625,"ha":926,"o":"m 581 0 l 581 456 q 575 536 581 501 q 556 595 569 571 q 521 631 543 618 q 470 643 500 643 q 412 626 435 643 q 375 579 389 608 q 356 510 362 549 q 349 429 349 471 l 349 164 q 357 117 349 134 q 377 89 364 99 q 408 76 389 79 q 450 73 427 73 l 454 73 l 454 0 l 27 0 l 27 73 l 30 73 q 73 76 54 73 q 108 90 93 80 q 130 119 122 100 q 139 169 139 138 l 139 897 q 129 941 139 924 q 104 967 119 958 q 72 979 89 976 q 39 981 54 981 l 23 981 l 23 1055 l 349 1055 l 349 826 q 348 768 349 799 q 344 710 346 736 q 339 649 341 679 l 351 649 q 395 711 372 688 q 445 744 418 733 q 501 758 471 755 q 563 762 530 762 q 659 746 616 762 q 731 698 701 730 q 776 615 760 665 q 792 494 792 564 l 792 172 q 797 120 792 139 q 815 90 803 101 q 844 77 826 80 q 885 73 861 73 l 889 73 l 889 0 l 581 0 "},".":{"x_min":97,"x_max":325,"ha":423,"o":"m 97 99 q 105 152 97 131 q 129 187 114 174 q 166 205 145 200 q 211 211 187 211 q 254 205 234 211 q 291 187 275 200 q 315 152 306 174 q 325 99 325 131 q 315 47 325 68 q 291 13 306 26 q 254 -5 275 0 q 211 -11 234 -11 q 166 -5 187 -11 q 129 13 145 0 q 105 47 114 26 q 97 99 97 68 "},";":{"x_min":61.96875,"x_max":325,"ha":408,"o":"m 311 58 q 297 -27 311 14 q 254 -104 283 -68 q 176 -167 224 -139 q 61 -214 129 -195 l 61 -142 q 115 -120 92 -131 q 153 -96 138 -109 q 176 -69 168 -84 q 184 -33 184 -53 q 176 -12 184 -20 q 158 3 169 -3 q 133 19 146 11 q 109 39 120 26 q 90 69 97 51 q 83 115 83 87 q 111 186 83 162 q 182 211 140 211 q 276 170 241 211 q 311 58 311 129 m 97 646 q 105 699 97 677 q 129 733 114 720 q 166 751 145 746 q 211 757 187 757 q 254 751 234 757 q 291 733 275 746 q 315 699 306 720 q 325 646 325 677 q 315 593 325 614 q 291 559 306 572 q 254 540 275 546 q 211 535 234 535 q 166 540 187 535 q 129 559 145 546 q 105 593 114 572 q 97 646 97 614 "},"f":{"x_min":26.140625,"x_max":671,"ha":566,"o":"m 26 0 l 26 73 l 56 73 q 88 76 71 73 q 120 89 106 80 q 145 116 135 99 q 155 164 155 134 l 155 650 l 31 650 l 31 745 l 155 745 l 155 796 q 171 911 155 860 q 223 996 188 961 q 311 1049 258 1031 q 438 1068 365 1068 q 550 1060 506 1068 q 622 1038 595 1052 q 659 1006 648 1024 q 671 966 671 987 q 628 897 671 919 q 500 876 586 876 q 496 912 500 893 q 485 949 493 932 q 463 977 476 966 q 430 988 450 988 q 401 979 413 988 q 381 950 389 970 q 370 898 373 930 q 366 820 366 866 l 366 745 l 558 745 l 558 650 l 366 650 l 366 164 q 376 116 366 134 q 400 89 386 99 q 432 76 415 80 q 464 73 450 73 l 530 73 l 530 0 l 26 0 "},"A":{"x_min":5.8125,"x_max":1046.21875,"ha":1046,"o":"m 303 326 l 262 206 q 251 167 257 189 q 245 127 245 144 q 251 103 245 113 q 265 87 256 93 q 285 77 274 80 q 308 73 296 73 l 367 73 l 367 0 l 5 0 l 5 73 l 22 73 q 56 77 41 73 q 84 93 71 82 q 109 124 98 104 q 134 175 121 143 l 435 992 l 625 992 l 916 173 q 937 125 926 144 q 961 94 948 105 q 989 78 975 83 q 1021 73 1004 73 l 1046 73 l 1046 0 l 587 0 l 587 73 l 642 73 q 663 76 652 73 q 682 86 673 80 q 696 103 690 92 q 701 127 701 113 q 697 160 701 144 q 689 187 693 175 l 640 326 l 303 326 m 539 639 q 524 689 532 662 q 508 742 516 715 q 493 796 500 769 q 481 847 486 823 q 467 801 475 826 q 449 749 458 776 q 431 696 440 723 q 414 645 422 670 l 332 411 l 612 411 l 539 639 "},"6":{"x_min":62,"x_max":728,"ha":777,"o":"m 445 923 q 371 899 404 923 q 314 828 338 875 q 276 712 290 781 q 258 556 262 644 q 290 575 272 565 q 332 591 308 584 q 385 603 355 599 q 450 608 414 608 q 564 588 513 608 q 652 531 615 568 q 708 441 688 494 q 728 320 728 388 q 707 184 728 245 q 646 78 687 123 q 546 10 606 34 q 406 -14 486 -14 q 266 14 329 -14 q 157 100 202 42 q 87 247 112 159 q 62 458 62 336 q 86 672 62 573 q 159 846 110 772 q 283 963 208 920 q 458 1006 357 1006 q 572 993 525 1006 q 648 958 619 980 q 690 910 677 937 q 704 852 704 882 q 695 812 704 831 q 666 777 686 792 q 615 753 647 762 q 537 744 583 744 q 533 807 537 776 q 519 865 529 839 q 491 907 509 891 q 445 923 473 923 m 398 523 q 358 517 379 523 q 318 502 337 511 q 282 480 298 492 q 258 456 266 468 q 270 285 258 357 q 303 167 282 213 q 351 99 323 120 q 410 77 379 77 q 495 132 464 77 q 526 306 526 186 q 492 471 526 419 q 398 523 458 523 "},"O":{"x_min":77,"x_max":1016,"ha":1093,"o":"m 1016 496 q 985 287 1016 382 q 894 126 954 193 q 747 22 834 59 q 547 -14 660 -14 q 340 22 428 -14 q 193 126 251 59 q 106 288 135 193 q 77 498 77 382 q 106 707 77 613 q 193 867 135 801 q 340 970 252 934 q 548 1007 429 1007 q 748 970 661 1007 q 894 867 835 934 q 985 706 954 800 q 1016 496 1016 612 m 310 496 q 323 319 310 397 q 364 187 336 241 q 437 104 392 133 q 547 76 482 76 q 657 104 612 76 q 729 187 702 133 q 770 319 757 241 q 782 496 782 397 q 770 674 782 596 q 729 806 757 752 q 657 888 702 860 q 548 916 612 916 q 438 888 483 916 q 364 806 392 860 q 323 674 336 752 q 310 496 310 596 "},"n":{"x_min":27.78125,"x_max":889.65625,"ha":926,"o":"m 581 0 l 581 456 q 575 536 581 501 q 556 595 569 571 q 521 631 543 618 q 470 643 500 643 q 412 626 435 643 q 375 579 389 608 q 356 510 362 549 q 349 429 349 471 l 349 164 q 357 117 349 134 q 377 89 364 99 q 408 76 389 80 q 450 73 427 73 l 454 73 l 454 0 l 27 0 l 27 73 l 30 73 q 73 76 54 73 q 108 90 93 80 q 130 119 122 100 q 139 169 139 138 l 139 580 q 131 627 139 610 q 111 655 124 645 q 80 668 98 664 q 38 671 61 671 l 34 671 l 34 745 l 326 745 l 344 645 l 351 645 q 395 707 372 684 q 445 743 418 730 q 501 758 471 755 q 563 762 530 762 q 659 746 616 762 q 731 698 701 730 q 776 615 760 665 q 792 494 792 564 l 792 172 q 797 120 792 139 q 815 90 803 101 q 844 77 826 80 q 885 73 861 73 l 889 73 l 889 0 l 581 0 "},"﻿":{"x_min":0,"x_max":0,"ha":0},"3":{"x_min":39,"x_max":713,"ha":777,"o":"m 338 -14 q 202 0 259 -14 q 109 36 146 13 q 56 89 73 59 q 39 152 39 119 q 48 198 39 178 q 74 233 57 219 q 111 253 90 247 q 157 260 133 260 q 169 183 157 216 q 204 127 182 150 q 258 94 226 105 q 327 82 289 82 q 392 92 361 82 q 447 125 423 101 q 484 187 470 148 q 498 287 498 227 q 484 360 498 327 q 443 417 470 393 q 376 455 416 441 q 284 468 336 468 l 198 468 l 198 555 l 289 555 q 367 569 334 555 q 422 611 400 584 q 454 676 444 638 q 465 759 465 714 q 436 878 465 835 q 350 921 407 921 q 289 902 313 921 q 253 854 266 884 q 235 784 240 823 q 230 705 230 746 q 97 735 144 705 q 50 829 50 765 q 69 898 50 866 q 127 954 89 930 q 223 992 166 978 q 357 1006 281 1006 q 490 991 431 1006 q 591 946 549 976 q 655 875 633 917 q 678 779 678 833 q 661 692 678 732 q 616 622 645 653 q 549 567 588 591 q 465 528 511 544 q 551 504 507 521 q 631 459 595 487 q 689 388 666 430 q 713 285 713 345 q 681 143 713 200 q 597 50 649 85 q 477 0 544 15 q 338 -14 409 -14 "},"9":{"x_min":49,"x_max":715,"ha":777,"o":"m 316 -14 q 209 0 252 -14 q 138 34 166 12 q 99 84 111 56 q 88 142 88 112 q 104 193 88 173 q 155 222 120 214 q 180 163 166 190 q 214 116 194 136 q 261 85 234 96 q 322 73 288 73 q 467 174 416 73 q 524 476 517 275 q 488 438 508 455 q 442 409 468 422 q 387 389 417 396 q 321 382 357 382 q 211 400 261 382 q 125 455 161 419 q 69 545 89 491 q 49 669 49 599 q 70 806 49 744 q 133 912 92 868 q 233 981 174 957 q 367 1006 292 1006 q 506 978 442 1006 q 616 894 570 951 q 689 749 663 837 q 715 539 715 661 q 692 323 715 424 q 622 147 670 222 q 498 29 574 72 q 316 -14 423 -14 m 380 482 q 467 507 431 482 q 524 575 503 533 q 512 727 523 664 q 481 832 501 791 q 435 893 462 873 q 375 913 408 913 q 283 854 315 913 q 250 677 250 795 q 283 531 250 581 q 380 482 315 482 "},"l":{"x_min":23.703125,"x_max":465.234375,"ha":489,"o":"m 39 73 q 72 76 55 73 q 104 89 90 80 q 129 116 119 99 q 139 164 139 134 l 139 897 q 129 941 139 924 q 104 967 119 958 q 72 979 89 976 q 39 981 54 981 l 23 981 l 23 1055 l 349 1055 l 349 164 q 359 116 349 134 q 384 89 369 99 q 416 76 398 80 q 448 73 434 73 l 465 73 l 465 0 l 23 0 l 23 73 l 39 73 "},"¤":{"x_min":91.3125,"x_max":681.703125,"ha":777,"o":"m 132 494 q 143 571 132 534 q 176 638 154 608 l 92 722 l 162 791 l 245 707 q 310 738 275 727 q 385 750 346 750 q 459 738 424 750 q 525 706 495 727 l 611 792 l 681 722 l 596 636 q 629 569 617 605 q 641 494 641 534 q 630 419 641 454 q 599 353 619 384 l 681 271 l 611 202 l 529 284 q 462 251 498 263 q 385 240 425 240 q 309 251 346 240 q 242 283 272 262 l 162 202 l 91 273 l 171 353 q 132 494 132 415 m 226 494 q 238 431 226 461 q 272 380 251 402 q 323 346 294 358 q 385 333 352 333 q 449 346 420 333 q 500 380 478 358 q 533 431 521 402 q 545 494 545 461 q 533 558 545 528 q 500 609 521 587 q 449 644 478 632 q 385 657 420 657 q 323 644 352 657 q 272 609 294 632 q 238 558 251 587 q 226 494 226 528 "},"4":{"x_min":18,"x_max":750.453125,"ha":777,"o":"m 606 258 l 606 173 q 615 121 606 141 q 639 91 624 101 q 675 77 654 80 q 719 73 696 73 l 737 73 l 737 0 l 250 0 l 250 73 l 289 73 q 333 77 313 73 q 369 91 354 80 q 394 121 384 101 q 403 173 403 141 l 403 258 l 18 258 l 18 343 l 412 992 l 606 992 l 606 350 l 750 350 l 750 258 l 606 258 m 403 593 q 405 724 403 654 q 412 860 407 795 q 390 815 405 844 q 359 756 376 787 q 326 699 342 726 q 302 660 310 673 l 114 350 l 403 350 l 403 593 "},"p":{"x_min":18.703125,"x_max":831,"ha":896,"o":"m 34 -260 q 67 -257 50 -260 q 99 -244 85 -253 q 124 -217 114 -234 q 134 -169 134 -199 l 134 574 q 126 624 134 605 q 107 654 119 643 q 77 667 94 664 q 40 671 60 671 l 30 671 l 30 745 l 302 745 l 327 635 l 334 635 q 368 685 348 663 q 415 724 388 707 q 473 749 441 740 q 546 758 506 758 q 668 735 615 758 q 757 664 721 712 q 812 543 793 616 q 831 369 831 470 q 812 196 831 269 q 758 75 794 123 q 671 5 723 28 q 551 -17 619 -17 q 422 13 472 -17 q 343 94 373 43 l 334 94 q 339 31 336 62 q 343 -23 341 5 q 344 -74 344 -52 l 344 -169 q 354 -217 344 -199 q 379 -244 364 -234 q 411 -257 393 -253 q 443 -260 428 -260 l 473 -260 l 473 -334 l 18 -334 l 18 -260 l 34 -260 m 486 86 q 586 156 556 86 q 616 368 616 226 q 586 580 616 506 q 487 654 556 654 q 418 635 446 654 q 374 580 391 616 q 351 491 358 544 q 344 369 344 437 q 351 244 344 297 q 374 155 358 191 q 418 103 391 120 q 486 86 445 86 "},"à":{"x_min":62,"x_max":786.859375,"ha":832,"o":"m 277 206 q 296 116 277 146 q 356 87 315 87 q 410 99 386 87 q 451 135 434 112 q 477 191 468 158 q 487 265 487 224 l 487 369 l 424 365 q 354 352 383 363 q 309 321 326 341 q 285 273 292 301 q 277 206 277 244 m 401 677 q 356 666 374 677 q 327 634 338 654 q 312 587 316 614 q 308 527 308 559 q 167 548 214 527 q 120 620 120 569 q 143 685 120 658 q 204 729 165 712 q 295 754 243 746 q 406 762 347 762 q 534 749 479 762 q 625 709 588 736 q 679 636 661 681 q 698 526 698 591 l 698 172 q 702 124 698 143 q 716 94 706 105 q 742 78 725 83 q 781 73 758 73 l 786 73 l 786 0 l 528 0 l 499 95 l 487 95 q 443 46 464 67 q 400 12 423 26 q 348 -7 377 -1 q 280 -14 319 -14 q 194 0 234 -14 q 125 41 154 13 q 78 111 95 69 q 62 212 62 154 q 139 379 62 325 q 373 438 217 434 l 487 443 l 487 519 q 484 583 487 554 q 472 633 481 612 q 446 665 464 654 q 401 677 429 677 m 419 842 q 347 889 387 860 q 270 946 307 917 q 203 1004 233 976 q 161 1049 173 1031 l 161 1064 l 378 1064 q 406 1013 389 1040 q 442 958 423 986 q 480 905 460 931 q 514 860 499 879 l 514 842 l 419 842 "},"Ü":{"x_min":22.78125,"x_max":1015.21875,"ha":1038,"o":"m 1015 918 l 955 918 q 928 915 941 918 q 905 903 915 912 q 890 875 895 893 q 885 828 885 858 l 885 286 q 865 160 885 216 q 802 66 845 104 q 694 6 760 27 q 537 -14 628 -14 q 375 3 447 -14 q 254 58 304 20 q 179 156 205 96 q 153 302 153 216 l 153 833 q 147 878 153 861 q 131 903 141 894 q 109 915 121 912 q 82 918 96 918 l 22 918 l 22 992 l 501 992 l 501 918 l 443 918 q 416 915 429 918 q 393 903 403 912 q 378 875 383 893 q 372 828 372 858 l 372 291 q 387 193 372 233 q 428 129 401 153 q 494 94 456 105 q 579 84 531 84 q 662 96 625 84 q 726 133 699 108 q 766 197 752 158 q 780 288 780 235 l 780 833 q 775 878 780 861 q 759 903 769 894 q 737 915 750 912 q 710 918 724 918 l 651 918 l 651 992 l 1015 992 l 1015 918 m 336 1184 q 342 1224 336 1207 q 360 1251 349 1240 q 386 1265 371 1261 q 417 1270 401 1270 q 448 1265 434 1270 q 475 1251 463 1261 q 493 1224 486 1240 q 501 1184 501 1207 q 493 1144 501 1160 q 475 1117 486 1127 q 448 1102 463 1107 q 417 1098 434 1098 q 386 1102 401 1098 q 360 1117 371 1107 q 342 1144 349 1127 q 336 1184 336 1160 m 621 1184 q 627 1224 621 1207 q 646 1251 634 1240 q 672 1265 657 1261 q 704 1270 687 1270 q 734 1265 719 1270 q 760 1251 748 1261 q 778 1224 771 1240 q 786 1184 786 1207 q 778 1144 786 1160 q 760 1117 771 1127 q 734 1102 748 1107 q 704 1098 719 1098 q 672 1102 687 1098 q 646 1117 657 1107 q 627 1144 634 1127 q 621 1184 621 1160 "},"ó":{"x_min":65,"x_max":786,"ha":851,"o":"m 786 374 q 694 82 786 178 q 423 -14 602 -14 q 273 10 340 -14 q 160 82 207 34 q 89 203 114 130 q 65 374 65 277 q 156 666 65 570 q 427 762 248 762 q 577 738 511 762 q 690 666 643 714 q 761 545 736 618 q 786 374 786 472 m 280 374 q 288 244 280 300 q 313 150 296 188 q 358 92 330 112 q 426 73 386 73 q 494 92 466 73 q 538 150 521 112 q 563 244 556 188 q 571 374 571 300 q 563 505 571 449 q 538 598 555 561 q 492 654 520 635 q 425 673 465 673 q 357 654 385 673 q 312 598 329 635 q 288 505 295 561 q 280 374 280 449 m 342 860 q 375 905 356 879 q 412 958 393 931 q 448 1013 431 986 q 475 1064 464 1040 l 694 1064 l 694 1049 q 651 1004 681 1031 q 584 946 621 976 q 508 889 547 917 q 436 842 468 860 l 342 842 l 342 860 "}}}
